<?xml version="1.0" encoding="utf-8" standalone="no"?>
<!DOCTYPE svg PUBLIC "-//W3C//DTD SVG 1.1//EN"
  "http://www.w3.org/Graphics/SVG/1.1/DTD/svg11.dtd">
<svg xmlns:xlink="http://www.w3.org/1999/xlink" width="589.678125pt" height="618.233625pt" viewBox="0 0 589.678125 618.233625" xmlns="http://www.w3.org/2000/svg" version="1.1">
 <metadata>
  <rdf:RDF xmlns:dc="http://purl.org/dc/elements/1.1/" xmlns:cc="http://creativecommons.org/ns#" xmlns:rdf="http://www.w3.org/1999/02/22-rdf-syntax-ns#">
   <cc:Work>
    <dc:type rdf:resource="http://purl.org/dc/dcmitype/StillImage"/>
    <dc:date>2024-10-24T18:43:10.261920</dc:date>
    <dc:format>image/svg+xml</dc:format>
    <dc:creator>
     <cc:Agent>
      <dc:title>Matplotlib v3.9.2, https://matplotlib.org/</dc:title>
     </cc:Agent>
    </dc:creator>
   </cc:Work>
  </rdf:RDF>
 </metadata>
 <defs>
  <style type="text/css">*{stroke-linejoin: round; stroke-linecap: butt}</style>
 </defs>
 <g id="figure_1">
  <g id="patch_1">
   <path d="M 0 618.233625 
L 589.678125 618.233625 
L 589.678125 0 
L 0 0 
z
" style="fill: #ffffff"/>
  </g>
  <g id="axes_1">
   <g id="PathCollection_1">
    <defs>
     <path id="m9a789c375e" d="M 0 5 
C 1.326016 5 2.597899 4.473168 3.535534 3.535534 
C 4.473168 2.597899 5 1.326016 5 0 
C 5 -1.326016 4.473168 -2.597899 3.535534 -3.535534 
C 2.597899 -4.473168 1.326016 -5 0 -5 
C -1.326016 -5 -2.597899 -4.473168 -3.535534 -3.535534 
C -4.473168 -2.597899 -5 -1.326016 -5 0 
C -5 1.326016 -4.473168 2.597899 -3.535534 3.535534 
C -2.597899 4.473168 -1.326016 5 0 5 
z
" style="stroke: #ffb482; stroke-opacity: 0.7"/>
    </defs>
    <g clip-path="url(#p37096fb098)">
     <use xlink:href="#m9a789c375e" x="229.013692" y="404.967676" style="fill: #ffb482; fill-opacity: 0.7; stroke: #ffb482; stroke-opacity: 0.7"/>
    </g>
   </g>
   <g id="PathCollection_2">
    <g clip-path="url(#p37096fb098)">
     <use xlink:href="#m9a789c375e" x="429.204345" y="373.367768" style="fill: #ffb482; fill-opacity: 0.7; stroke: #ffb482; stroke-opacity: 0.7"/>
    </g>
   </g>
   <g id="PathCollection_3">
    <defs>
     <path id="m77ff9eec6b" d="M 0 5 
C 1.326016 5 2.597899 4.473168 3.535534 3.535534 
C 4.473168 2.597899 5 1.326016 5 0 
C 5 -1.326016 4.473168 -2.597899 3.535534 -3.535534 
C 2.597899 -4.473168 1.326016 -5 0 -5 
C -1.326016 -5 -2.597899 -4.473168 -3.535534 -3.535534 
C -4.473168 -2.597899 -5 -1.326016 -5 0 
C -5 1.326016 -4.473168 2.597899 -3.535534 3.535534 
C -2.597899 4.473168 -1.326016 5 0 5 
z
" style="stroke: #a1c9f4; stroke-opacity: 0.7"/>
    </defs>
    <g clip-path="url(#p37096fb098)">
     <use xlink:href="#m77ff9eec6b" x="368.813735" y="298.998817" style="fill: #a1c9f4; fill-opacity: 0.7; stroke: #a1c9f4; stroke-opacity: 0.7"/>
    </g>
   </g>
   <g id="PathCollection_4">
    <g clip-path="url(#p37096fb098)">
     <use xlink:href="#m77ff9eec6b" x="411.499835" y="515.696105" style="fill: #a1c9f4; fill-opacity: 0.7; stroke: #a1c9f4; stroke-opacity: 0.7"/>
    </g>
   </g>
   <g id="PathCollection_5">
    <g clip-path="url(#p37096fb098)">
     <use xlink:href="#m9a789c375e" x="337.072618" y="191.66277" style="fill: #ffb482; fill-opacity: 0.7; stroke: #ffb482; stroke-opacity: 0.7"/>
    </g>
   </g>
   <g id="PathCollection_6">
    <g clip-path="url(#p37096fb098)">
     <use xlink:href="#m77ff9eec6b" x="418.198942" y="322.606505" style="fill: #a1c9f4; fill-opacity: 0.7; stroke: #a1c9f4; stroke-opacity: 0.7"/>
    </g>
   </g>
   <g id="PathCollection_7">
    <g clip-path="url(#p37096fb098)">
     <use xlink:href="#m77ff9eec6b" x="384.128494" y="302.363708" style="fill: #a1c9f4; fill-opacity: 0.7; stroke: #a1c9f4; stroke-opacity: 0.7"/>
    </g>
   </g>
   <g id="PathCollection_8">
    <g clip-path="url(#p37096fb098)">
     <use xlink:href="#m77ff9eec6b" x="350.254368" y="408.749247" style="fill: #a1c9f4; fill-opacity: 0.7; stroke: #a1c9f4; stroke-opacity: 0.7"/>
    </g>
   </g>
   <g id="PathCollection_9">
    <g clip-path="url(#p37096fb098)">
     <use xlink:href="#m9a789c375e" x="285.628918" y="176.569917" style="fill: #ffb482; fill-opacity: 0.7; stroke: #ffb482; stroke-opacity: 0.7"/>
    </g>
   </g>
   <g id="PathCollection_10">
    <g clip-path="url(#p37096fb098)">
     <use xlink:href="#m77ff9eec6b" x="428.164569" y="424.124672" style="fill: #a1c9f4; fill-opacity: 0.7; stroke: #a1c9f4; stroke-opacity: 0.7"/>
    </g>
   </g>
   <g id="PathCollection_11">
    <g clip-path="url(#p37096fb098)">
     <use xlink:href="#m9a789c375e" x="350.78703" y="208.581167" style="fill: #ffb482; fill-opacity: 0.7; stroke: #ffb482; stroke-opacity: 0.7"/>
    </g>
   </g>
   <g id="PathCollection_12">
    <g clip-path="url(#p37096fb098)">
     <use xlink:href="#m9a789c375e" x="268.896726" y="433.191716" style="fill: #ffb482; fill-opacity: 0.7; stroke: #ffb482; stroke-opacity: 0.7"/>
    </g>
   </g>
   <g id="PathCollection_13">
    <g clip-path="url(#p37096fb098)">
     <use xlink:href="#m77ff9eec6b" x="417.468468" y="237.349745" style="fill: #a1c9f4; fill-opacity: 0.7; stroke: #a1c9f4; stroke-opacity: 0.7"/>
    </g>
   </g>
   <g id="PathCollection_14">
    <g clip-path="url(#p37096fb098)">
     <use xlink:href="#m77ff9eec6b" x="395.827875" y="459.918795" style="fill: #a1c9f4; fill-opacity: 0.7; stroke: #a1c9f4; stroke-opacity: 0.7"/>
    </g>
   </g>
   <g id="PathCollection_15">
    <g clip-path="url(#p37096fb098)">
     <use xlink:href="#m9a789c375e" x="351.851499" y="313.706297" style="fill: #ffb482; fill-opacity: 0.7; stroke: #ffb482; stroke-opacity: 0.7"/>
    </g>
   </g>
   <g id="PathCollection_16">
    <g clip-path="url(#p37096fb098)">
     <use xlink:href="#m77ff9eec6b" x="429.317459" y="252.848647" style="fill: #a1c9f4; fill-opacity: 0.7; stroke: #a1c9f4; stroke-opacity: 0.7"/>
    </g>
   </g>
   <g id="PathCollection_17">
    <g clip-path="url(#p37096fb098)">
     <use xlink:href="#m77ff9eec6b" x="480.3462" y="388.812969" style="fill: #a1c9f4; fill-opacity: 0.7; stroke: #a1c9f4; stroke-opacity: 0.7"/>
    </g>
   </g>
   <g id="PathCollection_18">
    <g clip-path="url(#p37096fb098)">
     <use xlink:href="#m9a789c375e" x="269.228473" y="330.200314" style="fill: #ffb482; fill-opacity: 0.7; stroke: #ffb482; stroke-opacity: 0.7"/>
    </g>
   </g>
   <g id="PathCollection_19">
    <g clip-path="url(#p37096fb098)">
     <use xlink:href="#m77ff9eec6b" x="356.600762" y="464.387614" style="fill: #a1c9f4; fill-opacity: 0.7; stroke: #a1c9f4; stroke-opacity: 0.7"/>
    </g>
   </g>
   <g id="PathCollection_20">
    <g clip-path="url(#p37096fb098)">
     <use xlink:href="#m77ff9eec6b" x="275.992284" y="272.945172" style="fill: #a1c9f4; fill-opacity: 0.7; stroke: #a1c9f4; stroke-opacity: 0.7"/>
    </g>
   </g>
   <g id="PathCollection_21">
    <g clip-path="url(#p37096fb098)">
     <use xlink:href="#m9a789c375e" x="394.213452" y="252.089887" style="fill: #ffb482; fill-opacity: 0.7; stroke: #ffb482; stroke-opacity: 0.7"/>
    </g>
   </g>
   <g id="PathCollection_22">
    <g clip-path="url(#p37096fb098)">
     <use xlink:href="#m77ff9eec6b" x="415.122985" y="433.870435" style="fill: #a1c9f4; fill-opacity: 0.7; stroke: #a1c9f4; stroke-opacity: 0.7"/>
    </g>
   </g>
   <g id="PathCollection_23">
    <g clip-path="url(#p37096fb098)">
     <use xlink:href="#m9a789c375e" x="444.533932" y="242.892487" style="fill: #ffb482; fill-opacity: 0.7; stroke: #ffb482; stroke-opacity: 0.7"/>
    </g>
   </g>
   <g id="PathCollection_24">
    <g clip-path="url(#p37096fb098)">
     <use xlink:href="#m9a789c375e" x="255.868776" y="544.857817" style="fill: #ffb482; fill-opacity: 0.7; stroke: #ffb482; stroke-opacity: 0.7"/>
    </g>
   </g>
   <g id="PathCollection_25">
    <g clip-path="url(#p37096fb098)">
     <use xlink:href="#m77ff9eec6b" x="371.574387" y="287.423409" style="fill: #a1c9f4; fill-opacity: 0.7; stroke: #a1c9f4; stroke-opacity: 0.7"/>
    </g>
   </g>
   <g id="PathCollection_26">
    <g clip-path="url(#p37096fb098)">
     <use xlink:href="#m9a789c375e" x="39.859943" y="399.927593" style="fill: #ffb482; fill-opacity: 0.7; stroke: #ffb482; stroke-opacity: 0.7"/>
    </g>
   </g>
   <g id="PathCollection_27">
    <g clip-path="url(#p37096fb098)">
     <use xlink:href="#m77ff9eec6b" x="357.636843" y="349.485421" style="fill: #a1c9f4; fill-opacity: 0.7; stroke: #a1c9f4; stroke-opacity: 0.7"/>
    </g>
   </g>
   <g id="PathCollection_28">
    <g clip-path="url(#p37096fb098)">
     <use xlink:href="#m9a789c375e" x="77.439898" y="473.767767" style="fill: #ffb482; fill-opacity: 0.7; stroke: #ffb482; stroke-opacity: 0.7"/>
    </g>
   </g>
   <g id="PathCollection_29">
    <g clip-path="url(#p37096fb098)">
     <use xlink:href="#m77ff9eec6b" x="404.639203" y="545.293179" style="fill: #a1c9f4; fill-opacity: 0.7; stroke: #a1c9f4; stroke-opacity: 0.7"/>
    </g>
   </g>
   <g id="PathCollection_30">
    <g clip-path="url(#p37096fb098)">
     <use xlink:href="#m77ff9eec6b" x="361.480389" y="428.462099" style="fill: #a1c9f4; fill-opacity: 0.7; stroke: #a1c9f4; stroke-opacity: 0.7"/>
    </g>
   </g>
   <g id="PathCollection_31">
    <g clip-path="url(#p37096fb098)">
     <use xlink:href="#m77ff9eec6b" x="358.251253" y="317.2379" style="fill: #a1c9f4; fill-opacity: 0.7; stroke: #a1c9f4; stroke-opacity: 0.7"/>
    </g>
   </g>
   <g id="PathCollection_32">
    <g clip-path="url(#p37096fb098)">
     <use xlink:href="#m77ff9eec6b" x="393.461926" y="345.719301" style="fill: #a1c9f4; fill-opacity: 0.7; stroke: #a1c9f4; stroke-opacity: 0.7"/>
    </g>
   </g>
   <g id="PathCollection_33">
    <g clip-path="url(#p37096fb098)">
     <use xlink:href="#m77ff9eec6b" x="289.934965" y="360.259273" style="fill: #a1c9f4; fill-opacity: 0.7; stroke: #a1c9f4; stroke-opacity: 0.7"/>
    </g>
   </g>
   <g id="PathCollection_34">
    <g clip-path="url(#p37096fb098)">
     <use xlink:href="#m9a789c375e" x="318.218354" y="276.057291" style="fill: #ffb482; fill-opacity: 0.7; stroke: #ffb482; stroke-opacity: 0.7"/>
    </g>
   </g>
   <g id="PathCollection_35">
    <g clip-path="url(#p37096fb098)">
     <use xlink:href="#m9a789c375e" x="326.486791" y="226.200256" style="fill: #ffb482; fill-opacity: 0.7; stroke: #ffb482; stroke-opacity: 0.7"/>
    </g>
   </g>
   <g id="PathCollection_36">
    <g clip-path="url(#p37096fb098)">
     <use xlink:href="#m77ff9eec6b" x="399.45685" y="430.001956" style="fill: #a1c9f4; fill-opacity: 0.7; stroke: #a1c9f4; stroke-opacity: 0.7"/>
    </g>
   </g>
   <g id="PathCollection_37">
    <g clip-path="url(#p37096fb098)">
     <use xlink:href="#m9a789c375e" x="273.088048" y="233.835689" style="fill: #ffb482; fill-opacity: 0.7; stroke: #ffb482; stroke-opacity: 0.7"/>
    </g>
   </g>
   <g id="PathCollection_38">
    <g clip-path="url(#p37096fb098)">
     <use xlink:href="#m77ff9eec6b" x="362.387629" y="384.052609" style="fill: #a1c9f4; fill-opacity: 0.7; stroke: #a1c9f4; stroke-opacity: 0.7"/>
    </g>
   </g>
   <g id="PathCollection_39">
    <g clip-path="url(#p37096fb098)">
     <use xlink:href="#m9a789c375e" x="351.159212" y="123.253049" style="fill: #ffb482; fill-opacity: 0.7; stroke: #ffb482; stroke-opacity: 0.7"/>
    </g>
   </g>
   <g id="PathCollection_40">
    <g clip-path="url(#p37096fb098)">
     <use xlink:href="#m9a789c375e" x="375.255363" y="147.276772" style="fill: #ffb482; fill-opacity: 0.7; stroke: #ffb482; stroke-opacity: 0.7"/>
    </g>
   </g>
   <g id="PathCollection_41">
    <g clip-path="url(#p37096fb098)">
     <use xlink:href="#m9a789c375e" x="322.671935" y="287.786271" style="fill: #ffb482; fill-opacity: 0.7; stroke: #ffb482; stroke-opacity: 0.7"/>
    </g>
   </g>
   <g id="PathCollection_42">
    <g clip-path="url(#p37096fb098)">
     <use xlink:href="#m9a789c375e" x="240.530037" y="283.301315" style="fill: #ffb482; fill-opacity: 0.7; stroke: #ffb482; stroke-opacity: 0.7"/>
    </g>
   </g>
   <g id="PathCollection_43">
    <g clip-path="url(#p37096fb098)">
     <use xlink:href="#m9a789c375e" x="450.556874" y="169.090153" style="fill: #ffb482; fill-opacity: 0.7; stroke: #ffb482; stroke-opacity: 0.7"/>
    </g>
   </g>
   <g id="PathCollection_44">
    <g clip-path="url(#p37096fb098)">
     <use xlink:href="#m9a789c375e" x="443.906872" y="300.681091" style="fill: #ffb482; fill-opacity: 0.7; stroke: #ffb482; stroke-opacity: 0.7"/>
    </g>
   </g>
   <g id="PathCollection_45">
    <g clip-path="url(#p37096fb098)">
     <use xlink:href="#m77ff9eec6b" x="416.642127" y="366.912113" style="fill: #a1c9f4; fill-opacity: 0.7; stroke: #a1c9f4; stroke-opacity: 0.7"/>
    </g>
   </g>
   <g id="PathCollection_46">
    <g clip-path="url(#p37096fb098)">
     <use xlink:href="#m9a789c375e" x="367.267442" y="494.345989" style="fill: #ffb482; fill-opacity: 0.7; stroke: #ffb482; stroke-opacity: 0.7"/>
    </g>
   </g>
   <g id="PathCollection_47">
    <g clip-path="url(#p37096fb098)">
     <use xlink:href="#m77ff9eec6b" x="418.108615" y="477.099735" style="fill: #a1c9f4; fill-opacity: 0.7; stroke: #a1c9f4; stroke-opacity: 0.7"/>
    </g>
   </g>
   <g id="PathCollection_48">
    <g clip-path="url(#p37096fb098)">
     <use xlink:href="#m77ff9eec6b" x="472.797007" y="570.95245" style="fill: #a1c9f4; fill-opacity: 0.7; stroke: #a1c9f4; stroke-opacity: 0.7"/>
    </g>
   </g>
   <g id="PathCollection_49">
    <g clip-path="url(#p37096fb098)">
     <use xlink:href="#m9a789c375e" x="443.178471" y="341.660223" style="fill: #ffb482; fill-opacity: 0.7; stroke: #ffb482; stroke-opacity: 0.7"/>
    </g>
   </g>
   <g id="PathCollection_50">
    <g clip-path="url(#p37096fb098)">
     <use xlink:href="#m9a789c375e" x="326.563747" y="301.880549" style="fill: #ffb482; fill-opacity: 0.7; stroke: #ffb482; stroke-opacity: 0.7"/>
    </g>
   </g>
   <g id="PathCollection_51">
    <g clip-path="url(#p37096fb098)">
     <use xlink:href="#m9a789c375e" x="247.587238" y="272.339293" style="fill: #ffb482; fill-opacity: 0.7; stroke: #ffb482; stroke-opacity: 0.7"/>
    </g>
   </g>
   <g id="PathCollection_52">
    <g clip-path="url(#p37096fb098)">
     <use xlink:href="#m77ff9eec6b" x="389.404811" y="479.289928" style="fill: #a1c9f4; fill-opacity: 0.7; stroke: #a1c9f4; stroke-opacity: 0.7"/>
    </g>
   </g>
   <g id="PathCollection_53">
    <g clip-path="url(#p37096fb098)">
     <use xlink:href="#m9a789c375e" x="317.494098" y="247.765809" style="fill: #ffb482; fill-opacity: 0.7; stroke: #ffb482; stroke-opacity: 0.7"/>
    </g>
   </g>
   <g id="PathCollection_54">
    <g clip-path="url(#p37096fb098)">
     <use xlink:href="#m9a789c375e" x="378.141958" y="285.578767" style="fill: #ffb482; fill-opacity: 0.7; stroke: #ffb482; stroke-opacity: 0.7"/>
    </g>
   </g>
   <g id="PathCollection_55">
    <g clip-path="url(#p37096fb098)">
     <use xlink:href="#m77ff9eec6b" x="408.861612" y="232.243902" style="fill: #a1c9f4; fill-opacity: 0.7; stroke: #a1c9f4; stroke-opacity: 0.7"/>
    </g>
   </g>
   <g id="PathCollection_56">
    <g clip-path="url(#p37096fb098)">
     <use xlink:href="#m9a789c375e" x="204.225373" y="218.047174" style="fill: #ffb482; fill-opacity: 0.7; stroke: #ffb482; stroke-opacity: 0.7"/>
    </g>
   </g>
   <g id="PathCollection_57">
    <g clip-path="url(#p37096fb098)">
     <use xlink:href="#m9a789c375e" x="336.49286" y="250.027454" style="fill: #ffb482; fill-opacity: 0.7; stroke: #ffb482; stroke-opacity: 0.7"/>
    </g>
   </g>
   <g id="PathCollection_58">
    <g clip-path="url(#p37096fb098)">
     <use xlink:href="#m77ff9eec6b" x="381.736017" y="389.593556" style="fill: #a1c9f4; fill-opacity: 0.7; stroke: #a1c9f4; stroke-opacity: 0.7"/>
    </g>
   </g>
   <g id="PathCollection_59">
    <g clip-path="url(#p37096fb098)">
     <use xlink:href="#m77ff9eec6b" x="402.748363" y="365.349568" style="fill: #a1c9f4; fill-opacity: 0.7; stroke: #a1c9f4; stroke-opacity: 0.7"/>
    </g>
   </g>
   <g id="PathCollection_60">
    <g clip-path="url(#p37096fb098)">
     <use xlink:href="#m9a789c375e" x="368.042398" y="361.179114" style="fill: #ffb482; fill-opacity: 0.7; stroke: #ffb482; stroke-opacity: 0.7"/>
    </g>
   </g>
   <g id="PathCollection_61">
    <g clip-path="url(#p37096fb098)">
     <use xlink:href="#m9a789c375e" x="308.189545" y="331.369233" style="fill: #ffb482; fill-opacity: 0.7; stroke: #ffb482; stroke-opacity: 0.7"/>
    </g>
   </g>
   <g id="PathCollection_62">
    <g clip-path="url(#p37096fb098)">
     <use xlink:href="#m9a789c375e" x="332.691901" y="176.903913" style="fill: #ffb482; fill-opacity: 0.7; stroke: #ffb482; stroke-opacity: 0.7"/>
    </g>
   </g>
   <g id="PathCollection_63">
    <g clip-path="url(#p37096fb098)">
     <use xlink:href="#m9a789c375e" x="447.868907" y="199.301457" style="fill: #ffb482; fill-opacity: 0.7; stroke: #ffb482; stroke-opacity: 0.7"/>
    </g>
   </g>
   <g id="PathCollection_64">
    <g clip-path="url(#p37096fb098)">
     <use xlink:href="#m77ff9eec6b" x="451.569747" y="396.914178" style="fill: #a1c9f4; fill-opacity: 0.7; stroke: #a1c9f4; stroke-opacity: 0.7"/>
    </g>
   </g>
   <g id="PathCollection_65">
    <g clip-path="url(#p37096fb098)">
     <use xlink:href="#m77ff9eec6b" x="418.771244" y="476.909966" style="fill: #a1c9f4; fill-opacity: 0.7; stroke: #a1c9f4; stroke-opacity: 0.7"/>
    </g>
   </g>
   <g id="PathCollection_66">
    <g clip-path="url(#p37096fb098)">
     <use xlink:href="#m77ff9eec6b" x="397.78657" y="369.434597" style="fill: #a1c9f4; fill-opacity: 0.7; stroke: #a1c9f4; stroke-opacity: 0.7"/>
    </g>
   </g>
   <g id="PathCollection_67">
    <g clip-path="url(#p37096fb098)">
     <use xlink:href="#m9a789c375e" x="392.961835" y="302.897107" style="fill: #ffb482; fill-opacity: 0.7; stroke: #ffb482; stroke-opacity: 0.7"/>
    </g>
   </g>
   <g id="PathCollection_68">
    <g clip-path="url(#p37096fb098)">
     <use xlink:href="#m9a789c375e" x="348.209926" y="370.796629" style="fill: #ffb482; fill-opacity: 0.7; stroke: #ffb482; stroke-opacity: 0.7"/>
    </g>
   </g>
   <g id="PathCollection_69">
    <g clip-path="url(#p37096fb098)">
     <use xlink:href="#m77ff9eec6b" x="380.066474" y="381.749359" style="fill: #a1c9f4; fill-opacity: 0.7; stroke: #a1c9f4; stroke-opacity: 0.7"/>
    </g>
   </g>
   <g id="PathCollection_70">
    <g clip-path="url(#p37096fb098)">
     <use xlink:href="#m77ff9eec6b" x="408.081906" y="355.566218" style="fill: #a1c9f4; fill-opacity: 0.7; stroke: #a1c9f4; stroke-opacity: 0.7"/>
    </g>
   </g>
   <g id="PathCollection_71">
    <g clip-path="url(#p37096fb098)">
     <use xlink:href="#m77ff9eec6b" x="433.552106" y="299.738123" style="fill: #a1c9f4; fill-opacity: 0.7; stroke: #a1c9f4; stroke-opacity: 0.7"/>
    </g>
   </g>
   <g id="PathCollection_72">
    <g clip-path="url(#p37096fb098)">
     <use xlink:href="#m77ff9eec6b" x="357.930001" y="357.681475" style="fill: #a1c9f4; fill-opacity: 0.7; stroke: #a1c9f4; stroke-opacity: 0.7"/>
    </g>
   </g>
   <g id="PathCollection_73">
    <g clip-path="url(#p37096fb098)">
     <use xlink:href="#m77ff9eec6b" x="236.854236" y="306.969386" style="fill: #a1c9f4; fill-opacity: 0.7; stroke: #a1c9f4; stroke-opacity: 0.7"/>
    </g>
   </g>
   <g id="PathCollection_74">
    <g clip-path="url(#p37096fb098)">
     <use xlink:href="#m9a789c375e" x="403.624307" y="277.553945" style="fill: #ffb482; fill-opacity: 0.7; stroke: #ffb482; stroke-opacity: 0.7"/>
    </g>
   </g>
   <g id="PathCollection_75">
    <g clip-path="url(#p37096fb098)">
     <use xlink:href="#m77ff9eec6b" x="394.319192" y="546.941674" style="fill: #a1c9f4; fill-opacity: 0.7; stroke: #a1c9f4; stroke-opacity: 0.7"/>
    </g>
   </g>
   <g id="PathCollection_76">
    <g clip-path="url(#p37096fb098)">
     <use xlink:href="#m9a789c375e" x="445.313558" y="227.765229" style="fill: #ffb482; fill-opacity: 0.7; stroke: #ffb482; stroke-opacity: 0.7"/>
    </g>
   </g>
   <g id="PathCollection_77">
    <g clip-path="url(#p37096fb098)">
     <use xlink:href="#m9a789c375e" x="325.968184" y="269.508049" style="fill: #ffb482; fill-opacity: 0.7; stroke: #ffb482; stroke-opacity: 0.7"/>
    </g>
   </g>
   <g id="PathCollection_78">
    <g clip-path="url(#p37096fb098)">
     <use xlink:href="#m77ff9eec6b" x="265.751456" y="435.206154" style="fill: #a1c9f4; fill-opacity: 0.7; stroke: #a1c9f4; stroke-opacity: 0.7"/>
    </g>
   </g>
   <g id="PathCollection_79">
    <g clip-path="url(#p37096fb098)">
     <use xlink:href="#m9a789c375e" x="407.973216" y="227.495814" style="fill: #ffb482; fill-opacity: 0.7; stroke: #ffb482; stroke-opacity: 0.7"/>
    </g>
   </g>
   <g id="PathCollection_80">
    <g clip-path="url(#p37096fb098)">
     <use xlink:href="#m77ff9eec6b" x="428.612759" y="422.08007" style="fill: #a1c9f4; fill-opacity: 0.7; stroke: #a1c9f4; stroke-opacity: 0.7"/>
    </g>
   </g>
   <g id="PathCollection_81">
    <g clip-path="url(#p37096fb098)">
     <use xlink:href="#m77ff9eec6b" x="444.068306" y="405.021932" style="fill: #a1c9f4; fill-opacity: 0.7; stroke: #a1c9f4; stroke-opacity: 0.7"/>
    </g>
   </g>
   <g id="PathCollection_82">
    <g clip-path="url(#p37096fb098)">
     <use xlink:href="#m9a789c375e" x="418.553776" y="518.54898" style="fill: #ffb482; fill-opacity: 0.7; stroke: #ffb482; stroke-opacity: 0.7"/>
    </g>
   </g>
   <g id="PathCollection_83">
    <g clip-path="url(#p37096fb098)">
     <use xlink:href="#m9a789c375e" x="409.520951" y="193.674696" style="fill: #ffb482; fill-opacity: 0.7; stroke: #ffb482; stroke-opacity: 0.7"/>
    </g>
   </g>
   <g id="PathCollection_84">
    <g clip-path="url(#p37096fb098)">
     <use xlink:href="#m77ff9eec6b" x="330.696326" y="292.742434" style="fill: #a1c9f4; fill-opacity: 0.7; stroke: #a1c9f4; stroke-opacity: 0.7"/>
    </g>
   </g>
   <g id="PathCollection_85">
    <g clip-path="url(#p37096fb098)">
     <use xlink:href="#m77ff9eec6b" x="326.813239" y="343.625677" style="fill: #a1c9f4; fill-opacity: 0.7; stroke: #a1c9f4; stroke-opacity: 0.7"/>
    </g>
   </g>
   <g id="PathCollection_86">
    <g clip-path="url(#p37096fb098)">
     <use xlink:href="#m9a789c375e" x="356.811572" y="99.215034" style="fill: #ffb482; fill-opacity: 0.7; stroke: #ffb482; stroke-opacity: 0.7"/>
    </g>
   </g>
   <g id="PathCollection_87">
    <g clip-path="url(#p37096fb098)">
     <use xlink:href="#m9a789c375e" x="346.276619" y="499.732115" style="fill: #ffb482; fill-opacity: 0.7; stroke: #ffb482; stroke-opacity: 0.7"/>
    </g>
   </g>
   <g id="PathCollection_88">
    <g clip-path="url(#p37096fb098)">
     <use xlink:href="#m77ff9eec6b" x="393.390509" y="335.494716" style="fill: #a1c9f4; fill-opacity: 0.7; stroke: #a1c9f4; stroke-opacity: 0.7"/>
    </g>
   </g>
   <g id="PathCollection_89">
    <g clip-path="url(#p37096fb098)">
     <use xlink:href="#m9a789c375e" x="355.954223" y="184.36108" style="fill: #ffb482; fill-opacity: 0.7; stroke: #ffb482; stroke-opacity: 0.7"/>
    </g>
   </g>
   <g id="PathCollection_90">
    <g clip-path="url(#p37096fb098)">
     <use xlink:href="#m9a789c375e" x="427.207225" y="187.366707" style="fill: #ffb482; fill-opacity: 0.7; stroke: #ffb482; stroke-opacity: 0.7"/>
    </g>
   </g>
   <g id="PathCollection_91">
    <g clip-path="url(#p37096fb098)">
     <use xlink:href="#m77ff9eec6b" x="391.742815" y="388.085686" style="fill: #a1c9f4; fill-opacity: 0.7; stroke: #a1c9f4; stroke-opacity: 0.7"/>
    </g>
   </g>
   <g id="PathCollection_92">
    <g clip-path="url(#p37096fb098)">
     <use xlink:href="#m9a789c375e" x="101.871651" y="344.265821" style="fill: #ffb482; fill-opacity: 0.7; stroke: #ffb482; stroke-opacity: 0.7"/>
    </g>
   </g>
   <g id="PathCollection_93">
    <g clip-path="url(#p37096fb098)">
     <use xlink:href="#m77ff9eec6b" x="374.047983" y="251.441184" style="fill: #a1c9f4; fill-opacity: 0.7; stroke: #a1c9f4; stroke-opacity: 0.7"/>
    </g>
   </g>
   <g id="PathCollection_94">
    <g clip-path="url(#p37096fb098)">
     <use xlink:href="#m9a789c375e" x="331.939" y="276.927175" style="fill: #ffb482; fill-opacity: 0.7; stroke: #ffb482; stroke-opacity: 0.7"/>
    </g>
   </g>
   <g id="PathCollection_95">
    <g clip-path="url(#p37096fb098)">
     <use xlink:href="#m77ff9eec6b" x="247.343356" y="544.252814" style="fill: #a1c9f4; fill-opacity: 0.7; stroke: #a1c9f4; stroke-opacity: 0.7"/>
    </g>
   </g>
   <g id="PathCollection_96">
    <g clip-path="url(#p37096fb098)">
     <use xlink:href="#m77ff9eec6b" x="411.930062" y="254.563135" style="fill: #a1c9f4; fill-opacity: 0.7; stroke: #a1c9f4; stroke-opacity: 0.7"/>
    </g>
   </g>
   <g id="PathCollection_97">
    <g clip-path="url(#p37096fb098)">
     <use xlink:href="#m9a789c375e" x="453.540527" y="403.645487" style="fill: #ffb482; fill-opacity: 0.7; stroke: #ffb482; stroke-opacity: 0.7"/>
    </g>
   </g>
   <g id="PathCollection_98">
    <g clip-path="url(#p37096fb098)">
     <use xlink:href="#m9a789c375e" x="322.089854" y="250.614896" style="fill: #ffb482; fill-opacity: 0.7; stroke: #ffb482; stroke-opacity: 0.7"/>
    </g>
   </g>
   <g id="PathCollection_99">
    <g clip-path="url(#p37096fb098)">
     <use xlink:href="#m77ff9eec6b" x="272.668984" y="305.202914" style="fill: #a1c9f4; fill-opacity: 0.7; stroke: #a1c9f4; stroke-opacity: 0.7"/>
    </g>
   </g>
   <g id="PathCollection_100">
    <g clip-path="url(#p37096fb098)">
     <use xlink:href="#m77ff9eec6b" x="326.886177" y="357.14916" style="fill: #a1c9f4; fill-opacity: 0.7; stroke: #a1c9f4; stroke-opacity: 0.7"/>
    </g>
   </g>
   <g id="PathCollection_101">
    <defs>
     <path id="me2e6374f82" d="M -3.535534 3.535534 
L 3.535534 -3.535534 
M -3.535534 -3.535534 
L 3.535534 3.535534 
" style="stroke: #000000; stroke-width: 1.5"/>
    </defs>
    <g clip-path="url(#p37096fb098)">
     <use xlink:href="#me2e6374f82" x="380.274828" y="378.776394" style="stroke: #000000; stroke-width: 1.5"/>
    </g>
   </g>
   <g id="patch_2">
    <path d="M 365.857199 578.373682 
C 402.167573 586.188794 438.514789 572.654042 466.893794 540.750298 
C 495.272799 508.846554 513.366574 461.178618 517.190174 408.244798 
C 521.013774 355.310979 510.255019 301.433088 487.283401 258.477106 
C 464.311783 215.521125 431.002832 186.994218 394.692458 179.179105 
C 358.382084 171.363993 322.034868 184.898745 293.655863 216.802489 
C 265.276857 248.706233 247.183083 296.374169 243.359483 349.307989 
C 239.535883 402.241809 250.294638 456.119699 273.266256 499.075681 
C 296.237874 542.031663 329.546825 570.55857 365.857199 578.373682 
z
" clip-path="url(#p37096fb098)" style="fill: #a1c9f4; opacity: 0.2; stroke: #7d7d7d; stroke-linejoin: miter"/>
   </g>
   <g id="PathCollection_102">
    <g clip-path="url(#p37096fb098)">
     <use xlink:href="#me2e6374f82" x="335.220663" y="290.160656" style="stroke: #000000; stroke-width: 1.5"/>
    </g>
   </g>
   <g id="patch_3">
    <path d="M 360.030831 525.583994 
C 420.57024 506.573927 476.024105 463.534215 514.179357 405.943857 
C 552.334609 348.353498 570.07604 280.91449 563.496307 218.479491 
C 556.916573 156.044492 526.552881 103.711043 479.092481 73.004979 
C 431.63208 42.298916 370.949903 35.727251 310.410495 54.737318 
C 249.871087 73.747385 194.417221 116.787097 156.261969 174.377455 
C 118.106717 231.967814 100.365286 299.406822 106.945019 361.841821 
C 113.524753 424.27682 143.888445 476.610269 191.348846 507.316333 
C 238.809246 538.022396 299.491423 544.594061 360.030831 525.583994 
z
" clip-path="url(#p37096fb098)" style="fill: #ffb482; opacity: 0.2; stroke: #7d7d7d; stroke-linejoin: miter"/>
   </g>
   <g id="matplotlib.axis_1">
    <g id="text_1">
     <!-- PCA Dimension 1 -->
     <g transform="translate(258.815625 616.153937) scale(0.1 -0.1)">
      <defs>
       <path id="DejaVuSans-50" d="M 1259 4147 
L 1259 2394 
L 2053 2394 
Q 2494 2394 2734 2622 
Q 2975 2850 2975 3272 
Q 2975 3691 2734 3919 
Q 2494 4147 2053 4147 
L 1259 4147 
z
M 628 4666 
L 2053 4666 
Q 2838 4666 3239 4311 
Q 3641 3956 3641 3272 
Q 3641 2581 3239 2228 
Q 2838 1875 2053 1875 
L 1259 1875 
L 1259 0 
L 628 0 
L 628 4666 
z
" transform="scale(0.015625)"/>
       <path id="DejaVuSans-43" d="M 4122 4306 
L 4122 3641 
Q 3803 3938 3442 4084 
Q 3081 4231 2675 4231 
Q 1875 4231 1450 3742 
Q 1025 3253 1025 2328 
Q 1025 1406 1450 917 
Q 1875 428 2675 428 
Q 3081 428 3442 575 
Q 3803 722 4122 1019 
L 4122 359 
Q 3791 134 3420 21 
Q 3050 -91 2638 -91 
Q 1578 -91 968 557 
Q 359 1206 359 2328 
Q 359 3453 968 4101 
Q 1578 4750 2638 4750 
Q 3056 4750 3426 4639 
Q 3797 4528 4122 4306 
z
" transform="scale(0.015625)"/>
       <path id="DejaVuSans-41" d="M 2188 4044 
L 1331 1722 
L 3047 1722 
L 2188 4044 
z
M 1831 4666 
L 2547 4666 
L 4325 0 
L 3669 0 
L 3244 1197 
L 1141 1197 
L 716 0 
L 50 0 
L 1831 4666 
z
" transform="scale(0.015625)"/>
       <path id="DejaVuSans-20" transform="scale(0.015625)"/>
       <path id="DejaVuSans-44" d="M 1259 4147 
L 1259 519 
L 2022 519 
Q 2988 519 3436 956 
Q 3884 1394 3884 2338 
Q 3884 3275 3436 3711 
Q 2988 4147 2022 4147 
L 1259 4147 
z
M 628 4666 
L 1925 4666 
Q 3281 4666 3915 4102 
Q 4550 3538 4550 2338 
Q 4550 1131 3912 565 
Q 3275 0 1925 0 
L 628 0 
L 628 4666 
z
" transform="scale(0.015625)"/>
       <path id="DejaVuSans-69" d="M 603 3500 
L 1178 3500 
L 1178 0 
L 603 0 
L 603 3500 
z
M 603 4863 
L 1178 4863 
L 1178 4134 
L 603 4134 
L 603 4863 
z
" transform="scale(0.015625)"/>
       <path id="DejaVuSans-6d" d="M 3328 2828 
Q 3544 3216 3844 3400 
Q 4144 3584 4550 3584 
Q 5097 3584 5394 3201 
Q 5691 2819 5691 2113 
L 5691 0 
L 5113 0 
L 5113 2094 
Q 5113 2597 4934 2840 
Q 4756 3084 4391 3084 
Q 3944 3084 3684 2787 
Q 3425 2491 3425 1978 
L 3425 0 
L 2847 0 
L 2847 2094 
Q 2847 2600 2669 2842 
Q 2491 3084 2119 3084 
Q 1678 3084 1418 2786 
Q 1159 2488 1159 1978 
L 1159 0 
L 581 0 
L 581 3500 
L 1159 3500 
L 1159 2956 
Q 1356 3278 1631 3431 
Q 1906 3584 2284 3584 
Q 2666 3584 2933 3390 
Q 3200 3197 3328 2828 
z
" transform="scale(0.015625)"/>
       <path id="DejaVuSans-65" d="M 3597 1894 
L 3597 1613 
L 953 1613 
Q 991 1019 1311 708 
Q 1631 397 2203 397 
Q 2534 397 2845 478 
Q 3156 559 3463 722 
L 3463 178 
Q 3153 47 2828 -22 
Q 2503 -91 2169 -91 
Q 1331 -91 842 396 
Q 353 884 353 1716 
Q 353 2575 817 3079 
Q 1281 3584 2069 3584 
Q 2775 3584 3186 3129 
Q 3597 2675 3597 1894 
z
M 3022 2063 
Q 3016 2534 2758 2815 
Q 2500 3097 2075 3097 
Q 1594 3097 1305 2825 
Q 1016 2553 972 2059 
L 3022 2063 
z
" transform="scale(0.015625)"/>
       <path id="DejaVuSans-6e" d="M 3513 2113 
L 3513 0 
L 2938 0 
L 2938 2094 
Q 2938 2591 2744 2837 
Q 2550 3084 2163 3084 
Q 1697 3084 1428 2787 
Q 1159 2491 1159 1978 
L 1159 0 
L 581 0 
L 581 3500 
L 1159 3500 
L 1159 2956 
Q 1366 3272 1645 3428 
Q 1925 3584 2291 3584 
Q 2894 3584 3203 3211 
Q 3513 2838 3513 2113 
z
" transform="scale(0.015625)"/>
       <path id="DejaVuSans-73" d="M 2834 3397 
L 2834 2853 
Q 2591 2978 2328 3040 
Q 2066 3103 1784 3103 
Q 1356 3103 1142 2972 
Q 928 2841 928 2578 
Q 928 2378 1081 2264 
Q 1234 2150 1697 2047 
L 1894 2003 
Q 2506 1872 2764 1633 
Q 3022 1394 3022 966 
Q 3022 478 2636 193 
Q 2250 -91 1575 -91 
Q 1294 -91 989 -36 
Q 684 19 347 128 
L 347 722 
Q 666 556 975 473 
Q 1284 391 1588 391 
Q 1994 391 2212 530 
Q 2431 669 2431 922 
Q 2431 1156 2273 1281 
Q 2116 1406 1581 1522 
L 1381 1569 
Q 847 1681 609 1914 
Q 372 2147 372 2553 
Q 372 3047 722 3315 
Q 1072 3584 1716 3584 
Q 2034 3584 2315 3537 
Q 2597 3491 2834 3397 
z
" transform="scale(0.015625)"/>
       <path id="DejaVuSans-6f" d="M 1959 3097 
Q 1497 3097 1228 2736 
Q 959 2375 959 1747 
Q 959 1119 1226 758 
Q 1494 397 1959 397 
Q 2419 397 2687 759 
Q 2956 1122 2956 1747 
Q 2956 2369 2687 2733 
Q 2419 3097 1959 3097 
z
M 1959 3584 
Q 2709 3584 3137 3096 
Q 3566 2609 3566 1747 
Q 3566 888 3137 398 
Q 2709 -91 1959 -91 
Q 1206 -91 779 398 
Q 353 888 353 1747 
Q 353 2609 779 3096 
Q 1206 3584 1959 3584 
z
" transform="scale(0.015625)"/>
       <path id="DejaVuSans-31" d="M 794 531 
L 1825 531 
L 1825 4091 
L 703 3866 
L 703 4441 
L 1819 4666 
L 2450 4666 
L 2450 531 
L 3481 531 
L 3481 0 
L 794 0 
L 794 531 
z
" transform="scale(0.015625)"/>
      </defs>
      <use xlink:href="#DejaVuSans-50"/>
      <use xlink:href="#DejaVuSans-43" x="60.302734"/>
      <use xlink:href="#DejaVuSans-41" x="130.126953"/>
      <use xlink:href="#DejaVuSans-20" x="198.535156"/>
      <use xlink:href="#DejaVuSans-44" x="230.322266"/>
      <use xlink:href="#DejaVuSans-69" x="307.324219"/>
      <use xlink:href="#DejaVuSans-6d" x="335.107422"/>
      <use xlink:href="#DejaVuSans-65" x="432.519531"/>
      <use xlink:href="#DejaVuSans-6e" x="494.042969"/>
      <use xlink:href="#DejaVuSans-73" x="557.421875"/>
      <use xlink:href="#DejaVuSans-69" x="609.521484"/>
      <use xlink:href="#DejaVuSans-6f" x="637.304688"/>
      <use xlink:href="#DejaVuSans-6e" x="698.486328"/>
      <use xlink:href="#DejaVuSans-20" x="761.865234"/>
      <use xlink:href="#DejaVuSans-31" x="793.652344"/>
     </g>
    </g>
   </g>
   <g id="matplotlib.axis_2">
    <g id="text_2">
     <!-- PCA Dimension 2 -->
     <g transform="translate(7.598437 359.418) rotate(-90) scale(0.1 -0.1)">
      <defs>
       <path id="DejaVuSans-32" d="M 1228 531 
L 3431 531 
L 3431 0 
L 469 0 
L 469 531 
Q 828 903 1448 1529 
Q 2069 2156 2228 2338 
Q 2531 2678 2651 2914 
Q 2772 3150 2772 3378 
Q 2772 3750 2511 3984 
Q 2250 4219 1831 4219 
Q 1534 4219 1204 4116 
Q 875 4013 500 3803 
L 500 4441 
Q 881 4594 1212 4672 
Q 1544 4750 1819 4750 
Q 2544 4750 2975 4387 
Q 3406 4025 3406 3419 
Q 3406 3131 3298 2873 
Q 3191 2616 2906 2266 
Q 2828 2175 2409 1742 
Q 1991 1309 1228 531 
z
" transform="scale(0.015625)"/>
      </defs>
      <use xlink:href="#DejaVuSans-50"/>
      <use xlink:href="#DejaVuSans-43" x="60.302734"/>
      <use xlink:href="#DejaVuSans-41" x="130.126953"/>
      <use xlink:href="#DejaVuSans-20" x="198.535156"/>
      <use xlink:href="#DejaVuSans-44" x="230.322266"/>
      <use xlink:href="#DejaVuSans-69" x="307.324219"/>
      <use xlink:href="#DejaVuSans-6d" x="335.107422"/>
      <use xlink:href="#DejaVuSans-65" x="432.519531"/>
      <use xlink:href="#DejaVuSans-6e" x="494.042969"/>
      <use xlink:href="#DejaVuSans-73" x="557.421875"/>
      <use xlink:href="#DejaVuSans-69" x="609.521484"/>
      <use xlink:href="#DejaVuSans-6f" x="637.304688"/>
      <use xlink:href="#DejaVuSans-6e" x="698.486328"/>
      <use xlink:href="#DejaVuSans-20" x="761.865234"/>
      <use xlink:href="#DejaVuSans-32" x="793.652344"/>
     </g>
    </g>
   </g>
   <g id="text_3">
    <!-- read -->
    <g transform="translate(380.274828 378.776394) scale(0.08 -0.08)">
     <defs>
      <path id="DejaVuSans-72" d="M 2631 2963 
Q 2534 3019 2420 3045 
Q 2306 3072 2169 3072 
Q 1681 3072 1420 2755 
Q 1159 2438 1159 1844 
L 1159 0 
L 581 0 
L 581 3500 
L 1159 3500 
L 1159 2956 
Q 1341 3275 1631 3429 
Q 1922 3584 2338 3584 
Q 2397 3584 2469 3576 
Q 2541 3569 2628 3553 
L 2631 2963 
z
" transform="scale(0.015625)"/>
      <path id="DejaVuSans-61" d="M 2194 1759 
Q 1497 1759 1228 1600 
Q 959 1441 959 1056 
Q 959 750 1161 570 
Q 1363 391 1709 391 
Q 2188 391 2477 730 
Q 2766 1069 2766 1631 
L 2766 1759 
L 2194 1759 
z
M 3341 1997 
L 3341 0 
L 2766 0 
L 2766 531 
Q 2569 213 2275 61 
Q 1981 -91 1556 -91 
Q 1019 -91 701 211 
Q 384 513 384 1019 
Q 384 1609 779 1909 
Q 1175 2209 1959 2209 
L 2766 2209 
L 2766 2266 
Q 2766 2663 2505 2880 
Q 2244 3097 1772 3097 
Q 1472 3097 1187 3025 
Q 903 2953 641 2809 
L 641 3341 
Q 956 3463 1253 3523 
Q 1550 3584 1831 3584 
Q 2591 3584 2966 3190 
Q 3341 2797 3341 1997 
z
" transform="scale(0.015625)"/>
      <path id="DejaVuSans-64" d="M 2906 2969 
L 2906 4863 
L 3481 4863 
L 3481 0 
L 2906 0 
L 2906 525 
Q 2725 213 2448 61 
Q 2172 -91 1784 -91 
Q 1150 -91 751 415 
Q 353 922 353 1747 
Q 353 2572 751 3078 
Q 1150 3584 1784 3584 
Q 2172 3584 2448 3432 
Q 2725 3281 2906 2969 
z
M 947 1747 
Q 947 1113 1208 752 
Q 1469 391 1925 391 
Q 2381 391 2643 752 
Q 2906 1113 2906 1747 
Q 2906 2381 2643 2742 
Q 2381 3103 1925 3103 
Q 1469 3103 1208 2742 
Q 947 2381 947 1747 
z
" transform="scale(0.015625)"/>
     </defs>
     <use xlink:href="#DejaVuSans-72"/>
     <use xlink:href="#DejaVuSans-65" x="38.863281"/>
     <use xlink:href="#DejaVuSans-61" x="100.386719"/>
     <use xlink:href="#DejaVuSans-64" x="161.666016"/>
    </g>
   </g>
   <g id="text_4">
    <!-- spon -->
    <g transform="translate(335.220663 290.160656) scale(0.08 -0.08)">
     <defs>
      <path id="DejaVuSans-70" d="M 1159 525 
L 1159 -1331 
L 581 -1331 
L 581 3500 
L 1159 3500 
L 1159 2969 
Q 1341 3281 1617 3432 
Q 1894 3584 2278 3584 
Q 2916 3584 3314 3078 
Q 3713 2572 3713 1747 
Q 3713 922 3314 415 
Q 2916 -91 2278 -91 
Q 1894 -91 1617 61 
Q 1341 213 1159 525 
z
M 3116 1747 
Q 3116 2381 2855 2742 
Q 2594 3103 2138 3103 
Q 1681 3103 1420 2742 
Q 1159 2381 1159 1747 
Q 1159 1113 1420 752 
Q 1681 391 2138 391 
Q 2594 391 2855 752 
Q 3116 1113 3116 1747 
z
" transform="scale(0.015625)"/>
     </defs>
     <use xlink:href="#DejaVuSans-73"/>
     <use xlink:href="#DejaVuSans-70" x="52.099609"/>
     <use xlink:href="#DejaVuSans-6f" x="115.576172"/>
     <use xlink:href="#DejaVuSans-6e" x="176.757812"/>
    </g>
   </g>
   <g id="text_5">
    <!-- LucyMPM  -->
    <g transform="translate(271.90875 9.118125) scale(0.12 -0.12)">
     <defs>
      <path id="DejaVuSans-4c" d="M 628 4666 
L 1259 4666 
L 1259 531 
L 3531 531 
L 3531 0 
L 628 0 
L 628 4666 
z
" transform="scale(0.015625)"/>
      <path id="DejaVuSans-75" d="M 544 1381 
L 544 3500 
L 1119 3500 
L 1119 1403 
Q 1119 906 1312 657 
Q 1506 409 1894 409 
Q 2359 409 2629 706 
Q 2900 1003 2900 1516 
L 2900 3500 
L 3475 3500 
L 3475 0 
L 2900 0 
L 2900 538 
Q 2691 219 2414 64 
Q 2138 -91 1772 -91 
Q 1169 -91 856 284 
Q 544 659 544 1381 
z
M 1991 3584 
L 1991 3584 
z
" transform="scale(0.015625)"/>
      <path id="DejaVuSans-63" d="M 3122 3366 
L 3122 2828 
Q 2878 2963 2633 3030 
Q 2388 3097 2138 3097 
Q 1578 3097 1268 2742 
Q 959 2388 959 1747 
Q 959 1106 1268 751 
Q 1578 397 2138 397 
Q 2388 397 2633 464 
Q 2878 531 3122 666 
L 3122 134 
Q 2881 22 2623 -34 
Q 2366 -91 2075 -91 
Q 1284 -91 818 406 
Q 353 903 353 1747 
Q 353 2603 823 3093 
Q 1294 3584 2113 3584 
Q 2378 3584 2631 3529 
Q 2884 3475 3122 3366 
z
" transform="scale(0.015625)"/>
      <path id="DejaVuSans-79" d="M 2059 -325 
Q 1816 -950 1584 -1140 
Q 1353 -1331 966 -1331 
L 506 -1331 
L 506 -850 
L 844 -850 
Q 1081 -850 1212 -737 
Q 1344 -625 1503 -206 
L 1606 56 
L 191 3500 
L 800 3500 
L 1894 763 
L 2988 3500 
L 3597 3500 
L 2059 -325 
z
" transform="scale(0.015625)"/>
      <path id="DejaVuSans-4d" d="M 628 4666 
L 1569 4666 
L 2759 1491 
L 3956 4666 
L 4897 4666 
L 4897 0 
L 4281 0 
L 4281 4097 
L 3078 897 
L 2444 897 
L 1241 4097 
L 1241 0 
L 628 0 
L 628 4666 
z
" transform="scale(0.015625)"/>
     </defs>
     <use xlink:href="#DejaVuSans-4c"/>
     <use xlink:href="#DejaVuSans-75" x="53.962891"/>
     <use xlink:href="#DejaVuSans-63" x="117.341797"/>
     <use xlink:href="#DejaVuSans-79" x="172.322266"/>
     <use xlink:href="#DejaVuSans-4d" x="231.501953"/>
     <use xlink:href="#DejaVuSans-50" x="317.78125"/>
     <use xlink:href="#DejaVuSans-4d" x="378.083984"/>
     <use xlink:href="#DejaVuSans-20" x="464.363281"/>
    </g>
    <!--  PCA on mpm embeddings; [0.22571353 0.13419861]  -->
    <g transform="translate(137.155313 22.5555) scale(0.12 -0.12)">
     <defs>
      <path id="DejaVuSans-62" d="M 3116 1747 
Q 3116 2381 2855 2742 
Q 2594 3103 2138 3103 
Q 1681 3103 1420 2742 
Q 1159 2381 1159 1747 
Q 1159 1113 1420 752 
Q 1681 391 2138 391 
Q 2594 391 2855 752 
Q 3116 1113 3116 1747 
z
M 1159 2969 
Q 1341 3281 1617 3432 
Q 1894 3584 2278 3584 
Q 2916 3584 3314 3078 
Q 3713 2572 3713 1747 
Q 3713 922 3314 415 
Q 2916 -91 2278 -91 
Q 1894 -91 1617 61 
Q 1341 213 1159 525 
L 1159 0 
L 581 0 
L 581 4863 
L 1159 4863 
L 1159 2969 
z
" transform="scale(0.015625)"/>
      <path id="DejaVuSans-67" d="M 2906 1791 
Q 2906 2416 2648 2759 
Q 2391 3103 1925 3103 
Q 1463 3103 1205 2759 
Q 947 2416 947 1791 
Q 947 1169 1205 825 
Q 1463 481 1925 481 
Q 2391 481 2648 825 
Q 2906 1169 2906 1791 
z
M 3481 434 
Q 3481 -459 3084 -895 
Q 2688 -1331 1869 -1331 
Q 1566 -1331 1297 -1286 
Q 1028 -1241 775 -1147 
L 775 -588 
Q 1028 -725 1275 -790 
Q 1522 -856 1778 -856 
Q 2344 -856 2625 -561 
Q 2906 -266 2906 331 
L 2906 616 
Q 2728 306 2450 153 
Q 2172 0 1784 0 
Q 1141 0 747 490 
Q 353 981 353 1791 
Q 353 2603 747 3093 
Q 1141 3584 1784 3584 
Q 2172 3584 2450 3431 
Q 2728 3278 2906 2969 
L 2906 3500 
L 3481 3500 
L 3481 434 
z
" transform="scale(0.015625)"/>
      <path id="DejaVuSans-3b" d="M 750 3309 
L 1409 3309 
L 1409 2516 
L 750 2516 
L 750 3309 
z
M 750 794 
L 1409 794 
L 1409 256 
L 897 -744 
L 494 -744 
L 750 256 
L 750 794 
z
" transform="scale(0.015625)"/>
      <path id="DejaVuSans-5b" d="M 550 4863 
L 1875 4863 
L 1875 4416 
L 1125 4416 
L 1125 -397 
L 1875 -397 
L 1875 -844 
L 550 -844 
L 550 4863 
z
" transform="scale(0.015625)"/>
      <path id="DejaVuSans-30" d="M 2034 4250 
Q 1547 4250 1301 3770 
Q 1056 3291 1056 2328 
Q 1056 1369 1301 889 
Q 1547 409 2034 409 
Q 2525 409 2770 889 
Q 3016 1369 3016 2328 
Q 3016 3291 2770 3770 
Q 2525 4250 2034 4250 
z
M 2034 4750 
Q 2819 4750 3233 4129 
Q 3647 3509 3647 2328 
Q 3647 1150 3233 529 
Q 2819 -91 2034 -91 
Q 1250 -91 836 529 
Q 422 1150 422 2328 
Q 422 3509 836 4129 
Q 1250 4750 2034 4750 
z
" transform="scale(0.015625)"/>
      <path id="DejaVuSans-2e" d="M 684 794 
L 1344 794 
L 1344 0 
L 684 0 
L 684 794 
z
" transform="scale(0.015625)"/>
      <path id="DejaVuSans-35" d="M 691 4666 
L 3169 4666 
L 3169 4134 
L 1269 4134 
L 1269 2991 
Q 1406 3038 1543 3061 
Q 1681 3084 1819 3084 
Q 2600 3084 3056 2656 
Q 3513 2228 3513 1497 
Q 3513 744 3044 326 
Q 2575 -91 1722 -91 
Q 1428 -91 1123 -41 
Q 819 9 494 109 
L 494 744 
Q 775 591 1075 516 
Q 1375 441 1709 441 
Q 2250 441 2565 725 
Q 2881 1009 2881 1497 
Q 2881 1984 2565 2268 
Q 2250 2553 1709 2553 
Q 1456 2553 1204 2497 
Q 953 2441 691 2322 
L 691 4666 
z
" transform="scale(0.015625)"/>
      <path id="DejaVuSans-37" d="M 525 4666 
L 3525 4666 
L 3525 4397 
L 1831 0 
L 1172 0 
L 2766 4134 
L 525 4134 
L 525 4666 
z
" transform="scale(0.015625)"/>
      <path id="DejaVuSans-33" d="M 2597 2516 
Q 3050 2419 3304 2112 
Q 3559 1806 3559 1356 
Q 3559 666 3084 287 
Q 2609 -91 1734 -91 
Q 1441 -91 1130 -33 
Q 819 25 488 141 
L 488 750 
Q 750 597 1062 519 
Q 1375 441 1716 441 
Q 2309 441 2620 675 
Q 2931 909 2931 1356 
Q 2931 1769 2642 2001 
Q 2353 2234 1838 2234 
L 1294 2234 
L 1294 2753 
L 1863 2753 
Q 2328 2753 2575 2939 
Q 2822 3125 2822 3475 
Q 2822 3834 2567 4026 
Q 2313 4219 1838 4219 
Q 1578 4219 1281 4162 
Q 984 4106 628 3988 
L 628 4550 
Q 988 4650 1302 4700 
Q 1616 4750 1894 4750 
Q 2613 4750 3031 4423 
Q 3450 4097 3450 3541 
Q 3450 3153 3228 2886 
Q 3006 2619 2597 2516 
z
" transform="scale(0.015625)"/>
      <path id="DejaVuSans-34" d="M 2419 4116 
L 825 1625 
L 2419 1625 
L 2419 4116 
z
M 2253 4666 
L 3047 4666 
L 3047 1625 
L 3713 1625 
L 3713 1100 
L 3047 1100 
L 3047 0 
L 2419 0 
L 2419 1100 
L 313 1100 
L 313 1709 
L 2253 4666 
z
" transform="scale(0.015625)"/>
      <path id="DejaVuSans-39" d="M 703 97 
L 703 672 
Q 941 559 1184 500 
Q 1428 441 1663 441 
Q 2288 441 2617 861 
Q 2947 1281 2994 2138 
Q 2813 1869 2534 1725 
Q 2256 1581 1919 1581 
Q 1219 1581 811 2004 
Q 403 2428 403 3163 
Q 403 3881 828 4315 
Q 1253 4750 1959 4750 
Q 2769 4750 3195 4129 
Q 3622 3509 3622 2328 
Q 3622 1225 3098 567 
Q 2575 -91 1691 -91 
Q 1453 -91 1209 -44 
Q 966 3 703 97 
z
M 1959 2075 
Q 2384 2075 2632 2365 
Q 2881 2656 2881 3163 
Q 2881 3666 2632 3958 
Q 2384 4250 1959 4250 
Q 1534 4250 1286 3958 
Q 1038 3666 1038 3163 
Q 1038 2656 1286 2365 
Q 1534 2075 1959 2075 
z
" transform="scale(0.015625)"/>
      <path id="DejaVuSans-38" d="M 2034 2216 
Q 1584 2216 1326 1975 
Q 1069 1734 1069 1313 
Q 1069 891 1326 650 
Q 1584 409 2034 409 
Q 2484 409 2743 651 
Q 3003 894 3003 1313 
Q 3003 1734 2745 1975 
Q 2488 2216 2034 2216 
z
M 1403 2484 
Q 997 2584 770 2862 
Q 544 3141 544 3541 
Q 544 4100 942 4425 
Q 1341 4750 2034 4750 
Q 2731 4750 3128 4425 
Q 3525 4100 3525 3541 
Q 3525 3141 3298 2862 
Q 3072 2584 2669 2484 
Q 3125 2378 3379 2068 
Q 3634 1759 3634 1313 
Q 3634 634 3220 271 
Q 2806 -91 2034 -91 
Q 1263 -91 848 271 
Q 434 634 434 1313 
Q 434 1759 690 2068 
Q 947 2378 1403 2484 
z
M 1172 3481 
Q 1172 3119 1398 2916 
Q 1625 2713 2034 2713 
Q 2441 2713 2670 2916 
Q 2900 3119 2900 3481 
Q 2900 3844 2670 4047 
Q 2441 4250 2034 4250 
Q 1625 4250 1398 4047 
Q 1172 3844 1172 3481 
z
" transform="scale(0.015625)"/>
      <path id="DejaVuSans-36" d="M 2113 2584 
Q 1688 2584 1439 2293 
Q 1191 2003 1191 1497 
Q 1191 994 1439 701 
Q 1688 409 2113 409 
Q 2538 409 2786 701 
Q 3034 994 3034 1497 
Q 3034 2003 2786 2293 
Q 2538 2584 2113 2584 
z
M 3366 4563 
L 3366 3988 
Q 3128 4100 2886 4159 
Q 2644 4219 2406 4219 
Q 1781 4219 1451 3797 
Q 1122 3375 1075 2522 
Q 1259 2794 1537 2939 
Q 1816 3084 2150 3084 
Q 2853 3084 3261 2657 
Q 3669 2231 3669 1497 
Q 3669 778 3244 343 
Q 2819 -91 2113 -91 
Q 1303 -91 875 529 
Q 447 1150 447 2328 
Q 447 3434 972 4092 
Q 1497 4750 2381 4750 
Q 2619 4750 2861 4703 
Q 3103 4656 3366 4563 
z
" transform="scale(0.015625)"/>
      <path id="DejaVuSans-5d" d="M 1947 4863 
L 1947 -844 
L 622 -844 
L 622 -397 
L 1369 -397 
L 1369 4416 
L 622 4416 
L 622 4863 
L 1947 4863 
z
" transform="scale(0.015625)"/>
     </defs>
     <use xlink:href="#DejaVuSans-20"/>
     <use xlink:href="#DejaVuSans-50" x="31.787109"/>
     <use xlink:href="#DejaVuSans-43" x="92.089844"/>
     <use xlink:href="#DejaVuSans-41" x="161.914062"/>
     <use xlink:href="#DejaVuSans-20" x="230.322266"/>
     <use xlink:href="#DejaVuSans-6f" x="262.109375"/>
     <use xlink:href="#DejaVuSans-6e" x="323.291016"/>
     <use xlink:href="#DejaVuSans-20" x="386.669922"/>
     <use xlink:href="#DejaVuSans-6d" x="418.457031"/>
     <use xlink:href="#DejaVuSans-70" x="515.869141"/>
     <use xlink:href="#DejaVuSans-6d" x="579.345703"/>
     <use xlink:href="#DejaVuSans-20" x="676.757812"/>
     <use xlink:href="#DejaVuSans-65" x="708.544922"/>
     <use xlink:href="#DejaVuSans-6d" x="770.068359"/>
     <use xlink:href="#DejaVuSans-62" x="867.480469"/>
     <use xlink:href="#DejaVuSans-65" x="930.957031"/>
     <use xlink:href="#DejaVuSans-64" x="992.480469"/>
     <use xlink:href="#DejaVuSans-64" x="1055.957031"/>
     <use xlink:href="#DejaVuSans-69" x="1119.433594"/>
     <use xlink:href="#DejaVuSans-6e" x="1147.216797"/>
     <use xlink:href="#DejaVuSans-67" x="1210.595703"/>
     <use xlink:href="#DejaVuSans-73" x="1274.072266"/>
     <use xlink:href="#DejaVuSans-3b" x="1326.171875"/>
     <use xlink:href="#DejaVuSans-20" x="1359.863281"/>
     <use xlink:href="#DejaVuSans-5b" x="1391.650391"/>
     <use xlink:href="#DejaVuSans-30" x="1430.664062"/>
     <use xlink:href="#DejaVuSans-2e" x="1494.287109"/>
     <use xlink:href="#DejaVuSans-32" x="1526.074219"/>
     <use xlink:href="#DejaVuSans-32" x="1589.697266"/>
     <use xlink:href="#DejaVuSans-35" x="1653.320312"/>
     <use xlink:href="#DejaVuSans-37" x="1716.943359"/>
     <use xlink:href="#DejaVuSans-31" x="1780.566406"/>
     <use xlink:href="#DejaVuSans-33" x="1844.189453"/>
     <use xlink:href="#DejaVuSans-35" x="1907.8125"/>
     <use xlink:href="#DejaVuSans-33" x="1971.435547"/>
     <use xlink:href="#DejaVuSans-20" x="2035.058594"/>
     <use xlink:href="#DejaVuSans-30" x="2066.845703"/>
     <use xlink:href="#DejaVuSans-2e" x="2130.46875"/>
     <use xlink:href="#DejaVuSans-31" x="2162.255859"/>
     <use xlink:href="#DejaVuSans-33" x="2225.878906"/>
     <use xlink:href="#DejaVuSans-34" x="2289.501953"/>
     <use xlink:href="#DejaVuSans-31" x="2353.125"/>
     <use xlink:href="#DejaVuSans-39" x="2416.748047"/>
     <use xlink:href="#DejaVuSans-38" x="2480.371094"/>
     <use xlink:href="#DejaVuSans-36" x="2543.994141"/>
     <use xlink:href="#DejaVuSans-31" x="2607.617188"/>
     <use xlink:href="#DejaVuSans-5d" x="2671.240234"/>
     <use xlink:href="#DejaVuSans-20" x="2710.253906"/>
    </g>
   </g>
   <g id="legend_1">
    <g id="patch_4">
     <path d="M 19.278125 600.5555 
L 120.501875 600.5555 
Q 122.101875 600.5555 122.101875 598.9555 
L 122.101875 588.013 
Q 122.101875 586.413 120.501875 586.413 
L 19.278125 586.413 
Q 17.678125 586.413 17.678125 588.013 
L 17.678125 598.9555 
Q 17.678125 600.5555 19.278125 600.5555 
z
" style="fill: #ffffff; opacity: 0.8; stroke: #cccccc; stroke-linejoin: miter"/>
    </g>
    <g id="patch_5">
     <path d="M 20.878125 595.69175 
L 36.878125 595.69175 
L 36.878125 590.09175 
L 20.878125 590.09175 
z
" style="fill: #a1c9f4; stroke: #a1c9f4; stroke-linejoin: miter"/>
    </g>
    <g id="text_6">
     <!-- read -->
     <g transform="translate(43.278125 595.69175) scale(0.08 -0.08)">
      <use xlink:href="#DejaVuSans-72"/>
      <use xlink:href="#DejaVuSans-65" x="38.863281"/>
      <use xlink:href="#DejaVuSans-61" x="100.386719"/>
      <use xlink:href="#DejaVuSans-64" x="161.666016"/>
     </g>
    </g>
    <g id="patch_6">
     <path d="M 77.290625 595.69175 
L 93.290625 595.69175 
L 93.290625 590.09175 
L 77.290625 590.09175 
z
" style="fill: #ffb482; stroke: #ffb482; stroke-linejoin: miter"/>
    </g>
    <g id="text_7">
     <!-- spon -->
     <g transform="translate(99.690625 595.69175) scale(0.08 -0.08)">
      <use xlink:href="#DejaVuSans-73"/>
      <use xlink:href="#DejaVuSans-70" x="52.099609"/>
      <use xlink:href="#DejaVuSans-6f" x="115.576172"/>
      <use xlink:href="#DejaVuSans-6e" x="176.757812"/>
     </g>
    </g>
   </g>
  </g>
 </g>
 <defs>
  <clipPath id="p37096fb098">
   <rect x="13.678125" y="28.5555" width="576" height="576"/>
  </clipPath>
 </defs>
</svg>
