<?xml version="1.0" encoding="utf-8" standalone="no"?>
<!DOCTYPE svg PUBLIC "-//W3C//DTD SVG 1.1//EN"
  "http://www.w3.org/Graphics/SVG/1.1/DTD/svg11.dtd">
<svg xmlns:xlink="http://www.w3.org/1999/xlink" width="589.678125pt" height="618.233625pt" viewBox="0 0 589.678125 618.233625" xmlns="http://www.w3.org/2000/svg" version="1.1">
 <metadata>
  <rdf:RDF xmlns:dc="http://purl.org/dc/elements/1.1/" xmlns:cc="http://creativecommons.org/ns#" xmlns:rdf="http://www.w3.org/1999/02/22-rdf-syntax-ns#">
   <cc:Work>
    <dc:type rdf:resource="http://purl.org/dc/dcmitype/StillImage"/>
    <dc:date>2024-10-24T18:43:33.407834</dc:date>
    <dc:format>image/svg+xml</dc:format>
    <dc:creator>
     <cc:Agent>
      <dc:title>Matplotlib v3.9.2, https://matplotlib.org/</dc:title>
     </cc:Agent>
    </dc:creator>
   </cc:Work>
  </rdf:RDF>
 </metadata>
 <defs>
  <style type="text/css">*{stroke-linejoin: round; stroke-linecap: butt}</style>
 </defs>
 <g id="figure_1">
  <g id="patch_1">
   <path d="M 0 618.233625 
L 589.678125 618.233625 
L 589.678125 0 
L 0 0 
z
" style="fill: #ffffff"/>
  </g>
  <g id="axes_1">
   <g id="PathCollection_1">
    <defs>
     <path id="mbcd8572463" d="M 0 5 
C 1.326016 5 2.597899 4.473168 3.535534 3.535534 
C 4.473168 2.597899 5 1.326016 5 0 
C 5 -1.326016 4.473168 -2.597899 3.535534 -3.535534 
C 2.597899 -4.473168 1.326016 -5 0 -5 
C -1.326016 -5 -2.597899 -4.473168 -3.535534 -3.535534 
C -4.473168 -2.597899 -5 -1.326016 -5 0 
C -5 1.326016 -4.473168 2.597899 -3.535534 3.535534 
C -2.597899 4.473168 -1.326016 5 0 5 
z
" style="stroke: #ffb482; stroke-opacity: 0.7"/>
    </defs>
    <g clip-path="url(#pb770b5b35e)">
     <use xlink:href="#mbcd8572463" x="184.152009" y="428.729155" style="fill: #ffb482; fill-opacity: 0.7; stroke: #ffb482; stroke-opacity: 0.7"/>
    </g>
   </g>
   <g id="PathCollection_2">
    <g clip-path="url(#pb770b5b35e)">
     <use xlink:href="#mbcd8572463" x="269.596177" y="448.224572" style="fill: #ffb482; fill-opacity: 0.7; stroke: #ffb482; stroke-opacity: 0.7"/>
    </g>
   </g>
   <g id="PathCollection_3">
    <g clip-path="url(#pb770b5b35e)">
     <use xlink:href="#mbcd8572463" x="331.243349" y="300.099893" style="fill: #ffb482; fill-opacity: 0.7; stroke: #ffb482; stroke-opacity: 0.7"/>
    </g>
   </g>
   <g id="PathCollection_4">
    <defs>
     <path id="mb25ff027dd" d="M 0 5 
C 1.326016 5 2.597899 4.473168 3.535534 3.535534 
C 4.473168 2.597899 5 1.326016 5 0 
C 5 -1.326016 4.473168 -2.597899 3.535534 -3.535534 
C 2.597899 -4.473168 1.326016 -5 0 -5 
C -1.326016 -5 -2.597899 -4.473168 -3.535534 -3.535534 
C -4.473168 -2.597899 -5 -1.326016 -5 0 
C -5 1.326016 -4.473168 2.597899 -3.535534 3.535534 
C -2.597899 4.473168 -1.326016 5 0 5 
z
" style="stroke: #a1c9f4; stroke-opacity: 0.7"/>
    </defs>
    <g clip-path="url(#pb770b5b35e)">
     <use xlink:href="#mb25ff027dd" x="402.774543" y="254.885292" style="fill: #a1c9f4; fill-opacity: 0.7; stroke: #a1c9f4; stroke-opacity: 0.7"/>
    </g>
   </g>
   <g id="PathCollection_5">
    <g clip-path="url(#pb770b5b35e)">
     <use xlink:href="#mb25ff027dd" x="301.888799" y="364.06337" style="fill: #a1c9f4; fill-opacity: 0.7; stroke: #a1c9f4; stroke-opacity: 0.7"/>
    </g>
   </g>
   <g id="PathCollection_6">
    <g clip-path="url(#pb770b5b35e)">
     <use xlink:href="#mb25ff027dd" x="433.549118" y="196.188155" style="fill: #a1c9f4; fill-opacity: 0.7; stroke: #a1c9f4; stroke-opacity: 0.7"/>
    </g>
   </g>
   <g id="PathCollection_7">
    <g clip-path="url(#pb770b5b35e)">
     <use xlink:href="#mbcd8572463" x="231.465302" y="465.725208" style="fill: #ffb482; fill-opacity: 0.7; stroke: #ffb482; stroke-opacity: 0.7"/>
    </g>
   </g>
   <g id="PathCollection_8">
    <g clip-path="url(#pb770b5b35e)">
     <use xlink:href="#mbcd8572463" x="254.502429" y="344.443529" style="fill: #ffb482; fill-opacity: 0.7; stroke: #ffb482; stroke-opacity: 0.7"/>
    </g>
   </g>
   <g id="PathCollection_9">
    <g clip-path="url(#pb770b5b35e)">
     <use xlink:href="#mbcd8572463" x="244.835422" y="307.159626" style="fill: #ffb482; fill-opacity: 0.7; stroke: #ffb482; stroke-opacity: 0.7"/>
    </g>
   </g>
   <g id="PathCollection_10">
    <g clip-path="url(#pb770b5b35e)">
     <use xlink:href="#mb25ff027dd" x="402.316096" y="150.809137" style="fill: #a1c9f4; fill-opacity: 0.7; stroke: #a1c9f4; stroke-opacity: 0.7"/>
    </g>
   </g>
   <g id="PathCollection_11">
    <g clip-path="url(#pb770b5b35e)">
     <use xlink:href="#mb25ff027dd" x="375.386566" y="361.974876" style="fill: #a1c9f4; fill-opacity: 0.7; stroke: #a1c9f4; stroke-opacity: 0.7"/>
    </g>
   </g>
   <g id="PathCollection_12">
    <g clip-path="url(#pb770b5b35e)">
     <use xlink:href="#mb25ff027dd" x="270.901115" y="167.992036" style="fill: #a1c9f4; fill-opacity: 0.7; stroke: #a1c9f4; stroke-opacity: 0.7"/>
    </g>
   </g>
   <g id="PathCollection_13">
    <g clip-path="url(#pb770b5b35e)">
     <use xlink:href="#mbcd8572463" x="428.105595" y="335.587177" style="fill: #ffb482; fill-opacity: 0.7; stroke: #ffb482; stroke-opacity: 0.7"/>
    </g>
   </g>
   <g id="PathCollection_14">
    <g clip-path="url(#pb770b5b35e)">
     <use xlink:href="#mbcd8572463" x="254.410951" y="171.230636" style="fill: #ffb482; fill-opacity: 0.7; stroke: #ffb482; stroke-opacity: 0.7"/>
    </g>
   </g>
   <g id="PathCollection_15">
    <g clip-path="url(#pb770b5b35e)">
     <use xlink:href="#mbcd8572463" x="184.196025" y="398.236774" style="fill: #ffb482; fill-opacity: 0.7; stroke: #ffb482; stroke-opacity: 0.7"/>
    </g>
   </g>
   <g id="PathCollection_16">
    <g clip-path="url(#pb770b5b35e)">
     <use xlink:href="#mb25ff027dd" x="210.921311" y="134.947738" style="fill: #a1c9f4; fill-opacity: 0.7; stroke: #a1c9f4; stroke-opacity: 0.7"/>
    </g>
   </g>
   <g id="PathCollection_17">
    <g clip-path="url(#pb770b5b35e)">
     <use xlink:href="#mb25ff027dd" x="463.306172" y="142.316357" style="fill: #a1c9f4; fill-opacity: 0.7; stroke: #a1c9f4; stroke-opacity: 0.7"/>
    </g>
   </g>
   <g id="PathCollection_18">
    <g clip-path="url(#pb770b5b35e)">
     <use xlink:href="#mb25ff027dd" x="337.394211" y="401.43961" style="fill: #a1c9f4; fill-opacity: 0.7; stroke: #a1c9f4; stroke-opacity: 0.7"/>
    </g>
   </g>
   <g id="PathCollection_19">
    <g clip-path="url(#pb770b5b35e)">
     <use xlink:href="#mbcd8572463" x="144.954005" y="295.774783" style="fill: #ffb482; fill-opacity: 0.7; stroke: #ffb482; stroke-opacity: 0.7"/>
    </g>
   </g>
   <g id="PathCollection_20">
    <g clip-path="url(#pb770b5b35e)">
     <use xlink:href="#mbcd8572463" x="228.366861" y="386.329198" style="fill: #ffb482; fill-opacity: 0.7; stroke: #ffb482; stroke-opacity: 0.7"/>
    </g>
   </g>
   <g id="PathCollection_21">
    <g clip-path="url(#pb770b5b35e)">
     <use xlink:href="#mbcd8572463" x="268.462585" y="138.653071" style="fill: #ffb482; fill-opacity: 0.7; stroke: #ffb482; stroke-opacity: 0.7"/>
    </g>
   </g>
   <g id="PathCollection_22">
    <g clip-path="url(#pb770b5b35e)">
     <use xlink:href="#mbcd8572463" x="141.480362" y="202.380625" style="fill: #ffb482; fill-opacity: 0.7; stroke: #ffb482; stroke-opacity: 0.7"/>
    </g>
   </g>
   <g id="PathCollection_23">
    <g clip-path="url(#pb770b5b35e)">
     <use xlink:href="#mb25ff027dd" x="380.677109" y="229.96963" style="fill: #a1c9f4; fill-opacity: 0.7; stroke: #a1c9f4; stroke-opacity: 0.7"/>
    </g>
   </g>
   <g id="PathCollection_24">
    <g clip-path="url(#pb770b5b35e)">
     <use xlink:href="#mbcd8572463" x="363.466096" y="419.180278" style="fill: #ffb482; fill-opacity: 0.7; stroke: #ffb482; stroke-opacity: 0.7"/>
    </g>
   </g>
   <g id="PathCollection_25">
    <g clip-path="url(#pb770b5b35e)">
     <use xlink:href="#mbcd8572463" x="250.894172" y="517.063103" style="fill: #ffb482; fill-opacity: 0.7; stroke: #ffb482; stroke-opacity: 0.7"/>
    </g>
   </g>
   <g id="PathCollection_26">
    <g clip-path="url(#pb770b5b35e)">
     <use xlink:href="#mb25ff027dd" x="345.425832" y="243.35825" style="fill: #a1c9f4; fill-opacity: 0.7; stroke: #a1c9f4; stroke-opacity: 0.7"/>
    </g>
   </g>
   <g id="PathCollection_27">
    <g clip-path="url(#pb770b5b35e)">
     <use xlink:href="#mbcd8572463" x="232.283611" y="322.411568" style="fill: #ffb482; fill-opacity: 0.7; stroke: #ffb482; stroke-opacity: 0.7"/>
    </g>
   </g>
   <g id="PathCollection_28">
    <g clip-path="url(#pb770b5b35e)">
     <use xlink:href="#mb25ff027dd" x="371.178282" y="419.542906" style="fill: #a1c9f4; fill-opacity: 0.7; stroke: #a1c9f4; stroke-opacity: 0.7"/>
    </g>
   </g>
   <g id="PathCollection_29">
    <g clip-path="url(#pb770b5b35e)">
     <use xlink:href="#mb25ff027dd" x="440.142242" y="318.536658" style="fill: #a1c9f4; fill-opacity: 0.7; stroke: #a1c9f4; stroke-opacity: 0.7"/>
    </g>
   </g>
   <g id="PathCollection_30">
    <g clip-path="url(#pb770b5b35e)">
     <use xlink:href="#mb25ff027dd" x="428.200873" y="155.67614" style="fill: #a1c9f4; fill-opacity: 0.7; stroke: #a1c9f4; stroke-opacity: 0.7"/>
    </g>
   </g>
   <g id="PathCollection_31">
    <g clip-path="url(#pb770b5b35e)">
     <use xlink:href="#mbcd8572463" x="151.720762" y="340.051165" style="fill: #ffb482; fill-opacity: 0.7; stroke: #ffb482; stroke-opacity: 0.7"/>
    </g>
   </g>
   <g id="PathCollection_32">
    <g clip-path="url(#pb770b5b35e)">
     <use xlink:href="#mb25ff027dd" x="432.708151" y="267.43257" style="fill: #a1c9f4; fill-opacity: 0.7; stroke: #a1c9f4; stroke-opacity: 0.7"/>
    </g>
   </g>
   <g id="PathCollection_33">
    <g clip-path="url(#pb770b5b35e)">
     <use xlink:href="#mbcd8572463" x="284.706285" y="180.520655" style="fill: #ffb482; fill-opacity: 0.7; stroke: #ffb482; stroke-opacity: 0.7"/>
    </g>
   </g>
   <g id="PathCollection_34">
    <g clip-path="url(#pb770b5b35e)">
     <use xlink:href="#mbcd8572463" x="295.918818" y="142.258588" style="fill: #ffb482; fill-opacity: 0.7; stroke: #ffb482; stroke-opacity: 0.7"/>
    </g>
   </g>
   <g id="PathCollection_35">
    <g clip-path="url(#pb770b5b35e)">
     <use xlink:href="#mbcd8572463" x="406.545491" y="356.188862" style="fill: #ffb482; fill-opacity: 0.7; stroke: #ffb482; stroke-opacity: 0.7"/>
    </g>
   </g>
   <g id="PathCollection_36">
    <g clip-path="url(#pb770b5b35e)">
     <use xlink:href="#mb25ff027dd" x="477.493897" y="230.875668" style="fill: #a1c9f4; fill-opacity: 0.7; stroke: #a1c9f4; stroke-opacity: 0.7"/>
    </g>
   </g>
   <g id="PathCollection_37">
    <g clip-path="url(#pb770b5b35e)">
     <use xlink:href="#mbcd8572463" x="218.859589" y="329.616988" style="fill: #ffb482; fill-opacity: 0.7; stroke: #ffb482; stroke-opacity: 0.7"/>
    </g>
   </g>
   <g id="PathCollection_38">
    <g clip-path="url(#pb770b5b35e)">
     <use xlink:href="#mb25ff027dd" x="289.226405" y="159.415446" style="fill: #a1c9f4; fill-opacity: 0.7; stroke: #a1c9f4; stroke-opacity: 0.7"/>
    </g>
   </g>
   <g id="PathCollection_39">
    <g clip-path="url(#pb770b5b35e)">
     <use xlink:href="#mbcd8572463" x="266.058182" y="462.337014" style="fill: #ffb482; fill-opacity: 0.7; stroke: #ffb482; stroke-opacity: 0.7"/>
    </g>
   </g>
   <g id="PathCollection_40">
    <g clip-path="url(#pb770b5b35e)">
     <use xlink:href="#mbcd8572463" x="194.135426" y="165.702715" style="fill: #ffb482; fill-opacity: 0.7; stroke: #ffb482; stroke-opacity: 0.7"/>
    </g>
   </g>
   <g id="PathCollection_41">
    <g clip-path="url(#pb770b5b35e)">
     <use xlink:href="#mbcd8572463" x="242.389292" y="240.582081" style="fill: #ffb482; fill-opacity: 0.7; stroke: #ffb482; stroke-opacity: 0.7"/>
    </g>
   </g>
   <g id="PathCollection_42">
    <g clip-path="url(#pb770b5b35e)">
     <use xlink:href="#mbcd8572463" x="369.421159" y="203.933557" style="fill: #ffb482; fill-opacity: 0.7; stroke: #ffb482; stroke-opacity: 0.7"/>
    </g>
   </g>
   <g id="PathCollection_43">
    <g clip-path="url(#pb770b5b35e)">
     <use xlink:href="#mb25ff027dd" x="461.636411" y="137.933191" style="fill: #a1c9f4; fill-opacity: 0.7; stroke: #a1c9f4; stroke-opacity: 0.7"/>
    </g>
   </g>
   <g id="PathCollection_44">
    <g clip-path="url(#pb770b5b35e)">
     <use xlink:href="#mb25ff027dd" x="295.187273" y="253.644065" style="fill: #a1c9f4; fill-opacity: 0.7; stroke: #a1c9f4; stroke-opacity: 0.7"/>
    </g>
   </g>
   <g id="PathCollection_45">
    <g clip-path="url(#pb770b5b35e)">
     <use xlink:href="#mbcd8572463" x="155.499134" y="295.851234" style="fill: #ffb482; fill-opacity: 0.7; stroke: #ffb482; stroke-opacity: 0.7"/>
    </g>
   </g>
   <g id="PathCollection_46">
    <g clip-path="url(#pb770b5b35e)">
     <use xlink:href="#mbcd8572463" x="382.586966" y="115.45158" style="fill: #ffb482; fill-opacity: 0.7; stroke: #ffb482; stroke-opacity: 0.7"/>
    </g>
   </g>
   <g id="PathCollection_47">
    <g clip-path="url(#pb770b5b35e)">
     <use xlink:href="#mb25ff027dd" x="366.333379" y="319.067131" style="fill: #a1c9f4; fill-opacity: 0.7; stroke: #a1c9f4; stroke-opacity: 0.7"/>
    </g>
   </g>
   <g id="PathCollection_48">
    <g clip-path="url(#pb770b5b35e)">
     <use xlink:href="#mbcd8572463" x="150.382751" y="300.039354" style="fill: #ffb482; fill-opacity: 0.7; stroke: #ffb482; stroke-opacity: 0.7"/>
    </g>
   </g>
   <g id="PathCollection_49">
    <g clip-path="url(#pb770b5b35e)">
     <use xlink:href="#mb25ff027dd" x="404.727746" y="268.553555" style="fill: #a1c9f4; fill-opacity: 0.7; stroke: #a1c9f4; stroke-opacity: 0.7"/>
    </g>
   </g>
   <g id="PathCollection_50">
    <g clip-path="url(#pb770b5b35e)">
     <use xlink:href="#mbcd8572463" x="211.83138" y="255.765671" style="fill: #ffb482; fill-opacity: 0.7; stroke: #ffb482; stroke-opacity: 0.7"/>
    </g>
   </g>
   <g id="PathCollection_51">
    <g clip-path="url(#pb770b5b35e)">
     <use xlink:href="#mb25ff027dd" x="288.376606" y="314.250919" style="fill: #a1c9f4; fill-opacity: 0.7; stroke: #a1c9f4; stroke-opacity: 0.7"/>
    </g>
   </g>
   <g id="PathCollection_52">
    <g clip-path="url(#pb770b5b35e)">
     <use xlink:href="#mb25ff027dd" x="413.755038" y="117.219506" style="fill: #a1c9f4; fill-opacity: 0.7; stroke: #a1c9f4; stroke-opacity: 0.7"/>
    </g>
   </g>
   <g id="PathCollection_53">
    <g clip-path="url(#pb770b5b35e)">
     <use xlink:href="#mbcd8572463" x="256.815951" y="245.841636" style="fill: #ffb482; fill-opacity: 0.7; stroke: #ffb482; stroke-opacity: 0.7"/>
    </g>
   </g>
   <g id="PathCollection_54">
    <g clip-path="url(#pb770b5b35e)">
     <use xlink:href="#mbcd8572463" x="138.738581" y="206.934157" style="fill: #ffb482; fill-opacity: 0.7; stroke: #ffb482; stroke-opacity: 0.7"/>
    </g>
   </g>
   <g id="PathCollection_55">
    <g clip-path="url(#pb770b5b35e)">
     <use xlink:href="#mb25ff027dd" x="367.949202" y="151.145186" style="fill: #a1c9f4; fill-opacity: 0.7; stroke: #a1c9f4; stroke-opacity: 0.7"/>
    </g>
   </g>
   <g id="PathCollection_56">
    <g clip-path="url(#pb770b5b35e)">
     <use xlink:href="#mb25ff027dd" x="344.944761" y="266.487973" style="fill: #a1c9f4; fill-opacity: 0.7; stroke: #a1c9f4; stroke-opacity: 0.7"/>
    </g>
   </g>
   <g id="PathCollection_57">
    <g clip-path="url(#pb770b5b35e)">
     <use xlink:href="#mbcd8572463" x="465.114839" y="290.472129" style="fill: #ffb482; fill-opacity: 0.7; stroke: #ffb482; stroke-opacity: 0.7"/>
    </g>
   </g>
   <g id="PathCollection_58">
    <g clip-path="url(#pb770b5b35e)">
     <use xlink:href="#mb25ff027dd" x="453.99973" y="300.408588" style="fill: #a1c9f4; fill-opacity: 0.7; stroke: #a1c9f4; stroke-opacity: 0.7"/>
    </g>
   </g>
   <g id="PathCollection_59">
    <g clip-path="url(#pb770b5b35e)">
     <use xlink:href="#mb25ff027dd" x="321.815663" y="178.76133" style="fill: #a1c9f4; fill-opacity: 0.7; stroke: #a1c9f4; stroke-opacity: 0.7"/>
    </g>
   </g>
   <g id="PathCollection_60">
    <g clip-path="url(#pb770b5b35e)">
     <use xlink:href="#mbcd8572463" x="161.653021" y="305.371848" style="fill: #ffb482; fill-opacity: 0.7; stroke: #ffb482; stroke-opacity: 0.7"/>
    </g>
   </g>
   <g id="PathCollection_61">
    <g clip-path="url(#pb770b5b35e)">
     <use xlink:href="#mb25ff027dd" x="329.362907" y="246.063009" style="fill: #a1c9f4; fill-opacity: 0.7; stroke: #a1c9f4; stroke-opacity: 0.7"/>
    </g>
   </g>
   <g id="PathCollection_62">
    <g clip-path="url(#pb770b5b35e)">
     <use xlink:href="#mb25ff027dd" x="338.479425" y="185.252962" style="fill: #a1c9f4; fill-opacity: 0.7; stroke: #a1c9f4; stroke-opacity: 0.7"/>
    </g>
   </g>
   <g id="PathCollection_63">
    <g clip-path="url(#pb770b5b35e)">
     <use xlink:href="#mbcd8572463" x="365.311108" y="226.72594" style="fill: #ffb482; fill-opacity: 0.7; stroke: #ffb482; stroke-opacity: 0.7"/>
    </g>
   </g>
   <g id="PathCollection_64">
    <g clip-path="url(#pb770b5b35e)">
     <use xlink:href="#mbcd8572463" x="175.804964" y="324.252696" style="fill: #ffb482; fill-opacity: 0.7; stroke: #ffb482; stroke-opacity: 0.7"/>
    </g>
   </g>
   <g id="PathCollection_65">
    <g clip-path="url(#pb770b5b35e)">
     <use xlink:href="#mb25ff027dd" x="402.738796" y="190.618664" style="fill: #a1c9f4; fill-opacity: 0.7; stroke: #a1c9f4; stroke-opacity: 0.7"/>
    </g>
   </g>
   <g id="PathCollection_66">
    <g clip-path="url(#pb770b5b35e)">
     <use xlink:href="#mb25ff027dd" x="219.502084" y="231.724678" style="fill: #a1c9f4; fill-opacity: 0.7; stroke: #a1c9f4; stroke-opacity: 0.7"/>
    </g>
   </g>
   <g id="PathCollection_67">
    <g clip-path="url(#pb770b5b35e)">
     <use xlink:href="#mb25ff027dd" x="199.384347" y="180.247821" style="fill: #a1c9f4; fill-opacity: 0.7; stroke: #a1c9f4; stroke-opacity: 0.7"/>
    </g>
   </g>
   <g id="PathCollection_68">
    <g clip-path="url(#pb770b5b35e)">
     <use xlink:href="#mbcd8572463" x="367.402444" y="400.71531" style="fill: #ffb482; fill-opacity: 0.7; stroke: #ffb482; stroke-opacity: 0.7"/>
    </g>
   </g>
   <g id="PathCollection_69">
    <g clip-path="url(#pb770b5b35e)">
     <use xlink:href="#mbcd8572463" x="145.916357" y="210.135774" style="fill: #ffb482; fill-opacity: 0.7; stroke: #ffb482; stroke-opacity: 0.7"/>
    </g>
   </g>
   <g id="PathCollection_70">
    <g clip-path="url(#pb770b5b35e)">
     <use xlink:href="#mb25ff027dd" x="178.095546" y="222.045835" style="fill: #a1c9f4; fill-opacity: 0.7; stroke: #a1c9f4; stroke-opacity: 0.7"/>
    </g>
   </g>
   <g id="PathCollection_71">
    <g clip-path="url(#pb770b5b35e)">
     <use xlink:href="#mbcd8572463" x="298.401646" y="376.27221" style="fill: #ffb482; fill-opacity: 0.7; stroke: #ffb482; stroke-opacity: 0.7"/>
    </g>
   </g>
   <g id="PathCollection_72">
    <g clip-path="url(#pb770b5b35e)">
     <use xlink:href="#mb25ff027dd" x="471.642099" y="251.285055" style="fill: #a1c9f4; fill-opacity: 0.7; stroke: #a1c9f4; stroke-opacity: 0.7"/>
    </g>
   </g>
   <g id="PathCollection_73">
    <g clip-path="url(#pb770b5b35e)">
     <use xlink:href="#mbcd8572463" x="290.505659" y="468.730777" style="fill: #ffb482; fill-opacity: 0.7; stroke: #ffb482; stroke-opacity: 0.7"/>
    </g>
   </g>
   <g id="PathCollection_74">
    <g clip-path="url(#pb770b5b35e)">
     <use xlink:href="#mbcd8572463" x="230.720634" y="436.066416" style="fill: #ffb482; fill-opacity: 0.7; stroke: #ffb482; stroke-opacity: 0.7"/>
    </g>
   </g>
   <g id="PathCollection_75">
    <g clip-path="url(#pb770b5b35e)">
     <use xlink:href="#mb25ff027dd" x="209.351825" y="181.926299" style="fill: #a1c9f4; fill-opacity: 0.7; stroke: #a1c9f4; stroke-opacity: 0.7"/>
    </g>
   </g>
   <g id="PathCollection_76">
    <g clip-path="url(#pb770b5b35e)">
     <use xlink:href="#mb25ff027dd" x="224.695484" y="229.760823" style="fill: #a1c9f4; fill-opacity: 0.7; stroke: #a1c9f4; stroke-opacity: 0.7"/>
    </g>
   </g>
   <g id="PathCollection_77">
    <g clip-path="url(#pb770b5b35e)">
     <use xlink:href="#mb25ff027dd" x="307.90948" y="277.206117" style="fill: #a1c9f4; fill-opacity: 0.7; stroke: #a1c9f4; stroke-opacity: 0.7"/>
    </g>
   </g>
   <g id="PathCollection_78">
    <g clip-path="url(#pb770b5b35e)">
     <use xlink:href="#mbcd8572463" x="308.2565" y="420.397387" style="fill: #ffb482; fill-opacity: 0.7; stroke: #ffb482; stroke-opacity: 0.7"/>
    </g>
   </g>
   <g id="PathCollection_79">
    <g clip-path="url(#pb770b5b35e)">
     <use xlink:href="#mbcd8572463" x="142.671128" y="272.056317" style="fill: #ffb482; fill-opacity: 0.7; stroke: #ffb482; stroke-opacity: 0.7"/>
    </g>
   </g>
   <g id="PathCollection_80">
    <g clip-path="url(#pb770b5b35e)">
     <use xlink:href="#mb25ff027dd" x="347.461471" y="375.236922" style="fill: #a1c9f4; fill-opacity: 0.7; stroke: #a1c9f4; stroke-opacity: 0.7"/>
    </g>
   </g>
   <g id="PathCollection_81">
    <g clip-path="url(#pb770b5b35e)">
     <use xlink:href="#mb25ff027dd" x="421.85087" y="200.963848" style="fill: #a1c9f4; fill-opacity: 0.7; stroke: #a1c9f4; stroke-opacity: 0.7"/>
    </g>
   </g>
   <g id="PathCollection_82">
    <g clip-path="url(#pb770b5b35e)">
     <use xlink:href="#mb25ff027dd" x="301.509411" y="237.627686" style="fill: #a1c9f4; fill-opacity: 0.7; stroke: #a1c9f4; stroke-opacity: 0.7"/>
    </g>
   </g>
   <g id="PathCollection_83">
    <g clip-path="url(#pb770b5b35e)">
     <use xlink:href="#mbcd8572463" x="275.813994" y="325.324799" style="fill: #ffb482; fill-opacity: 0.7; stroke: #ffb482; stroke-opacity: 0.7"/>
    </g>
   </g>
   <g id="PathCollection_84">
    <g clip-path="url(#pb770b5b35e)">
     <use xlink:href="#mb25ff027dd" x="203.04552" y="262.368921" style="fill: #a1c9f4; fill-opacity: 0.7; stroke: #a1c9f4; stroke-opacity: 0.7"/>
    </g>
   </g>
   <g id="PathCollection_85">
    <g clip-path="url(#pb770b5b35e)">
     <use xlink:href="#mb25ff027dd" x="438.616735" y="240.023082" style="fill: #a1c9f4; fill-opacity: 0.7; stroke: #a1c9f4; stroke-opacity: 0.7"/>
    </g>
   </g>
   <g id="PathCollection_86">
    <g clip-path="url(#pb770b5b35e)">
     <use xlink:href="#mb25ff027dd" x="473.205182" y="161.338471" style="fill: #a1c9f4; fill-opacity: 0.7; stroke: #a1c9f4; stroke-opacity: 0.7"/>
    </g>
   </g>
   <g id="PathCollection_87">
    <g clip-path="url(#pb770b5b35e)">
     <use xlink:href="#mbcd8572463" x="244.464829" y="487.386393" style="fill: #ffb482; fill-opacity: 0.7; stroke: #ffb482; stroke-opacity: 0.7"/>
    </g>
   </g>
   <g id="PathCollection_88">
    <g clip-path="url(#pb770b5b35e)">
     <use xlink:href="#mbcd8572463" x="482.636879" y="194.634626" style="fill: #ffb482; fill-opacity: 0.7; stroke: #ffb482; stroke-opacity: 0.7"/>
    </g>
   </g>
   <g id="PathCollection_89">
    <g clip-path="url(#pb770b5b35e)">
     <use xlink:href="#mb25ff027dd" x="383.794761" y="281.688645" style="fill: #a1c9f4; fill-opacity: 0.7; stroke: #a1c9f4; stroke-opacity: 0.7"/>
    </g>
   </g>
   <g id="PathCollection_90">
    <g clip-path="url(#pb770b5b35e)">
     <use xlink:href="#mbcd8572463" x="261.339625" y="503.81348" style="fill: #ffb482; fill-opacity: 0.7; stroke: #ffb482; stroke-opacity: 0.7"/>
    </g>
   </g>
   <g id="PathCollection_91">
    <g clip-path="url(#pb770b5b35e)">
     <use xlink:href="#mb25ff027dd" x="324.341978" y="324.984545" style="fill: #a1c9f4; fill-opacity: 0.7; stroke: #a1c9f4; stroke-opacity: 0.7"/>
    </g>
   </g>
   <g id="PathCollection_92">
    <g clip-path="url(#pb770b5b35e)">
     <use xlink:href="#mbcd8572463" x="145.108392" y="341.284126" style="fill: #ffb482; fill-opacity: 0.7; stroke: #ffb482; stroke-opacity: 0.7"/>
    </g>
   </g>
   <g id="PathCollection_93">
    <g clip-path="url(#pb770b5b35e)">
     <use xlink:href="#mbcd8572463" x="224.726727" y="440.180355" style="fill: #ffb482; fill-opacity: 0.7; stroke: #ffb482; stroke-opacity: 0.7"/>
    </g>
   </g>
   <g id="PathCollection_94">
    <g clip-path="url(#pb770b5b35e)">
     <use xlink:href="#mb25ff027dd" x="434.346879" y="132.740555" style="fill: #a1c9f4; fill-opacity: 0.7; stroke: #a1c9f4; stroke-opacity: 0.7"/>
    </g>
   </g>
   <g id="PathCollection_95">
    <g clip-path="url(#pb770b5b35e)">
     <use xlink:href="#mbcd8572463" x="191.566504" y="451.165122" style="fill: #ffb482; fill-opacity: 0.7; stroke: #ffb482; stroke-opacity: 0.7"/>
    </g>
   </g>
   <g id="PathCollection_96">
    <g clip-path="url(#pb770b5b35e)">
     <use xlink:href="#mbcd8572463" x="272.933201" y="282.223251" style="fill: #ffb482; fill-opacity: 0.7; stroke: #ffb482; stroke-opacity: 0.7"/>
    </g>
   </g>
   <g id="PathCollection_97">
    <g clip-path="url(#pb770b5b35e)">
     <use xlink:href="#mb25ff027dd" x="360.619291" y="383.227874" style="fill: #a1c9f4; fill-opacity: 0.7; stroke: #a1c9f4; stroke-opacity: 0.7"/>
    </g>
   </g>
   <g id="PathCollection_98">
    <g clip-path="url(#pb770b5b35e)">
     <use xlink:href="#mb25ff027dd" x="176.636186" y="244.552937" style="fill: #a1c9f4; fill-opacity: 0.7; stroke: #a1c9f4; stroke-opacity: 0.7"/>
    </g>
   </g>
   <g id="PathCollection_99">
    <g clip-path="url(#pb770b5b35e)">
     <use xlink:href="#mb25ff027dd" x="442.26278" y="216.786232" style="fill: #a1c9f4; fill-opacity: 0.7; stroke: #a1c9f4; stroke-opacity: 0.7"/>
    </g>
   </g>
   <g id="PathCollection_100">
    <g clip-path="url(#pb770b5b35e)">
     <use xlink:href="#mb25ff027dd" x="396.019361" y="303.887316" style="fill: #a1c9f4; fill-opacity: 0.7; stroke: #a1c9f4; stroke-opacity: 0.7"/>
    </g>
   </g>
   <g id="PathCollection_101">
    <defs>
     <path id="m1cfb458c94" d="M -3.535534 3.535534 
L 3.535534 -3.535534 
M -3.535534 -3.535534 
L 3.535534 3.535534 
" style="stroke: #000000; stroke-width: 1.5"/>
    </defs>
    <g clip-path="url(#pb770b5b35e)">
     <use xlink:href="#m1cfb458c94" x="353.341803" y="241.369047" style="stroke: #000000; stroke-width: 1.5"/>
    </g>
   </g>
   <g id="patch_2">
    <path d="M 356.945672 428.000775 
C 412.679298 426.015889 465.757995 404.447335 504.491798 368.045337 
C 543.2256 331.64334 564.452064 283.379959 563.496307 233.884646 
C 562.54055 184.389334 539.480605 137.703161 499.395158 104.108216 
C 459.30971 70.513271 405.47156 52.752432 349.737934 54.737318 
C 294.004308 56.722204 240.925611 78.290758 202.191808 114.692756 
C 163.458006 151.094754 142.231542 199.358134 143.187299 248.853447 
C 144.143056 298.34876 167.203001 345.034933 207.288448 378.629878 
C 247.373895 412.224823 301.212046 429.985661 356.945672 428.000775 
z
" clip-path="url(#pb770b5b35e)" style="fill: #a1c9f4; opacity: 0.2; stroke: #7d7d7d; stroke-linejoin: miter"/>
   </g>
   <g id="PathCollection_102">
    <g clip-path="url(#pb770b5b35e)">
     <use xlink:href="#m1cfb458c94" x="255.767434" y="321.590271" style="stroke: #000000; stroke-width: 1.5"/>
    </g>
   </g>
   <g id="patch_3">
    <path d="M 266.866691 578.373682 
C 324.126027 573.809026 377.878389 542.374391 416.285445 490.992892 
C 454.6925 439.611393 474.618482 372.478101 471.674924 304.378345 
C 468.731367 236.278588 443.158599 172.772411 400.588724 127.846311 
C 358.01885 82.92021 301.927512 60.242205 244.668177 64.806861 
C 187.408841 69.371517 133.656478 100.806151 95.249423 152.18765 
C 56.842368 203.569149 36.916386 270.702441 39.859943 338.802198 
C 42.803501 406.901954 68.376269 470.408132 110.946143 515.334232 
C 153.516017 560.260332 209.607355 582.938338 266.866691 578.373682 
z
" clip-path="url(#pb770b5b35e)" style="fill: #ffb482; opacity: 0.2; stroke: #7d7d7d; stroke-linejoin: miter"/>
   </g>
   <g id="matplotlib.axis_1">
    <g id="text_1">
     <!-- UMAP Dimension 1 -->
     <g transform="translate(254.333594 616.153937) scale(0.1 -0.1)">
      <defs>
       <path id="DejaVuSans-55" d="M 556 4666 
L 1191 4666 
L 1191 1831 
Q 1191 1081 1462 751 
Q 1734 422 2344 422 
Q 2950 422 3222 751 
Q 3494 1081 3494 1831 
L 3494 4666 
L 4128 4666 
L 4128 1753 
Q 4128 841 3676 375 
Q 3225 -91 2344 -91 
Q 1459 -91 1007 375 
Q 556 841 556 1753 
L 556 4666 
z
" transform="scale(0.015625)"/>
       <path id="DejaVuSans-4d" d="M 628 4666 
L 1569 4666 
L 2759 1491 
L 3956 4666 
L 4897 4666 
L 4897 0 
L 4281 0 
L 4281 4097 
L 3078 897 
L 2444 897 
L 1241 4097 
L 1241 0 
L 628 0 
L 628 4666 
z
" transform="scale(0.015625)"/>
       <path id="DejaVuSans-41" d="M 2188 4044 
L 1331 1722 
L 3047 1722 
L 2188 4044 
z
M 1831 4666 
L 2547 4666 
L 4325 0 
L 3669 0 
L 3244 1197 
L 1141 1197 
L 716 0 
L 50 0 
L 1831 4666 
z
" transform="scale(0.015625)"/>
       <path id="DejaVuSans-50" d="M 1259 4147 
L 1259 2394 
L 2053 2394 
Q 2494 2394 2734 2622 
Q 2975 2850 2975 3272 
Q 2975 3691 2734 3919 
Q 2494 4147 2053 4147 
L 1259 4147 
z
M 628 4666 
L 2053 4666 
Q 2838 4666 3239 4311 
Q 3641 3956 3641 3272 
Q 3641 2581 3239 2228 
Q 2838 1875 2053 1875 
L 1259 1875 
L 1259 0 
L 628 0 
L 628 4666 
z
" transform="scale(0.015625)"/>
       <path id="DejaVuSans-20" transform="scale(0.015625)"/>
       <path id="DejaVuSans-44" d="M 1259 4147 
L 1259 519 
L 2022 519 
Q 2988 519 3436 956 
Q 3884 1394 3884 2338 
Q 3884 3275 3436 3711 
Q 2988 4147 2022 4147 
L 1259 4147 
z
M 628 4666 
L 1925 4666 
Q 3281 4666 3915 4102 
Q 4550 3538 4550 2338 
Q 4550 1131 3912 565 
Q 3275 0 1925 0 
L 628 0 
L 628 4666 
z
" transform="scale(0.015625)"/>
       <path id="DejaVuSans-69" d="M 603 3500 
L 1178 3500 
L 1178 0 
L 603 0 
L 603 3500 
z
M 603 4863 
L 1178 4863 
L 1178 4134 
L 603 4134 
L 603 4863 
z
" transform="scale(0.015625)"/>
       <path id="DejaVuSans-6d" d="M 3328 2828 
Q 3544 3216 3844 3400 
Q 4144 3584 4550 3584 
Q 5097 3584 5394 3201 
Q 5691 2819 5691 2113 
L 5691 0 
L 5113 0 
L 5113 2094 
Q 5113 2597 4934 2840 
Q 4756 3084 4391 3084 
Q 3944 3084 3684 2787 
Q 3425 2491 3425 1978 
L 3425 0 
L 2847 0 
L 2847 2094 
Q 2847 2600 2669 2842 
Q 2491 3084 2119 3084 
Q 1678 3084 1418 2786 
Q 1159 2488 1159 1978 
L 1159 0 
L 581 0 
L 581 3500 
L 1159 3500 
L 1159 2956 
Q 1356 3278 1631 3431 
Q 1906 3584 2284 3584 
Q 2666 3584 2933 3390 
Q 3200 3197 3328 2828 
z
" transform="scale(0.015625)"/>
       <path id="DejaVuSans-65" d="M 3597 1894 
L 3597 1613 
L 953 1613 
Q 991 1019 1311 708 
Q 1631 397 2203 397 
Q 2534 397 2845 478 
Q 3156 559 3463 722 
L 3463 178 
Q 3153 47 2828 -22 
Q 2503 -91 2169 -91 
Q 1331 -91 842 396 
Q 353 884 353 1716 
Q 353 2575 817 3079 
Q 1281 3584 2069 3584 
Q 2775 3584 3186 3129 
Q 3597 2675 3597 1894 
z
M 3022 2063 
Q 3016 2534 2758 2815 
Q 2500 3097 2075 3097 
Q 1594 3097 1305 2825 
Q 1016 2553 972 2059 
L 3022 2063 
z
" transform="scale(0.015625)"/>
       <path id="DejaVuSans-6e" d="M 3513 2113 
L 3513 0 
L 2938 0 
L 2938 2094 
Q 2938 2591 2744 2837 
Q 2550 3084 2163 3084 
Q 1697 3084 1428 2787 
Q 1159 2491 1159 1978 
L 1159 0 
L 581 0 
L 581 3500 
L 1159 3500 
L 1159 2956 
Q 1366 3272 1645 3428 
Q 1925 3584 2291 3584 
Q 2894 3584 3203 3211 
Q 3513 2838 3513 2113 
z
" transform="scale(0.015625)"/>
       <path id="DejaVuSans-73" d="M 2834 3397 
L 2834 2853 
Q 2591 2978 2328 3040 
Q 2066 3103 1784 3103 
Q 1356 3103 1142 2972 
Q 928 2841 928 2578 
Q 928 2378 1081 2264 
Q 1234 2150 1697 2047 
L 1894 2003 
Q 2506 1872 2764 1633 
Q 3022 1394 3022 966 
Q 3022 478 2636 193 
Q 2250 -91 1575 -91 
Q 1294 -91 989 -36 
Q 684 19 347 128 
L 347 722 
Q 666 556 975 473 
Q 1284 391 1588 391 
Q 1994 391 2212 530 
Q 2431 669 2431 922 
Q 2431 1156 2273 1281 
Q 2116 1406 1581 1522 
L 1381 1569 
Q 847 1681 609 1914 
Q 372 2147 372 2553 
Q 372 3047 722 3315 
Q 1072 3584 1716 3584 
Q 2034 3584 2315 3537 
Q 2597 3491 2834 3397 
z
" transform="scale(0.015625)"/>
       <path id="DejaVuSans-6f" d="M 1959 3097 
Q 1497 3097 1228 2736 
Q 959 2375 959 1747 
Q 959 1119 1226 758 
Q 1494 397 1959 397 
Q 2419 397 2687 759 
Q 2956 1122 2956 1747 
Q 2956 2369 2687 2733 
Q 2419 3097 1959 3097 
z
M 1959 3584 
Q 2709 3584 3137 3096 
Q 3566 2609 3566 1747 
Q 3566 888 3137 398 
Q 2709 -91 1959 -91 
Q 1206 -91 779 398 
Q 353 888 353 1747 
Q 353 2609 779 3096 
Q 1206 3584 1959 3584 
z
" transform="scale(0.015625)"/>
       <path id="DejaVuSans-31" d="M 794 531 
L 1825 531 
L 1825 4091 
L 703 3866 
L 703 4441 
L 1819 4666 
L 2450 4666 
L 2450 531 
L 3481 531 
L 3481 0 
L 794 0 
L 794 531 
z
" transform="scale(0.015625)"/>
      </defs>
      <use xlink:href="#DejaVuSans-55"/>
      <use xlink:href="#DejaVuSans-4d" x="73.193359"/>
      <use xlink:href="#DejaVuSans-41" x="159.472656"/>
      <use xlink:href="#DejaVuSans-50" x="227.880859"/>
      <use xlink:href="#DejaVuSans-20" x="288.183594"/>
      <use xlink:href="#DejaVuSans-44" x="319.970703"/>
      <use xlink:href="#DejaVuSans-69" x="396.972656"/>
      <use xlink:href="#DejaVuSans-6d" x="424.755859"/>
      <use xlink:href="#DejaVuSans-65" x="522.167969"/>
      <use xlink:href="#DejaVuSans-6e" x="583.691406"/>
      <use xlink:href="#DejaVuSans-73" x="647.070312"/>
      <use xlink:href="#DejaVuSans-69" x="699.169922"/>
      <use xlink:href="#DejaVuSans-6f" x="726.953125"/>
      <use xlink:href="#DejaVuSans-6e" x="788.134766"/>
      <use xlink:href="#DejaVuSans-20" x="851.513672"/>
      <use xlink:href="#DejaVuSans-31" x="883.300781"/>
     </g>
    </g>
   </g>
   <g id="matplotlib.axis_2">
    <g id="text_2">
     <!-- UMAP Dimension 2 -->
     <g transform="translate(7.598437 363.900031) rotate(-90) scale(0.1 -0.1)">
      <defs>
       <path id="DejaVuSans-32" d="M 1228 531 
L 3431 531 
L 3431 0 
L 469 0 
L 469 531 
Q 828 903 1448 1529 
Q 2069 2156 2228 2338 
Q 2531 2678 2651 2914 
Q 2772 3150 2772 3378 
Q 2772 3750 2511 3984 
Q 2250 4219 1831 4219 
Q 1534 4219 1204 4116 
Q 875 4013 500 3803 
L 500 4441 
Q 881 4594 1212 4672 
Q 1544 4750 1819 4750 
Q 2544 4750 2975 4387 
Q 3406 4025 3406 3419 
Q 3406 3131 3298 2873 
Q 3191 2616 2906 2266 
Q 2828 2175 2409 1742 
Q 1991 1309 1228 531 
z
" transform="scale(0.015625)"/>
      </defs>
      <use xlink:href="#DejaVuSans-55"/>
      <use xlink:href="#DejaVuSans-4d" x="73.193359"/>
      <use xlink:href="#DejaVuSans-41" x="159.472656"/>
      <use xlink:href="#DejaVuSans-50" x="227.880859"/>
      <use xlink:href="#DejaVuSans-20" x="288.183594"/>
      <use xlink:href="#DejaVuSans-44" x="319.970703"/>
      <use xlink:href="#DejaVuSans-69" x="396.972656"/>
      <use xlink:href="#DejaVuSans-6d" x="424.755859"/>
      <use xlink:href="#DejaVuSans-65" x="522.167969"/>
      <use xlink:href="#DejaVuSans-6e" x="583.691406"/>
      <use xlink:href="#DejaVuSans-73" x="647.070312"/>
      <use xlink:href="#DejaVuSans-69" x="699.169922"/>
      <use xlink:href="#DejaVuSans-6f" x="726.953125"/>
      <use xlink:href="#DejaVuSans-6e" x="788.134766"/>
      <use xlink:href="#DejaVuSans-20" x="851.513672"/>
      <use xlink:href="#DejaVuSans-32" x="883.300781"/>
     </g>
    </g>
   </g>
   <g id="text_3">
    <!-- read -->
    <g transform="translate(353.341803 241.369047) scale(0.08 -0.08)">
     <defs>
      <path id="DejaVuSans-72" d="M 2631 2963 
Q 2534 3019 2420 3045 
Q 2306 3072 2169 3072 
Q 1681 3072 1420 2755 
Q 1159 2438 1159 1844 
L 1159 0 
L 581 0 
L 581 3500 
L 1159 3500 
L 1159 2956 
Q 1341 3275 1631 3429 
Q 1922 3584 2338 3584 
Q 2397 3584 2469 3576 
Q 2541 3569 2628 3553 
L 2631 2963 
z
" transform="scale(0.015625)"/>
      <path id="DejaVuSans-61" d="M 2194 1759 
Q 1497 1759 1228 1600 
Q 959 1441 959 1056 
Q 959 750 1161 570 
Q 1363 391 1709 391 
Q 2188 391 2477 730 
Q 2766 1069 2766 1631 
L 2766 1759 
L 2194 1759 
z
M 3341 1997 
L 3341 0 
L 2766 0 
L 2766 531 
Q 2569 213 2275 61 
Q 1981 -91 1556 -91 
Q 1019 -91 701 211 
Q 384 513 384 1019 
Q 384 1609 779 1909 
Q 1175 2209 1959 2209 
L 2766 2209 
L 2766 2266 
Q 2766 2663 2505 2880 
Q 2244 3097 1772 3097 
Q 1472 3097 1187 3025 
Q 903 2953 641 2809 
L 641 3341 
Q 956 3463 1253 3523 
Q 1550 3584 1831 3584 
Q 2591 3584 2966 3190 
Q 3341 2797 3341 1997 
z
" transform="scale(0.015625)"/>
      <path id="DejaVuSans-64" d="M 2906 2969 
L 2906 4863 
L 3481 4863 
L 3481 0 
L 2906 0 
L 2906 525 
Q 2725 213 2448 61 
Q 2172 -91 1784 -91 
Q 1150 -91 751 415 
Q 353 922 353 1747 
Q 353 2572 751 3078 
Q 1150 3584 1784 3584 
Q 2172 3584 2448 3432 
Q 2725 3281 2906 2969 
z
M 947 1747 
Q 947 1113 1208 752 
Q 1469 391 1925 391 
Q 2381 391 2643 752 
Q 2906 1113 2906 1747 
Q 2906 2381 2643 2742 
Q 2381 3103 1925 3103 
Q 1469 3103 1208 2742 
Q 947 2381 947 1747 
z
" transform="scale(0.015625)"/>
     </defs>
     <use xlink:href="#DejaVuSans-72"/>
     <use xlink:href="#DejaVuSans-65" x="38.863281"/>
     <use xlink:href="#DejaVuSans-61" x="100.386719"/>
     <use xlink:href="#DejaVuSans-64" x="161.666016"/>
    </g>
   </g>
   <g id="text_4">
    <!-- spon -->
    <g transform="translate(255.767434 321.590271) scale(0.08 -0.08)">
     <defs>
      <path id="DejaVuSans-70" d="M 1159 525 
L 1159 -1331 
L 581 -1331 
L 581 3500 
L 1159 3500 
L 1159 2969 
Q 1341 3281 1617 3432 
Q 1894 3584 2278 3584 
Q 2916 3584 3314 3078 
Q 3713 2572 3713 1747 
Q 3713 922 3314 415 
Q 2916 -91 2278 -91 
Q 1894 -91 1617 61 
Q 1341 213 1159 525 
z
M 3116 1747 
Q 3116 2381 2855 2742 
Q 2594 3103 2138 3103 
Q 1681 3103 1420 2742 
Q 1159 2381 1159 1747 
Q 1159 1113 1420 752 
Q 1681 391 2138 391 
Q 2594 391 2855 752 
Q 3116 1113 3116 1747 
z
" transform="scale(0.015625)"/>
     </defs>
     <use xlink:href="#DejaVuSans-73"/>
     <use xlink:href="#DejaVuSans-70" x="52.099609"/>
     <use xlink:href="#DejaVuSans-6f" x="115.576172"/>
     <use xlink:href="#DejaVuSans-6e" x="176.757812"/>
    </g>
   </g>
   <g id="text_5">
    <!-- LucyMPM  -->
    <g transform="translate(271.90875 9.118125) scale(0.12 -0.12)">
     <defs>
      <path id="DejaVuSans-4c" d="M 628 4666 
L 1259 4666 
L 1259 531 
L 3531 531 
L 3531 0 
L 628 0 
L 628 4666 
z
" transform="scale(0.015625)"/>
      <path id="DejaVuSans-75" d="M 544 1381 
L 544 3500 
L 1119 3500 
L 1119 1403 
Q 1119 906 1312 657 
Q 1506 409 1894 409 
Q 2359 409 2629 706 
Q 2900 1003 2900 1516 
L 2900 3500 
L 3475 3500 
L 3475 0 
L 2900 0 
L 2900 538 
Q 2691 219 2414 64 
Q 2138 -91 1772 -91 
Q 1169 -91 856 284 
Q 544 659 544 1381 
z
M 1991 3584 
L 1991 3584 
z
" transform="scale(0.015625)"/>
      <path id="DejaVuSans-63" d="M 3122 3366 
L 3122 2828 
Q 2878 2963 2633 3030 
Q 2388 3097 2138 3097 
Q 1578 3097 1268 2742 
Q 959 2388 959 1747 
Q 959 1106 1268 751 
Q 1578 397 2138 397 
Q 2388 397 2633 464 
Q 2878 531 3122 666 
L 3122 134 
Q 2881 22 2623 -34 
Q 2366 -91 2075 -91 
Q 1284 -91 818 406 
Q 353 903 353 1747 
Q 353 2603 823 3093 
Q 1294 3584 2113 3584 
Q 2378 3584 2631 3529 
Q 2884 3475 3122 3366 
z
" transform="scale(0.015625)"/>
      <path id="DejaVuSans-79" d="M 2059 -325 
Q 1816 -950 1584 -1140 
Q 1353 -1331 966 -1331 
L 506 -1331 
L 506 -850 
L 844 -850 
Q 1081 -850 1212 -737 
Q 1344 -625 1503 -206 
L 1606 56 
L 191 3500 
L 800 3500 
L 1894 763 
L 2988 3500 
L 3597 3500 
L 2059 -325 
z
" transform="scale(0.015625)"/>
     </defs>
     <use xlink:href="#DejaVuSans-4c"/>
     <use xlink:href="#DejaVuSans-75" x="53.962891"/>
     <use xlink:href="#DejaVuSans-63" x="117.341797"/>
     <use xlink:href="#DejaVuSans-79" x="172.322266"/>
     <use xlink:href="#DejaVuSans-4d" x="231.501953"/>
     <use xlink:href="#DejaVuSans-50" x="317.78125"/>
     <use xlink:href="#DejaVuSans-4d" x="378.083984"/>
     <use xlink:href="#DejaVuSans-20" x="464.363281"/>
    </g>
    <!--  UMAP on mpm embeddings;   -->
    <g transform="translate(210.894375 22.5555) scale(0.12 -0.12)">
     <defs>
      <path id="DejaVuSans-62" d="M 3116 1747 
Q 3116 2381 2855 2742 
Q 2594 3103 2138 3103 
Q 1681 3103 1420 2742 
Q 1159 2381 1159 1747 
Q 1159 1113 1420 752 
Q 1681 391 2138 391 
Q 2594 391 2855 752 
Q 3116 1113 3116 1747 
z
M 1159 2969 
Q 1341 3281 1617 3432 
Q 1894 3584 2278 3584 
Q 2916 3584 3314 3078 
Q 3713 2572 3713 1747 
Q 3713 922 3314 415 
Q 2916 -91 2278 -91 
Q 1894 -91 1617 61 
Q 1341 213 1159 525 
L 1159 0 
L 581 0 
L 581 4863 
L 1159 4863 
L 1159 2969 
z
" transform="scale(0.015625)"/>
      <path id="DejaVuSans-67" d="M 2906 1791 
Q 2906 2416 2648 2759 
Q 2391 3103 1925 3103 
Q 1463 3103 1205 2759 
Q 947 2416 947 1791 
Q 947 1169 1205 825 
Q 1463 481 1925 481 
Q 2391 481 2648 825 
Q 2906 1169 2906 1791 
z
M 3481 434 
Q 3481 -459 3084 -895 
Q 2688 -1331 1869 -1331 
Q 1566 -1331 1297 -1286 
Q 1028 -1241 775 -1147 
L 775 -588 
Q 1028 -725 1275 -790 
Q 1522 -856 1778 -856 
Q 2344 -856 2625 -561 
Q 2906 -266 2906 331 
L 2906 616 
Q 2728 306 2450 153 
Q 2172 0 1784 0 
Q 1141 0 747 490 
Q 353 981 353 1791 
Q 353 2603 747 3093 
Q 1141 3584 1784 3584 
Q 2172 3584 2450 3431 
Q 2728 3278 2906 2969 
L 2906 3500 
L 3481 3500 
L 3481 434 
z
" transform="scale(0.015625)"/>
      <path id="DejaVuSans-3b" d="M 750 3309 
L 1409 3309 
L 1409 2516 
L 750 2516 
L 750 3309 
z
M 750 794 
L 1409 794 
L 1409 256 
L 897 -744 
L 494 -744 
L 750 256 
L 750 794 
z
" transform="scale(0.015625)"/>
     </defs>
     <use xlink:href="#DejaVuSans-20"/>
     <use xlink:href="#DejaVuSans-55" x="31.787109"/>
     <use xlink:href="#DejaVuSans-4d" x="104.980469"/>
     <use xlink:href="#DejaVuSans-41" x="191.259766"/>
     <use xlink:href="#DejaVuSans-50" x="259.667969"/>
     <use xlink:href="#DejaVuSans-20" x="319.970703"/>
     <use xlink:href="#DejaVuSans-6f" x="351.757812"/>
     <use xlink:href="#DejaVuSans-6e" x="412.939453"/>
     <use xlink:href="#DejaVuSans-20" x="476.318359"/>
     <use xlink:href="#DejaVuSans-6d" x="508.105469"/>
     <use xlink:href="#DejaVuSans-70" x="605.517578"/>
     <use xlink:href="#DejaVuSans-6d" x="668.994141"/>
     <use xlink:href="#DejaVuSans-20" x="766.40625"/>
     <use xlink:href="#DejaVuSans-65" x="798.193359"/>
     <use xlink:href="#DejaVuSans-6d" x="859.716797"/>
     <use xlink:href="#DejaVuSans-62" x="957.128906"/>
     <use xlink:href="#DejaVuSans-65" x="1020.605469"/>
     <use xlink:href="#DejaVuSans-64" x="1082.128906"/>
     <use xlink:href="#DejaVuSans-64" x="1145.605469"/>
     <use xlink:href="#DejaVuSans-69" x="1209.082031"/>
     <use xlink:href="#DejaVuSans-6e" x="1236.865234"/>
     <use xlink:href="#DejaVuSans-67" x="1300.244141"/>
     <use xlink:href="#DejaVuSans-73" x="1363.720703"/>
     <use xlink:href="#DejaVuSans-3b" x="1415.820312"/>
     <use xlink:href="#DejaVuSans-20" x="1449.511719"/>
     <use xlink:href="#DejaVuSans-20" x="1481.298828"/>
    </g>
   </g>
   <g id="legend_1">
    <g id="patch_4">
     <path d="M 19.278125 600.5555 
L 120.501875 600.5555 
Q 122.101875 600.5555 122.101875 598.9555 
L 122.101875 588.013 
Q 122.101875 586.413 120.501875 586.413 
L 19.278125 586.413 
Q 17.678125 586.413 17.678125 588.013 
L 17.678125 598.9555 
Q 17.678125 600.5555 19.278125 600.5555 
z
" style="fill: #ffffff; opacity: 0.8; stroke: #cccccc; stroke-linejoin: miter"/>
    </g>
    <g id="patch_5">
     <path d="M 20.878125 595.69175 
L 36.878125 595.69175 
L 36.878125 590.09175 
L 20.878125 590.09175 
z
" style="fill: #a1c9f4; stroke: #a1c9f4; stroke-linejoin: miter"/>
    </g>
    <g id="text_6">
     <!-- read -->
     <g transform="translate(43.278125 595.69175) scale(0.08 -0.08)">
      <use xlink:href="#DejaVuSans-72"/>
      <use xlink:href="#DejaVuSans-65" x="38.863281"/>
      <use xlink:href="#DejaVuSans-61" x="100.386719"/>
      <use xlink:href="#DejaVuSans-64" x="161.666016"/>
     </g>
    </g>
    <g id="patch_6">
     <path d="M 77.290625 595.69175 
L 93.290625 595.69175 
L 93.290625 590.09175 
L 77.290625 590.09175 
z
" style="fill: #ffb482; stroke: #ffb482; stroke-linejoin: miter"/>
    </g>
    <g id="text_7">
     <!-- spon -->
     <g transform="translate(99.690625 595.69175) scale(0.08 -0.08)">
      <use xlink:href="#DejaVuSans-73"/>
      <use xlink:href="#DejaVuSans-70" x="52.099609"/>
      <use xlink:href="#DejaVuSans-6f" x="115.576172"/>
      <use xlink:href="#DejaVuSans-6e" x="176.757812"/>
     </g>
    </g>
   </g>
  </g>
 </g>
 <defs>
  <clipPath id="pb770b5b35e">
   <rect x="13.678125" y="28.5555" width="576" height="576"/>
  </clipPath>
 </defs>
</svg>
