<?xml version="1.0" encoding="utf-8" standalone="no"?>
<!DOCTYPE svg PUBLIC "-//W3C//DTD SVG 1.1//EN"
  "http://www.w3.org/Graphics/SVG/1.1/DTD/svg11.dtd">
<svg xmlns:xlink="http://www.w3.org/1999/xlink" width="589.678125pt" height="618.233625pt" viewBox="0 0 589.678125 618.233625" xmlns="http://www.w3.org/2000/svg" version="1.1">
 <metadata>
  <rdf:RDF xmlns:dc="http://purl.org/dc/elements/1.1/" xmlns:cc="http://creativecommons.org/ns#" xmlns:rdf="http://www.w3.org/1999/02/22-rdf-syntax-ns#">
   <cc:Work>
    <dc:type rdf:resource="http://purl.org/dc/dcmitype/StillImage"/>
    <dc:date>2024-10-23T00:23:29.093218</dc:date>
    <dc:format>image/svg+xml</dc:format>
    <dc:creator>
     <cc:Agent>
      <dc:title>Matplotlib v3.9.2, https://matplotlib.org/</dc:title>
     </cc:Agent>
    </dc:creator>
   </cc:Work>
  </rdf:RDF>
 </metadata>
 <defs>
  <style type="text/css">*{stroke-linejoin: round; stroke-linecap: butt}</style>
 </defs>
 <g id="figure_1">
  <g id="patch_1">
   <path d="M 0 618.233625 
L 589.678125 618.233625 
L 589.678125 0 
L 0 0 
z
" style="fill: #ffffff"/>
  </g>
  <g id="axes_1">
   <g id="PathCollection_1">
    <defs>
     <path id="m226fe3f3d0" d="M 0 5 
C 1.326016 5 2.597899 4.473168 3.535534 3.535534 
C 4.473168 2.597899 5 1.326016 5 0 
C 5 -1.326016 4.473168 -2.597899 3.535534 -3.535534 
C 2.597899 -4.473168 1.326016 -5 0 -5 
C -1.326016 -5 -2.597899 -4.473168 -3.535534 -3.535534 
C -4.473168 -2.597899 -5 -1.326016 -5 0 
C -5 1.326016 -4.473168 2.597899 -3.535534 3.535534 
C -2.597899 4.473168 -1.326016 5 0 5 
z
" style="stroke: #ffb482; stroke-opacity: 0.7"/>
    </defs>
    <g clip-path="url(#pf9aa182003)">
     <use xlink:href="#m226fe3f3d0" x="249.657393" y="183.527277" style="fill: #ffb482; fill-opacity: 0.7; stroke: #ffb482; stroke-opacity: 0.7"/>
    </g>
   </g>
   <g id="PathCollection_2">
    <g clip-path="url(#pf9aa182003)">
     <use xlink:href="#m226fe3f3d0" x="221.305569" y="224.163372" style="fill: #ffb482; fill-opacity: 0.7; stroke: #ffb482; stroke-opacity: 0.7"/>
    </g>
   </g>
   <g id="PathCollection_3">
    <g clip-path="url(#pf9aa182003)">
     <use xlink:href="#m226fe3f3d0" x="188.893313" y="276.721371" style="fill: #ffb482; fill-opacity: 0.7; stroke: #ffb482; stroke-opacity: 0.7"/>
    </g>
   </g>
   <g id="PathCollection_4">
    <g clip-path="url(#pf9aa182003)">
     <use xlink:href="#m226fe3f3d0" x="264.140065" y="151.390451" style="fill: #ffb482; fill-opacity: 0.7; stroke: #ffb482; stroke-opacity: 0.7"/>
    </g>
   </g>
   <g id="PathCollection_5">
    <g clip-path="url(#pf9aa182003)">
     <use xlink:href="#m226fe3f3d0" x="232.009841" y="184.407999" style="fill: #ffb482; fill-opacity: 0.7; stroke: #ffb482; stroke-opacity: 0.7"/>
    </g>
   </g>
   <g id="PathCollection_6">
    <g clip-path="url(#pf9aa182003)">
     <use xlink:href="#m226fe3f3d0" x="240.937412" y="253.119319" style="fill: #ffb482; fill-opacity: 0.7; stroke: #ffb482; stroke-opacity: 0.7"/>
    </g>
   </g>
   <g id="PathCollection_7">
    <g clip-path="url(#pf9aa182003)">
     <use xlink:href="#m226fe3f3d0" x="331.245649" y="186.824377" style="fill: #ffb482; fill-opacity: 0.7; stroke: #ffb482; stroke-opacity: 0.7"/>
    </g>
   </g>
   <g id="PathCollection_8">
    <defs>
     <path id="mffdebbf833" d="M 0 5 
C 1.326016 5 2.597899 4.473168 3.535534 3.535534 
C 4.473168 2.597899 5 1.326016 5 0 
C 5 -1.326016 4.473168 -2.597899 3.535534 -3.535534 
C 2.597899 -4.473168 1.326016 -5 0 -5 
C -1.326016 -5 -2.597899 -4.473168 -3.535534 -3.535534 
C -4.473168 -2.597899 -5 -1.326016 -5 0 
C -5 1.326016 -4.473168 2.597899 -3.535534 3.535534 
C -2.597899 4.473168 -1.326016 5 0 5 
z
" style="stroke: #a1c9f4; stroke-opacity: 0.7"/>
    </defs>
    <g clip-path="url(#pf9aa182003)">
     <use xlink:href="#mffdebbf833" x="321.262076" y="538.19823" style="fill: #a1c9f4; fill-opacity: 0.7; stroke: #a1c9f4; stroke-opacity: 0.7"/>
    </g>
   </g>
   <g id="PathCollection_9">
    <g clip-path="url(#pf9aa182003)">
     <use xlink:href="#m226fe3f3d0" x="176.627915" y="247.228211" style="fill: #ffb482; fill-opacity: 0.7; stroke: #ffb482; stroke-opacity: 0.7"/>
    </g>
   </g>
   <g id="PathCollection_10">
    <g clip-path="url(#pf9aa182003)">
     <use xlink:href="#m226fe3f3d0" x="493.155908" y="418.206048" style="fill: #ffb482; fill-opacity: 0.7; stroke: #ffb482; stroke-opacity: 0.7"/>
    </g>
   </g>
   <g id="PathCollection_11">
    <g clip-path="url(#pf9aa182003)">
     <use xlink:href="#mffdebbf833" x="401.206435" y="378.318016" style="fill: #a1c9f4; fill-opacity: 0.7; stroke: #a1c9f4; stroke-opacity: 0.7"/>
    </g>
   </g>
   <g id="PathCollection_12">
    <g clip-path="url(#pf9aa182003)">
     <use xlink:href="#mffdebbf833" x="291.860439" y="410.784934" style="fill: #a1c9f4; fill-opacity: 0.7; stroke: #a1c9f4; stroke-opacity: 0.7"/>
    </g>
   </g>
   <g id="PathCollection_13">
    <g clip-path="url(#pf9aa182003)">
     <use xlink:href="#m226fe3f3d0" x="320.336853" y="145.312486" style="fill: #ffb482; fill-opacity: 0.7; stroke: #ffb482; stroke-opacity: 0.7"/>
    </g>
   </g>
   <g id="PathCollection_14">
    <g clip-path="url(#pf9aa182003)">
     <use xlink:href="#mffdebbf833" x="417.765133" y="332.995644" style="fill: #a1c9f4; fill-opacity: 0.7; stroke: #a1c9f4; stroke-opacity: 0.7"/>
    </g>
   </g>
   <g id="PathCollection_15">
    <g clip-path="url(#pf9aa182003)">
     <use xlink:href="#mffdebbf833" x="354.758676" y="421.558914" style="fill: #a1c9f4; fill-opacity: 0.7; stroke: #a1c9f4; stroke-opacity: 0.7"/>
    </g>
   </g>
   <g id="PathCollection_16">
    <g clip-path="url(#pf9aa182003)">
     <use xlink:href="#mffdebbf833" x="336.488581" y="518.176938" style="fill: #a1c9f4; fill-opacity: 0.7; stroke: #a1c9f4; stroke-opacity: 0.7"/>
    </g>
   </g>
   <g id="PathCollection_17">
    <g clip-path="url(#pf9aa182003)">
     <use xlink:href="#mffdebbf833" x="271.907232" y="479.049389" style="fill: #a1c9f4; fill-opacity: 0.7; stroke: #a1c9f4; stroke-opacity: 0.7"/>
    </g>
   </g>
   <g id="PathCollection_18">
    <g clip-path="url(#pf9aa182003)">
     <use xlink:href="#m226fe3f3d0" x="259.156665" y="356.560758" style="fill: #ffb482; fill-opacity: 0.7; stroke: #ffb482; stroke-opacity: 0.7"/>
    </g>
   </g>
   <g id="PathCollection_19">
    <g clip-path="url(#pf9aa182003)">
     <use xlink:href="#mffdebbf833" x="272.156758" y="392.467674" style="fill: #a1c9f4; fill-opacity: 0.7; stroke: #a1c9f4; stroke-opacity: 0.7"/>
    </g>
   </g>
   <g id="PathCollection_20">
    <g clip-path="url(#pf9aa182003)">
     <use xlink:href="#m226fe3f3d0" x="126.779515" y="185.649583" style="fill: #ffb482; fill-opacity: 0.7; stroke: #ffb482; stroke-opacity: 0.7"/>
    </g>
   </g>
   <g id="PathCollection_21">
    <g clip-path="url(#pf9aa182003)">
     <use xlink:href="#mffdebbf833" x="239.835543" y="542.542288" style="fill: #a1c9f4; fill-opacity: 0.7; stroke: #a1c9f4; stroke-opacity: 0.7"/>
    </g>
   </g>
   <g id="PathCollection_22">
    <g clip-path="url(#pf9aa182003)">
     <use xlink:href="#m226fe3f3d0" x="430.245699" y="365.885633" style="fill: #ffb482; fill-opacity: 0.7; stroke: #ffb482; stroke-opacity: 0.7"/>
    </g>
   </g>
   <g id="PathCollection_23">
    <g clip-path="url(#pf9aa182003)">
     <use xlink:href="#m226fe3f3d0" x="396.269135" y="298.753251" style="fill: #ffb482; fill-opacity: 0.7; stroke: #ffb482; stroke-opacity: 0.7"/>
    </g>
   </g>
   <g id="PathCollection_24">
    <g clip-path="url(#pf9aa182003)">
     <use xlink:href="#m226fe3f3d0" x="182.710697" y="227.892253" style="fill: #ffb482; fill-opacity: 0.7; stroke: #ffb482; stroke-opacity: 0.7"/>
    </g>
   </g>
   <g id="PathCollection_25">
    <g clip-path="url(#pf9aa182003)">
     <use xlink:href="#m226fe3f3d0" x="287.914763" y="302.900452" style="fill: #ffb482; fill-opacity: 0.7; stroke: #ffb482; stroke-opacity: 0.7"/>
    </g>
   </g>
   <g id="PathCollection_26">
    <g clip-path="url(#pf9aa182003)">
     <use xlink:href="#m226fe3f3d0" x="302.516992" y="187.906562" style="fill: #ffb482; fill-opacity: 0.7; stroke: #ffb482; stroke-opacity: 0.7"/>
    </g>
   </g>
   <g id="PathCollection_27">
    <g clip-path="url(#pf9aa182003)">
     <use xlink:href="#mffdebbf833" x="311.007633" y="447.825476" style="fill: #a1c9f4; fill-opacity: 0.7; stroke: #a1c9f4; stroke-opacity: 0.7"/>
    </g>
   </g>
   <g id="PathCollection_28">
    <g clip-path="url(#pf9aa182003)">
     <use xlink:href="#mffdebbf833" x="219.566062" y="390.314021" style="fill: #a1c9f4; fill-opacity: 0.7; stroke: #a1c9f4; stroke-opacity: 0.7"/>
    </g>
   </g>
   <g id="PathCollection_29">
    <g clip-path="url(#pf9aa182003)">
     <use xlink:href="#mffdebbf833" x="241.18636" y="440.220152" style="fill: #a1c9f4; fill-opacity: 0.7; stroke: #a1c9f4; stroke-opacity: 0.7"/>
    </g>
   </g>
   <g id="PathCollection_30">
    <g clip-path="url(#pf9aa182003)">
     <use xlink:href="#m226fe3f3d0" x="363.925767" y="281.316001" style="fill: #ffb482; fill-opacity: 0.7; stroke: #ffb482; stroke-opacity: 0.7"/>
    </g>
   </g>
   <g id="PathCollection_31">
    <g clip-path="url(#pf9aa182003)">
     <use xlink:href="#mffdebbf833" x="190.951119" y="484.004053" style="fill: #a1c9f4; fill-opacity: 0.7; stroke: #a1c9f4; stroke-opacity: 0.7"/>
    </g>
   </g>
   <g id="PathCollection_32">
    <g clip-path="url(#pf9aa182003)">
     <use xlink:href="#mffdebbf833" x="369.443385" y="468.004438" style="fill: #a1c9f4; fill-opacity: 0.7; stroke: #a1c9f4; stroke-opacity: 0.7"/>
    </g>
   </g>
   <g id="PathCollection_33">
    <g clip-path="url(#pf9aa182003)">
     <use xlink:href="#m226fe3f3d0" x="441.835283" y="342.155694" style="fill: #ffb482; fill-opacity: 0.7; stroke: #ffb482; stroke-opacity: 0.7"/>
    </g>
   </g>
   <g id="PathCollection_34">
    <g clip-path="url(#pf9aa182003)">
     <use xlink:href="#mffdebbf833" x="148.52151" y="429.612819" style="fill: #a1c9f4; fill-opacity: 0.7; stroke: #a1c9f4; stroke-opacity: 0.7"/>
    </g>
   </g>
   <g id="PathCollection_35">
    <g clip-path="url(#pf9aa182003)">
     <use xlink:href="#mffdebbf833" x="161.688012" y="380.260633" style="fill: #a1c9f4; fill-opacity: 0.7; stroke: #a1c9f4; stroke-opacity: 0.7"/>
    </g>
   </g>
   <g id="PathCollection_36">
    <g clip-path="url(#pf9aa182003)">
     <use xlink:href="#mffdebbf833" x="399.979051" y="392.008366" style="fill: #a1c9f4; fill-opacity: 0.7; stroke: #a1c9f4; stroke-opacity: 0.7"/>
    </g>
   </g>
   <g id="PathCollection_37">
    <g clip-path="url(#pf9aa182003)">
     <use xlink:href="#mffdebbf833" x="505.316382" y="406.267002" style="fill: #a1c9f4; fill-opacity: 0.7; stroke: #a1c9f4; stroke-opacity: 0.7"/>
    </g>
   </g>
   <g id="PathCollection_38">
    <g clip-path="url(#pf9aa182003)">
     <use xlink:href="#m226fe3f3d0" x="191.62728" y="330.480557" style="fill: #ffb482; fill-opacity: 0.7; stroke: #ffb482; stroke-opacity: 0.7"/>
    </g>
   </g>
   <g id="PathCollection_39">
    <g clip-path="url(#pf9aa182003)">
     <use xlink:href="#mffdebbf833" x="185.381444" y="360.748768" style="fill: #a1c9f4; fill-opacity: 0.7; stroke: #a1c9f4; stroke-opacity: 0.7"/>
    </g>
   </g>
   <g id="PathCollection_40">
    <g clip-path="url(#pf9aa182003)">
     <use xlink:href="#mffdebbf833" x="296.898152" y="345.02051" style="fill: #a1c9f4; fill-opacity: 0.7; stroke: #a1c9f4; stroke-opacity: 0.7"/>
    </g>
   </g>
   <g id="PathCollection_41">
    <g clip-path="url(#pf9aa182003)">
     <use xlink:href="#mffdebbf833" x="459.244705" y="461.505316" style="fill: #a1c9f4; fill-opacity: 0.7; stroke: #a1c9f4; stroke-opacity: 0.7"/>
    </g>
   </g>
   <g id="PathCollection_42">
    <g clip-path="url(#pf9aa182003)">
     <use xlink:href="#mffdebbf833" x="454.078238" y="414.910759" style="fill: #a1c9f4; fill-opacity: 0.7; stroke: #a1c9f4; stroke-opacity: 0.7"/>
    </g>
   </g>
   <g id="PathCollection_43">
    <g clip-path="url(#pf9aa182003)">
     <use xlink:href="#mffdebbf833" x="228.773641" y="535.247116" style="fill: #a1c9f4; fill-opacity: 0.7; stroke: #a1c9f4; stroke-opacity: 0.7"/>
    </g>
   </g>
   <g id="PathCollection_44">
    <g clip-path="url(#pf9aa182003)">
     <use xlink:href="#m226fe3f3d0" x="170.784884" y="139.080835" style="fill: #ffb482; fill-opacity: 0.7; stroke: #ffb482; stroke-opacity: 0.7"/>
    </g>
   </g>
   <g id="PathCollection_45">
    <g clip-path="url(#pf9aa182003)">
     <use xlink:href="#m226fe3f3d0" x="267.923439" y="241.813333" style="fill: #ffb482; fill-opacity: 0.7; stroke: #ffb482; stroke-opacity: 0.7"/>
    </g>
   </g>
   <g id="PathCollection_46">
    <g clip-path="url(#pf9aa182003)">
     <use xlink:href="#mffdebbf833" x="129.938612" y="390.754017" style="fill: #a1c9f4; fill-opacity: 0.7; stroke: #a1c9f4; stroke-opacity: 0.7"/>
    </g>
   </g>
   <g id="PathCollection_47">
    <g clip-path="url(#pf9aa182003)">
     <use xlink:href="#mffdebbf833" x="415.620276" y="452.480262" style="fill: #a1c9f4; fill-opacity: 0.7; stroke: #a1c9f4; stroke-opacity: 0.7"/>
    </g>
   </g>
   <g id="PathCollection_48">
    <g clip-path="url(#pf9aa182003)">
     <use xlink:href="#m226fe3f3d0" x="280.130128" y="237.4371" style="fill: #ffb482; fill-opacity: 0.7; stroke: #ffb482; stroke-opacity: 0.7"/>
    </g>
   </g>
   <g id="PathCollection_49">
    <g clip-path="url(#pf9aa182003)">
     <use xlink:href="#m226fe3f3d0" x="285.452996" y="153.250537" style="fill: #ffb482; fill-opacity: 0.7; stroke: #ffb482; stroke-opacity: 0.7"/>
    </g>
   </g>
   <g id="PathCollection_50">
    <g clip-path="url(#pf9aa182003)">
     <use xlink:href="#mffdebbf833" x="293.317221" y="398.94946" style="fill: #a1c9f4; fill-opacity: 0.7; stroke: #a1c9f4; stroke-opacity: 0.7"/>
    </g>
   </g>
   <g id="PathCollection_51">
    <g clip-path="url(#pf9aa182003)">
     <use xlink:href="#mffdebbf833" x="471.413739" y="461.890061" style="fill: #a1c9f4; fill-opacity: 0.7; stroke: #a1c9f4; stroke-opacity: 0.7"/>
    </g>
   </g>
   <g id="PathCollection_52">
    <g clip-path="url(#pf9aa182003)">
     <use xlink:href="#mffdebbf833" x="429.027106" y="487.058338" style="fill: #a1c9f4; fill-opacity: 0.7; stroke: #a1c9f4; stroke-opacity: 0.7"/>
    </g>
   </g>
   <g id="PathCollection_53">
    <g clip-path="url(#pf9aa182003)">
     <use xlink:href="#mffdebbf833" x="307.327968" y="507.145967" style="fill: #a1c9f4; fill-opacity: 0.7; stroke: #a1c9f4; stroke-opacity: 0.7"/>
    </g>
   </g>
   <g id="PathCollection_54">
    <g clip-path="url(#pf9aa182003)">
     <use xlink:href="#m226fe3f3d0" x="236.955412" y="156.382494" style="fill: #ffb482; fill-opacity: 0.7; stroke: #ffb482; stroke-opacity: 0.7"/>
    </g>
   </g>
   <g id="PathCollection_55">
    <g clip-path="url(#pf9aa182003)">
     <use xlink:href="#mffdebbf833" x="128.112343" y="440.532322" style="fill: #a1c9f4; fill-opacity: 0.7; stroke: #a1c9f4; stroke-opacity: 0.7"/>
    </g>
   </g>
   <g id="PathCollection_56">
    <g clip-path="url(#pf9aa182003)">
     <use xlink:href="#m226fe3f3d0" x="231.0015" y="304.022728" style="fill: #ffb482; fill-opacity: 0.7; stroke: #ffb482; stroke-opacity: 0.7"/>
    </g>
   </g>
   <g id="PathCollection_57">
    <g clip-path="url(#pf9aa182003)">
     <use xlink:href="#mffdebbf833" x="239.984136" y="492.421651" style="fill: #a1c9f4; fill-opacity: 0.7; stroke: #a1c9f4; stroke-opacity: 0.7"/>
    </g>
   </g>
   <g id="PathCollection_58">
    <g clip-path="url(#pf9aa182003)">
     <use xlink:href="#m226fe3f3d0" x="346.727522" y="234.852145" style="fill: #ffb482; fill-opacity: 0.7; stroke: #ffb482; stroke-opacity: 0.7"/>
    </g>
   </g>
   <g id="PathCollection_59">
    <g clip-path="url(#pf9aa182003)">
     <use xlink:href="#m226fe3f3d0" x="308.651368" y="280.442041" style="fill: #ffb482; fill-opacity: 0.7; stroke: #ffb482; stroke-opacity: 0.7"/>
    </g>
   </g>
   <g id="PathCollection_60">
    <g clip-path="url(#pf9aa182003)">
     <use xlink:href="#m226fe3f3d0" x="271.585347" y="201.869778" style="fill: #ffb482; fill-opacity: 0.7; stroke: #ffb482; stroke-opacity: 0.7"/>
    </g>
   </g>
   <g id="PathCollection_61">
    <g clip-path="url(#pf9aa182003)">
     <use xlink:href="#m226fe3f3d0" x="295.987678" y="229.189206" style="fill: #ffb482; fill-opacity: 0.7; stroke: #ffb482; stroke-opacity: 0.7"/>
    </g>
   </g>
   <g id="PathCollection_62">
    <g clip-path="url(#pf9aa182003)">
     <use xlink:href="#mffdebbf833" x="303.133113" y="513.458141" style="fill: #a1c9f4; fill-opacity: 0.7; stroke: #a1c9f4; stroke-opacity: 0.7"/>
    </g>
   </g>
   <g id="PathCollection_63">
    <g clip-path="url(#pf9aa182003)">
     <use xlink:href="#mffdebbf833" x="393.286105" y="425.717744" style="fill: #a1c9f4; fill-opacity: 0.7; stroke: #a1c9f4; stroke-opacity: 0.7"/>
    </g>
   </g>
   <g id="PathCollection_64">
    <g clip-path="url(#pf9aa182003)">
     <use xlink:href="#mffdebbf833" x="101.084613" y="417.652968" style="fill: #a1c9f4; fill-opacity: 0.7; stroke: #a1c9f4; stroke-opacity: 0.7"/>
    </g>
   </g>
   <g id="PathCollection_65">
    <g clip-path="url(#pf9aa182003)">
     <use xlink:href="#mffdebbf833" x="166.338479" y="442.93995" style="fill: #a1c9f4; fill-opacity: 0.7; stroke: #a1c9f4; stroke-opacity: 0.7"/>
    </g>
   </g>
   <g id="PathCollection_66">
    <g clip-path="url(#pf9aa182003)">
     <use xlink:href="#m226fe3f3d0" x="165.394862" y="158.268553" style="fill: #ffb482; fill-opacity: 0.7; stroke: #ffb482; stroke-opacity: 0.7"/>
    </g>
   </g>
   <g id="PathCollection_67">
    <g clip-path="url(#pf9aa182003)">
     <use xlink:href="#m226fe3f3d0" x="145.52003" y="333.06595" style="fill: #ffb482; fill-opacity: 0.7; stroke: #ffb482; stroke-opacity: 0.7"/>
    </g>
   </g>
   <g id="PathCollection_68">
    <g clip-path="url(#pf9aa182003)">
     <use xlink:href="#mffdebbf833" x="224.754681" y="434.595319" style="fill: #a1c9f4; fill-opacity: 0.7; stroke: #a1c9f4; stroke-opacity: 0.7"/>
    </g>
   </g>
   <g id="PathCollection_69">
    <g clip-path="url(#pf9aa182003)">
     <use xlink:href="#m226fe3f3d0" x="208.785614" y="257.854129" style="fill: #ffb482; fill-opacity: 0.7; stroke: #ffb482; stroke-opacity: 0.7"/>
    </g>
   </g>
   <g id="PathCollection_70">
    <g clip-path="url(#pf9aa182003)">
     <use xlink:href="#m226fe3f3d0" x="131.002365" y="303.518516" style="fill: #ffb482; fill-opacity: 0.7; stroke: #ffb482; stroke-opacity: 0.7"/>
    </g>
   </g>
   <g id="PathCollection_71">
    <g clip-path="url(#pf9aa182003)">
     <use xlink:href="#mffdebbf833" x="306.209382" y="444.391387" style="fill: #a1c9f4; fill-opacity: 0.7; stroke: #a1c9f4; stroke-opacity: 0.7"/>
    </g>
   </g>
   <g id="PathCollection_72">
    <g clip-path="url(#pf9aa182003)">
     <use xlink:href="#m226fe3f3d0" x="365.41089" y="244.789885" style="fill: #ffb482; fill-opacity: 0.7; stroke: #ffb482; stroke-opacity: 0.7"/>
    </g>
   </g>
   <g id="PathCollection_73">
    <g clip-path="url(#pf9aa182003)">
     <use xlink:href="#m226fe3f3d0" x="317.643085" y="267.294258" style="fill: #ffb482; fill-opacity: 0.7; stroke: #ffb482; stroke-opacity: 0.7"/>
    </g>
   </g>
   <g id="PathCollection_74">
    <g clip-path="url(#pf9aa182003)">
     <use xlink:href="#m226fe3f3d0" x="377.899149" y="355.039484" style="fill: #ffb482; fill-opacity: 0.7; stroke: #ffb482; stroke-opacity: 0.7"/>
    </g>
   </g>
   <g id="PathCollection_75">
    <g clip-path="url(#pf9aa182003)">
     <use xlink:href="#m226fe3f3d0" x="90.249506" y="460.567408" style="fill: #ffb482; fill-opacity: 0.7; stroke: #ffb482; stroke-opacity: 0.7"/>
    </g>
   </g>
   <g id="PathCollection_76">
    <g clip-path="url(#pf9aa182003)">
     <use xlink:href="#mffdebbf833" x="435.684596" y="446.389244" style="fill: #a1c9f4; fill-opacity: 0.7; stroke: #a1c9f4; stroke-opacity: 0.7"/>
    </g>
   </g>
   <g id="PathCollection_77">
    <g clip-path="url(#pf9aa182003)">
     <use xlink:href="#m226fe3f3d0" x="353.528689" y="272.833183" style="fill: #ffb482; fill-opacity: 0.7; stroke: #ffb482; stroke-opacity: 0.7"/>
    </g>
   </g>
   <g id="PathCollection_78">
    <g clip-path="url(#pf9aa182003)">
     <use xlink:href="#mffdebbf833" x="85.292019" y="409.848436" style="fill: #a1c9f4; fill-opacity: 0.7; stroke: #a1c9f4; stroke-opacity: 0.7"/>
    </g>
   </g>
   <g id="PathCollection_79">
    <g clip-path="url(#pf9aa182003)">
     <use xlink:href="#mffdebbf833" x="228.743333" y="512.941133" style="fill: #a1c9f4; fill-opacity: 0.7; stroke: #a1c9f4; stroke-opacity: 0.7"/>
    </g>
   </g>
   <g id="PathCollection_80">
    <g clip-path="url(#pf9aa182003)">
     <use xlink:href="#mffdebbf833" x="352.669462" y="457.400862" style="fill: #a1c9f4; fill-opacity: 0.7; stroke: #a1c9f4; stroke-opacity: 0.7"/>
    </g>
   </g>
   <g id="PathCollection_81">
    <g clip-path="url(#pf9aa182003)">
     <use xlink:href="#m226fe3f3d0" x="158.05913" y="279.636417" style="fill: #ffb482; fill-opacity: 0.7; stroke: #ffb482; stroke-opacity: 0.7"/>
    </g>
   </g>
   <g id="PathCollection_82">
    <g clip-path="url(#pf9aa182003)">
     <use xlink:href="#mffdebbf833" x="255.070378" y="526.271949" style="fill: #a1c9f4; fill-opacity: 0.7; stroke: #a1c9f4; stroke-opacity: 0.7"/>
    </g>
   </g>
   <g id="PathCollection_83">
    <g clip-path="url(#pf9aa182003)">
     <use xlink:href="#mffdebbf833" x="387.398478" y="508.468908" style="fill: #a1c9f4; fill-opacity: 0.7; stroke: #a1c9f4; stroke-opacity: 0.7"/>
    </g>
   </g>
   <g id="PathCollection_84">
    <g clip-path="url(#pf9aa182003)">
     <use xlink:href="#mffdebbf833" x="420.85592" y="473.353688" style="fill: #a1c9f4; fill-opacity: 0.7; stroke: #a1c9f4; stroke-opacity: 0.7"/>
    </g>
   </g>
   <g id="PathCollection_85">
    <g clip-path="url(#pf9aa182003)">
     <use xlink:href="#m226fe3f3d0" x="191.646598" y="175.219654" style="fill: #ffb482; fill-opacity: 0.7; stroke: #ffb482; stroke-opacity: 0.7"/>
    </g>
   </g>
   <g id="PathCollection_86">
    <g clip-path="url(#pf9aa182003)">
     <use xlink:href="#mffdebbf833" x="254.313009" y="461.624732" style="fill: #a1c9f4; fill-opacity: 0.7; stroke: #a1c9f4; stroke-opacity: 0.7"/>
    </g>
   </g>
   <g id="PathCollection_87">
    <g clip-path="url(#pf9aa182003)">
     <use xlink:href="#mffdebbf833" x="437.178048" y="410.969534" style="fill: #a1c9f4; fill-opacity: 0.7; stroke: #a1c9f4; stroke-opacity: 0.7"/>
    </g>
   </g>
   <g id="PathCollection_88">
    <g clip-path="url(#pf9aa182003)">
     <use xlink:href="#mffdebbf833" x="330.296943" y="392.165789" style="fill: #a1c9f4; fill-opacity: 0.7; stroke: #a1c9f4; stroke-opacity: 0.7"/>
    </g>
   </g>
   <g id="PathCollection_89">
    <g clip-path="url(#pf9aa182003)">
     <use xlink:href="#m226fe3f3d0" x="370.243383" y="204.045786" style="fill: #ffb482; fill-opacity: 0.7; stroke: #ffb482; stroke-opacity: 0.7"/>
    </g>
   </g>
   <g id="PathCollection_90">
    <g clip-path="url(#pf9aa182003)">
     <use xlink:href="#m226fe3f3d0" x="250.113585" y="305.45902" style="fill: #ffb482; fill-opacity: 0.7; stroke: #ffb482; stroke-opacity: 0.7"/>
    </g>
   </g>
   <g id="PathCollection_91">
    <g clip-path="url(#pf9aa182003)">
     <use xlink:href="#mffdebbf833" x="361.611841" y="383.240551" style="fill: #a1c9f4; fill-opacity: 0.7; stroke: #a1c9f4; stroke-opacity: 0.7"/>
    </g>
   </g>
   <g id="PathCollection_92">
    <g clip-path="url(#pf9aa182003)">
     <use xlink:href="#m226fe3f3d0" x="135.562137" y="294.829747" style="fill: #ffb482; fill-opacity: 0.7; stroke: #ffb482; stroke-opacity: 0.7"/>
    </g>
   </g>
   <g id="PathCollection_93">
    <g clip-path="url(#pf9aa182003)">
     <use xlink:href="#mffdebbf833" x="375.904678" y="540.63775" style="fill: #a1c9f4; fill-opacity: 0.7; stroke: #a1c9f4; stroke-opacity: 0.7"/>
    </g>
   </g>
   <g id="PathCollection_94">
    <g clip-path="url(#pf9aa182003)">
     <use xlink:href="#m226fe3f3d0" x="171.273987" y="152.844811" style="fill: #ffb482; fill-opacity: 0.7; stroke: #ffb482; stroke-opacity: 0.7"/>
    </g>
   </g>
   <g id="PathCollection_95">
    <g clip-path="url(#pf9aa182003)">
     <use xlink:href="#m226fe3f3d0" x="222.597562" y="128.80172" style="fill: #ffb482; fill-opacity: 0.7; stroke: #ffb482; stroke-opacity: 0.7"/>
    </g>
   </g>
   <g id="PathCollection_96">
    <g clip-path="url(#pf9aa182003)">
     <use xlink:href="#m226fe3f3d0" x="192.797112" y="454.964182" style="fill: #ffb482; fill-opacity: 0.7; stroke: #ffb482; stroke-opacity: 0.7"/>
    </g>
   </g>
   <g id="PathCollection_97">
    <g clip-path="url(#pf9aa182003)">
     <use xlink:href="#m226fe3f3d0" x="334.049199" y="148.493836" style="fill: #ffb482; fill-opacity: 0.7; stroke: #ffb482; stroke-opacity: 0.7"/>
    </g>
   </g>
   <g id="PathCollection_98">
    <g clip-path="url(#pf9aa182003)">
     <use xlink:href="#m226fe3f3d0" x="205.201675" y="336.004474" style="fill: #ffb482; fill-opacity: 0.7; stroke: #ffb482; stroke-opacity: 0.7"/>
    </g>
   </g>
   <g id="PathCollection_99">
    <g clip-path="url(#pf9aa182003)">
     <use xlink:href="#mffdebbf833" x="170.06193" y="499.525799" style="fill: #a1c9f4; fill-opacity: 0.7; stroke: #a1c9f4; stroke-opacity: 0.7"/>
    </g>
   </g>
   <g id="PathCollection_100">
    <g clip-path="url(#pf9aa182003)">
     <use xlink:href="#m226fe3f3d0" x="416.909203" y="275.574911" style="fill: #ffb482; fill-opacity: 0.7; stroke: #ffb482; stroke-opacity: 0.7"/>
    </g>
   </g>
   <g id="PathCollection_101">
    <defs>
     <path id="m550b205715" d="M -3.535534 3.535534 
L 3.535534 -3.535534 
M -3.535534 -3.535534 
L 3.535534 3.535534 
" style="stroke: #000000; stroke-width: 1.5"/>
    </defs>
    <g clip-path="url(#pf9aa182003)">
     <use xlink:href="#m550b205715" x="301.678125" y="446.05735" style="stroke: #000000; stroke-width: 1.5"/>
    </g>
   </g>
   <g id="patch_2">
    <path d="M 301.633949 578.373682 
C 371.068943 578.385431 437.674061 564.455017 486.7803 539.650452 
C 535.886539 514.845887 563.484591 481.192354 563.496307 446.101653 
C 563.508022 411.010951 535.932444 377.348082 486.842774 352.526902 
C 437.753103 327.705721 371.157294 313.752768 301.722301 313.741019 
C 232.287307 313.72927 165.682189 327.659684 116.57595 352.464249 
C 67.469711 377.268814 39.871659 410.922347 39.859943 446.013048 
C 39.848228 481.103749 67.423806 514.766618 116.513476 539.587799 
C 165.603147 564.40898 232.198956 578.361933 301.633949 578.373682 
z
" clip-path="url(#pf9aa182003)" style="fill: #a1c9f4; opacity: 0.2; stroke: #7d7d7d; stroke-linejoin: miter"/>
   </g>
   <g id="PathCollection_102">
    <g clip-path="url(#pf9aa182003)">
     <use xlink:href="#m550b205715" x="264.007609" y="254.756954" style="stroke: #000000; stroke-width: 1.5"/>
    </g>
   </g>
   <g id="patch_3">
    <path d="M 227.709485 454.776591 
C 286.30314 460.165728 346.329438 444.259536 394.568283 410.561167 
C 442.807129 376.862798 475.320034 328.123576 484.946409 275.077749 
C 494.572784 222.031921 480.526678 169.010445 445.901582 127.690685 
C 411.276486 86.370925 358.899387 60.126456 300.305732 54.737318 
C 241.712078 49.34818 181.68578 65.254373 133.446934 98.952742 
C 85.208089 132.65111 52.695184 181.390332 43.068809 234.43616 
C 33.442434 287.481987 47.48854 340.503464 82.113636 381.823224 
C 116.738731 423.142984 169.115831 449.387453 227.709485 454.776591 
z
" clip-path="url(#pf9aa182003)" style="fill: #ffb482; opacity: 0.2; stroke: #7d7d7d; stroke-linejoin: miter"/>
   </g>
   <g id="matplotlib.axis_1">
    <g id="text_1">
     <!-- UMAP Dimension 1 -->
     <g transform="translate(254.333594 616.153937) scale(0.1 -0.1)">
      <defs>
       <path id="DejaVuSans-55" d="M 556 4666 
L 1191 4666 
L 1191 1831 
Q 1191 1081 1462 751 
Q 1734 422 2344 422 
Q 2950 422 3222 751 
Q 3494 1081 3494 1831 
L 3494 4666 
L 4128 4666 
L 4128 1753 
Q 4128 841 3676 375 
Q 3225 -91 2344 -91 
Q 1459 -91 1007 375 
Q 556 841 556 1753 
L 556 4666 
z
" transform="scale(0.015625)"/>
       <path id="DejaVuSans-4d" d="M 628 4666 
L 1569 4666 
L 2759 1491 
L 3956 4666 
L 4897 4666 
L 4897 0 
L 4281 0 
L 4281 4097 
L 3078 897 
L 2444 897 
L 1241 4097 
L 1241 0 
L 628 0 
L 628 4666 
z
" transform="scale(0.015625)"/>
       <path id="DejaVuSans-41" d="M 2188 4044 
L 1331 1722 
L 3047 1722 
L 2188 4044 
z
M 1831 4666 
L 2547 4666 
L 4325 0 
L 3669 0 
L 3244 1197 
L 1141 1197 
L 716 0 
L 50 0 
L 1831 4666 
z
" transform="scale(0.015625)"/>
       <path id="DejaVuSans-50" d="M 1259 4147 
L 1259 2394 
L 2053 2394 
Q 2494 2394 2734 2622 
Q 2975 2850 2975 3272 
Q 2975 3691 2734 3919 
Q 2494 4147 2053 4147 
L 1259 4147 
z
M 628 4666 
L 2053 4666 
Q 2838 4666 3239 4311 
Q 3641 3956 3641 3272 
Q 3641 2581 3239 2228 
Q 2838 1875 2053 1875 
L 1259 1875 
L 1259 0 
L 628 0 
L 628 4666 
z
" transform="scale(0.015625)"/>
       <path id="DejaVuSans-20" transform="scale(0.015625)"/>
       <path id="DejaVuSans-44" d="M 1259 4147 
L 1259 519 
L 2022 519 
Q 2988 519 3436 956 
Q 3884 1394 3884 2338 
Q 3884 3275 3436 3711 
Q 2988 4147 2022 4147 
L 1259 4147 
z
M 628 4666 
L 1925 4666 
Q 3281 4666 3915 4102 
Q 4550 3538 4550 2338 
Q 4550 1131 3912 565 
Q 3275 0 1925 0 
L 628 0 
L 628 4666 
z
" transform="scale(0.015625)"/>
       <path id="DejaVuSans-69" d="M 603 3500 
L 1178 3500 
L 1178 0 
L 603 0 
L 603 3500 
z
M 603 4863 
L 1178 4863 
L 1178 4134 
L 603 4134 
L 603 4863 
z
" transform="scale(0.015625)"/>
       <path id="DejaVuSans-6d" d="M 3328 2828 
Q 3544 3216 3844 3400 
Q 4144 3584 4550 3584 
Q 5097 3584 5394 3201 
Q 5691 2819 5691 2113 
L 5691 0 
L 5113 0 
L 5113 2094 
Q 5113 2597 4934 2840 
Q 4756 3084 4391 3084 
Q 3944 3084 3684 2787 
Q 3425 2491 3425 1978 
L 3425 0 
L 2847 0 
L 2847 2094 
Q 2847 2600 2669 2842 
Q 2491 3084 2119 3084 
Q 1678 3084 1418 2786 
Q 1159 2488 1159 1978 
L 1159 0 
L 581 0 
L 581 3500 
L 1159 3500 
L 1159 2956 
Q 1356 3278 1631 3431 
Q 1906 3584 2284 3584 
Q 2666 3584 2933 3390 
Q 3200 3197 3328 2828 
z
" transform="scale(0.015625)"/>
       <path id="DejaVuSans-65" d="M 3597 1894 
L 3597 1613 
L 953 1613 
Q 991 1019 1311 708 
Q 1631 397 2203 397 
Q 2534 397 2845 478 
Q 3156 559 3463 722 
L 3463 178 
Q 3153 47 2828 -22 
Q 2503 -91 2169 -91 
Q 1331 -91 842 396 
Q 353 884 353 1716 
Q 353 2575 817 3079 
Q 1281 3584 2069 3584 
Q 2775 3584 3186 3129 
Q 3597 2675 3597 1894 
z
M 3022 2063 
Q 3016 2534 2758 2815 
Q 2500 3097 2075 3097 
Q 1594 3097 1305 2825 
Q 1016 2553 972 2059 
L 3022 2063 
z
" transform="scale(0.015625)"/>
       <path id="DejaVuSans-6e" d="M 3513 2113 
L 3513 0 
L 2938 0 
L 2938 2094 
Q 2938 2591 2744 2837 
Q 2550 3084 2163 3084 
Q 1697 3084 1428 2787 
Q 1159 2491 1159 1978 
L 1159 0 
L 581 0 
L 581 3500 
L 1159 3500 
L 1159 2956 
Q 1366 3272 1645 3428 
Q 1925 3584 2291 3584 
Q 2894 3584 3203 3211 
Q 3513 2838 3513 2113 
z
" transform="scale(0.015625)"/>
       <path id="DejaVuSans-73" d="M 2834 3397 
L 2834 2853 
Q 2591 2978 2328 3040 
Q 2066 3103 1784 3103 
Q 1356 3103 1142 2972 
Q 928 2841 928 2578 
Q 928 2378 1081 2264 
Q 1234 2150 1697 2047 
L 1894 2003 
Q 2506 1872 2764 1633 
Q 3022 1394 3022 966 
Q 3022 478 2636 193 
Q 2250 -91 1575 -91 
Q 1294 -91 989 -36 
Q 684 19 347 128 
L 347 722 
Q 666 556 975 473 
Q 1284 391 1588 391 
Q 1994 391 2212 530 
Q 2431 669 2431 922 
Q 2431 1156 2273 1281 
Q 2116 1406 1581 1522 
L 1381 1569 
Q 847 1681 609 1914 
Q 372 2147 372 2553 
Q 372 3047 722 3315 
Q 1072 3584 1716 3584 
Q 2034 3584 2315 3537 
Q 2597 3491 2834 3397 
z
" transform="scale(0.015625)"/>
       <path id="DejaVuSans-6f" d="M 1959 3097 
Q 1497 3097 1228 2736 
Q 959 2375 959 1747 
Q 959 1119 1226 758 
Q 1494 397 1959 397 
Q 2419 397 2687 759 
Q 2956 1122 2956 1747 
Q 2956 2369 2687 2733 
Q 2419 3097 1959 3097 
z
M 1959 3584 
Q 2709 3584 3137 3096 
Q 3566 2609 3566 1747 
Q 3566 888 3137 398 
Q 2709 -91 1959 -91 
Q 1206 -91 779 398 
Q 353 888 353 1747 
Q 353 2609 779 3096 
Q 1206 3584 1959 3584 
z
" transform="scale(0.015625)"/>
       <path id="DejaVuSans-31" d="M 794 531 
L 1825 531 
L 1825 4091 
L 703 3866 
L 703 4441 
L 1819 4666 
L 2450 4666 
L 2450 531 
L 3481 531 
L 3481 0 
L 794 0 
L 794 531 
z
" transform="scale(0.015625)"/>
      </defs>
      <use xlink:href="#DejaVuSans-55"/>
      <use xlink:href="#DejaVuSans-4d" x="73.193359"/>
      <use xlink:href="#DejaVuSans-41" x="159.472656"/>
      <use xlink:href="#DejaVuSans-50" x="227.880859"/>
      <use xlink:href="#DejaVuSans-20" x="288.183594"/>
      <use xlink:href="#DejaVuSans-44" x="319.970703"/>
      <use xlink:href="#DejaVuSans-69" x="396.972656"/>
      <use xlink:href="#DejaVuSans-6d" x="424.755859"/>
      <use xlink:href="#DejaVuSans-65" x="522.167969"/>
      <use xlink:href="#DejaVuSans-6e" x="583.691406"/>
      <use xlink:href="#DejaVuSans-73" x="647.070312"/>
      <use xlink:href="#DejaVuSans-69" x="699.169922"/>
      <use xlink:href="#DejaVuSans-6f" x="726.953125"/>
      <use xlink:href="#DejaVuSans-6e" x="788.134766"/>
      <use xlink:href="#DejaVuSans-20" x="851.513672"/>
      <use xlink:href="#DejaVuSans-31" x="883.300781"/>
     </g>
    </g>
   </g>
   <g id="matplotlib.axis_2">
    <g id="text_2">
     <!-- UMAP Dimension 2 -->
     <g transform="translate(7.598437 363.900031) rotate(-90) scale(0.1 -0.1)">
      <defs>
       <path id="DejaVuSans-32" d="M 1228 531 
L 3431 531 
L 3431 0 
L 469 0 
L 469 531 
Q 828 903 1448 1529 
Q 2069 2156 2228 2338 
Q 2531 2678 2651 2914 
Q 2772 3150 2772 3378 
Q 2772 3750 2511 3984 
Q 2250 4219 1831 4219 
Q 1534 4219 1204 4116 
Q 875 4013 500 3803 
L 500 4441 
Q 881 4594 1212 4672 
Q 1544 4750 1819 4750 
Q 2544 4750 2975 4387 
Q 3406 4025 3406 3419 
Q 3406 3131 3298 2873 
Q 3191 2616 2906 2266 
Q 2828 2175 2409 1742 
Q 1991 1309 1228 531 
z
" transform="scale(0.015625)"/>
      </defs>
      <use xlink:href="#DejaVuSans-55"/>
      <use xlink:href="#DejaVuSans-4d" x="73.193359"/>
      <use xlink:href="#DejaVuSans-41" x="159.472656"/>
      <use xlink:href="#DejaVuSans-50" x="227.880859"/>
      <use xlink:href="#DejaVuSans-20" x="288.183594"/>
      <use xlink:href="#DejaVuSans-44" x="319.970703"/>
      <use xlink:href="#DejaVuSans-69" x="396.972656"/>
      <use xlink:href="#DejaVuSans-6d" x="424.755859"/>
      <use xlink:href="#DejaVuSans-65" x="522.167969"/>
      <use xlink:href="#DejaVuSans-6e" x="583.691406"/>
      <use xlink:href="#DejaVuSans-73" x="647.070312"/>
      <use xlink:href="#DejaVuSans-69" x="699.169922"/>
      <use xlink:href="#DejaVuSans-6f" x="726.953125"/>
      <use xlink:href="#DejaVuSans-6e" x="788.134766"/>
      <use xlink:href="#DejaVuSans-20" x="851.513672"/>
      <use xlink:href="#DejaVuSans-32" x="883.300781"/>
     </g>
    </g>
   </g>
   <g id="text_3">
    <!-- read -->
    <g transform="translate(301.678125 446.05735) scale(0.08 -0.08)">
     <defs>
      <path id="DejaVuSans-72" d="M 2631 2963 
Q 2534 3019 2420 3045 
Q 2306 3072 2169 3072 
Q 1681 3072 1420 2755 
Q 1159 2438 1159 1844 
L 1159 0 
L 581 0 
L 581 3500 
L 1159 3500 
L 1159 2956 
Q 1341 3275 1631 3429 
Q 1922 3584 2338 3584 
Q 2397 3584 2469 3576 
Q 2541 3569 2628 3553 
L 2631 2963 
z
" transform="scale(0.015625)"/>
      <path id="DejaVuSans-61" d="M 2194 1759 
Q 1497 1759 1228 1600 
Q 959 1441 959 1056 
Q 959 750 1161 570 
Q 1363 391 1709 391 
Q 2188 391 2477 730 
Q 2766 1069 2766 1631 
L 2766 1759 
L 2194 1759 
z
M 3341 1997 
L 3341 0 
L 2766 0 
L 2766 531 
Q 2569 213 2275 61 
Q 1981 -91 1556 -91 
Q 1019 -91 701 211 
Q 384 513 384 1019 
Q 384 1609 779 1909 
Q 1175 2209 1959 2209 
L 2766 2209 
L 2766 2266 
Q 2766 2663 2505 2880 
Q 2244 3097 1772 3097 
Q 1472 3097 1187 3025 
Q 903 2953 641 2809 
L 641 3341 
Q 956 3463 1253 3523 
Q 1550 3584 1831 3584 
Q 2591 3584 2966 3190 
Q 3341 2797 3341 1997 
z
" transform="scale(0.015625)"/>
      <path id="DejaVuSans-64" d="M 2906 2969 
L 2906 4863 
L 3481 4863 
L 3481 0 
L 2906 0 
L 2906 525 
Q 2725 213 2448 61 
Q 2172 -91 1784 -91 
Q 1150 -91 751 415 
Q 353 922 353 1747 
Q 353 2572 751 3078 
Q 1150 3584 1784 3584 
Q 2172 3584 2448 3432 
Q 2725 3281 2906 2969 
z
M 947 1747 
Q 947 1113 1208 752 
Q 1469 391 1925 391 
Q 2381 391 2643 752 
Q 2906 1113 2906 1747 
Q 2906 2381 2643 2742 
Q 2381 3103 1925 3103 
Q 1469 3103 1208 2742 
Q 947 2381 947 1747 
z
" transform="scale(0.015625)"/>
     </defs>
     <use xlink:href="#DejaVuSans-72"/>
     <use xlink:href="#DejaVuSans-65" x="38.863281"/>
     <use xlink:href="#DejaVuSans-61" x="100.386719"/>
     <use xlink:href="#DejaVuSans-64" x="161.666016"/>
    </g>
   </g>
   <g id="text_4">
    <!-- spon -->
    <g transform="translate(264.007609 254.756954) scale(0.08 -0.08)">
     <defs>
      <path id="DejaVuSans-70" d="M 1159 525 
L 1159 -1331 
L 581 -1331 
L 581 3500 
L 1159 3500 
L 1159 2969 
Q 1341 3281 1617 3432 
Q 1894 3584 2278 3584 
Q 2916 3584 3314 3078 
Q 3713 2572 3713 1747 
Q 3713 922 3314 415 
Q 2916 -91 2278 -91 
Q 1894 -91 1617 61 
Q 1341 213 1159 525 
z
M 3116 1747 
Q 3116 2381 2855 2742 
Q 2594 3103 2138 3103 
Q 1681 3103 1420 2742 
Q 1159 2381 1159 1747 
Q 1159 1113 1420 752 
Q 1681 391 2138 391 
Q 2594 391 2855 752 
Q 3116 1113 3116 1747 
z
" transform="scale(0.015625)"/>
     </defs>
     <use xlink:href="#DejaVuSans-73"/>
     <use xlink:href="#DejaVuSans-70" x="52.099609"/>
     <use xlink:href="#DejaVuSans-6f" x="115.576172"/>
     <use xlink:href="#DejaVuSans-6e" x="176.757812"/>
    </g>
   </g>
   <g id="text_5">
    <!-- LucyReadSpon  -->
    <g transform="translate(255.711563 9.118125) scale(0.12 -0.12)">
     <defs>
      <path id="DejaVuSans-4c" d="M 628 4666 
L 1259 4666 
L 1259 531 
L 3531 531 
L 3531 0 
L 628 0 
L 628 4666 
z
" transform="scale(0.015625)"/>
      <path id="DejaVuSans-75" d="M 544 1381 
L 544 3500 
L 1119 3500 
L 1119 1403 
Q 1119 906 1312 657 
Q 1506 409 1894 409 
Q 2359 409 2629 706 
Q 2900 1003 2900 1516 
L 2900 3500 
L 3475 3500 
L 3475 0 
L 2900 0 
L 2900 538 
Q 2691 219 2414 64 
Q 2138 -91 1772 -91 
Q 1169 -91 856 284 
Q 544 659 544 1381 
z
M 1991 3584 
L 1991 3584 
z
" transform="scale(0.015625)"/>
      <path id="DejaVuSans-63" d="M 3122 3366 
L 3122 2828 
Q 2878 2963 2633 3030 
Q 2388 3097 2138 3097 
Q 1578 3097 1268 2742 
Q 959 2388 959 1747 
Q 959 1106 1268 751 
Q 1578 397 2138 397 
Q 2388 397 2633 464 
Q 2878 531 3122 666 
L 3122 134 
Q 2881 22 2623 -34 
Q 2366 -91 2075 -91 
Q 1284 -91 818 406 
Q 353 903 353 1747 
Q 353 2603 823 3093 
Q 1294 3584 2113 3584 
Q 2378 3584 2631 3529 
Q 2884 3475 3122 3366 
z
" transform="scale(0.015625)"/>
      <path id="DejaVuSans-79" d="M 2059 -325 
Q 1816 -950 1584 -1140 
Q 1353 -1331 966 -1331 
L 506 -1331 
L 506 -850 
L 844 -850 
Q 1081 -850 1212 -737 
Q 1344 -625 1503 -206 
L 1606 56 
L 191 3500 
L 800 3500 
L 1894 763 
L 2988 3500 
L 3597 3500 
L 2059 -325 
z
" transform="scale(0.015625)"/>
      <path id="DejaVuSans-52" d="M 2841 2188 
Q 3044 2119 3236 1894 
Q 3428 1669 3622 1275 
L 4263 0 
L 3584 0 
L 2988 1197 
Q 2756 1666 2539 1819 
Q 2322 1972 1947 1972 
L 1259 1972 
L 1259 0 
L 628 0 
L 628 4666 
L 2053 4666 
Q 2853 4666 3247 4331 
Q 3641 3997 3641 3322 
Q 3641 2881 3436 2590 
Q 3231 2300 2841 2188 
z
M 1259 4147 
L 1259 2491 
L 2053 2491 
Q 2509 2491 2742 2702 
Q 2975 2913 2975 3322 
Q 2975 3731 2742 3939 
Q 2509 4147 2053 4147 
L 1259 4147 
z
" transform="scale(0.015625)"/>
      <path id="DejaVuSans-53" d="M 3425 4513 
L 3425 3897 
Q 3066 4069 2747 4153 
Q 2428 4238 2131 4238 
Q 1616 4238 1336 4038 
Q 1056 3838 1056 3469 
Q 1056 3159 1242 3001 
Q 1428 2844 1947 2747 
L 2328 2669 
Q 3034 2534 3370 2195 
Q 3706 1856 3706 1288 
Q 3706 609 3251 259 
Q 2797 -91 1919 -91 
Q 1588 -91 1214 -16 
Q 841 59 441 206 
L 441 856 
Q 825 641 1194 531 
Q 1563 422 1919 422 
Q 2459 422 2753 634 
Q 3047 847 3047 1241 
Q 3047 1584 2836 1778 
Q 2625 1972 2144 2069 
L 1759 2144 
Q 1053 2284 737 2584 
Q 422 2884 422 3419 
Q 422 4038 858 4394 
Q 1294 4750 2059 4750 
Q 2388 4750 2728 4690 
Q 3069 4631 3425 4513 
z
" transform="scale(0.015625)"/>
     </defs>
     <use xlink:href="#DejaVuSans-4c"/>
     <use xlink:href="#DejaVuSans-75" x="53.962891"/>
     <use xlink:href="#DejaVuSans-63" x="117.341797"/>
     <use xlink:href="#DejaVuSans-79" x="172.322266"/>
     <use xlink:href="#DejaVuSans-52" x="231.501953"/>
     <use xlink:href="#DejaVuSans-65" x="296.484375"/>
     <use xlink:href="#DejaVuSans-61" x="358.007812"/>
     <use xlink:href="#DejaVuSans-64" x="419.287109"/>
     <use xlink:href="#DejaVuSans-53" x="482.763672"/>
     <use xlink:href="#DejaVuSans-70" x="546.240234"/>
     <use xlink:href="#DejaVuSans-6f" x="609.716797"/>
     <use xlink:href="#DejaVuSans-6e" x="670.898438"/>
     <use xlink:href="#DejaVuSans-20" x="734.277344"/>
    </g>
    <!--  UMAP on wavlm embeddings;   -->
    <g transform="translate(206.745938 22.5555) scale(0.12 -0.12)">
     <defs>
      <path id="DejaVuSans-77" d="M 269 3500 
L 844 3500 
L 1563 769 
L 2278 3500 
L 2956 3500 
L 3675 769 
L 4391 3500 
L 4966 3500 
L 4050 0 
L 3372 0 
L 2619 2869 
L 1863 0 
L 1184 0 
L 269 3500 
z
" transform="scale(0.015625)"/>
      <path id="DejaVuSans-76" d="M 191 3500 
L 800 3500 
L 1894 563 
L 2988 3500 
L 3597 3500 
L 2284 0 
L 1503 0 
L 191 3500 
z
" transform="scale(0.015625)"/>
      <path id="DejaVuSans-6c" d="M 603 4863 
L 1178 4863 
L 1178 0 
L 603 0 
L 603 4863 
z
" transform="scale(0.015625)"/>
      <path id="DejaVuSans-62" d="M 3116 1747 
Q 3116 2381 2855 2742 
Q 2594 3103 2138 3103 
Q 1681 3103 1420 2742 
Q 1159 2381 1159 1747 
Q 1159 1113 1420 752 
Q 1681 391 2138 391 
Q 2594 391 2855 752 
Q 3116 1113 3116 1747 
z
M 1159 2969 
Q 1341 3281 1617 3432 
Q 1894 3584 2278 3584 
Q 2916 3584 3314 3078 
Q 3713 2572 3713 1747 
Q 3713 922 3314 415 
Q 2916 -91 2278 -91 
Q 1894 -91 1617 61 
Q 1341 213 1159 525 
L 1159 0 
L 581 0 
L 581 4863 
L 1159 4863 
L 1159 2969 
z
" transform="scale(0.015625)"/>
      <path id="DejaVuSans-67" d="M 2906 1791 
Q 2906 2416 2648 2759 
Q 2391 3103 1925 3103 
Q 1463 3103 1205 2759 
Q 947 2416 947 1791 
Q 947 1169 1205 825 
Q 1463 481 1925 481 
Q 2391 481 2648 825 
Q 2906 1169 2906 1791 
z
M 3481 434 
Q 3481 -459 3084 -895 
Q 2688 -1331 1869 -1331 
Q 1566 -1331 1297 -1286 
Q 1028 -1241 775 -1147 
L 775 -588 
Q 1028 -725 1275 -790 
Q 1522 -856 1778 -856 
Q 2344 -856 2625 -561 
Q 2906 -266 2906 331 
L 2906 616 
Q 2728 306 2450 153 
Q 2172 0 1784 0 
Q 1141 0 747 490 
Q 353 981 353 1791 
Q 353 2603 747 3093 
Q 1141 3584 1784 3584 
Q 2172 3584 2450 3431 
Q 2728 3278 2906 2969 
L 2906 3500 
L 3481 3500 
L 3481 434 
z
" transform="scale(0.015625)"/>
      <path id="DejaVuSans-3b" d="M 750 3309 
L 1409 3309 
L 1409 2516 
L 750 2516 
L 750 3309 
z
M 750 794 
L 1409 794 
L 1409 256 
L 897 -744 
L 494 -744 
L 750 256 
L 750 794 
z
" transform="scale(0.015625)"/>
     </defs>
     <use xlink:href="#DejaVuSans-20"/>
     <use xlink:href="#DejaVuSans-55" x="31.787109"/>
     <use xlink:href="#DejaVuSans-4d" x="104.980469"/>
     <use xlink:href="#DejaVuSans-41" x="191.259766"/>
     <use xlink:href="#DejaVuSans-50" x="259.667969"/>
     <use xlink:href="#DejaVuSans-20" x="319.970703"/>
     <use xlink:href="#DejaVuSans-6f" x="351.757812"/>
     <use xlink:href="#DejaVuSans-6e" x="412.939453"/>
     <use xlink:href="#DejaVuSans-20" x="476.318359"/>
     <use xlink:href="#DejaVuSans-77" x="508.105469"/>
     <use xlink:href="#DejaVuSans-61" x="589.892578"/>
     <use xlink:href="#DejaVuSans-76" x="651.171875"/>
     <use xlink:href="#DejaVuSans-6c" x="710.351562"/>
     <use xlink:href="#DejaVuSans-6d" x="738.134766"/>
     <use xlink:href="#DejaVuSans-20" x="835.546875"/>
     <use xlink:href="#DejaVuSans-65" x="867.333984"/>
     <use xlink:href="#DejaVuSans-6d" x="928.857422"/>
     <use xlink:href="#DejaVuSans-62" x="1026.269531"/>
     <use xlink:href="#DejaVuSans-65" x="1089.746094"/>
     <use xlink:href="#DejaVuSans-64" x="1151.269531"/>
     <use xlink:href="#DejaVuSans-64" x="1214.746094"/>
     <use xlink:href="#DejaVuSans-69" x="1278.222656"/>
     <use xlink:href="#DejaVuSans-6e" x="1306.005859"/>
     <use xlink:href="#DejaVuSans-67" x="1369.384766"/>
     <use xlink:href="#DejaVuSans-73" x="1432.861328"/>
     <use xlink:href="#DejaVuSans-3b" x="1484.960938"/>
     <use xlink:href="#DejaVuSans-20" x="1518.652344"/>
     <use xlink:href="#DejaVuSans-20" x="1550.439453"/>
    </g>
   </g>
   <g id="legend_1">
    <g id="patch_4">
     <path d="M 19.278125 600.5555 
L 120.501875 600.5555 
Q 122.101875 600.5555 122.101875 598.9555 
L 122.101875 588.013 
Q 122.101875 586.413 120.501875 586.413 
L 19.278125 586.413 
Q 17.678125 586.413 17.678125 588.013 
L 17.678125 598.9555 
Q 17.678125 600.5555 19.278125 600.5555 
z
" style="fill: #ffffff; opacity: 0.8; stroke: #cccccc; stroke-linejoin: miter"/>
    </g>
    <g id="patch_5">
     <path d="M 20.878125 595.69175 
L 36.878125 595.69175 
L 36.878125 590.09175 
L 20.878125 590.09175 
z
" style="fill: #a1c9f4; stroke: #a1c9f4; stroke-linejoin: miter"/>
    </g>
    <g id="text_6">
     <!-- read -->
     <g transform="translate(43.278125 595.69175) scale(0.08 -0.08)">
      <use xlink:href="#DejaVuSans-72"/>
      <use xlink:href="#DejaVuSans-65" x="38.863281"/>
      <use xlink:href="#DejaVuSans-61" x="100.386719"/>
      <use xlink:href="#DejaVuSans-64" x="161.666016"/>
     </g>
    </g>
    <g id="patch_6">
     <path d="M 77.290625 595.69175 
L 93.290625 595.69175 
L 93.290625 590.09175 
L 77.290625 590.09175 
z
" style="fill: #ffb482; stroke: #ffb482; stroke-linejoin: miter"/>
    </g>
    <g id="text_7">
     <!-- spon -->
     <g transform="translate(99.690625 595.69175) scale(0.08 -0.08)">
      <use xlink:href="#DejaVuSans-73"/>
      <use xlink:href="#DejaVuSans-70" x="52.099609"/>
      <use xlink:href="#DejaVuSans-6f" x="115.576172"/>
      <use xlink:href="#DejaVuSans-6e" x="176.757812"/>
     </g>
    </g>
   </g>
  </g>
 </g>
 <defs>
  <clipPath id="pf9aa182003">
   <rect x="13.678125" y="28.5555" width="576" height="576"/>
  </clipPath>
 </defs>
</svg>
