<?xml version="1.0" encoding="utf-8" standalone="no"?>
<!DOCTYPE svg PUBLIC "-//W3C//DTD SVG 1.1//EN"
  "http://www.w3.org/Graphics/SVG/1.1/DTD/svg11.dtd">
<svg xmlns:xlink="http://www.w3.org/1999/xlink" width="589.678125pt" height="604.79625pt" viewBox="0 0 589.678125 604.79625" xmlns="http://www.w3.org/2000/svg" version="1.1">
 <metadata>
  <rdf:RDF xmlns:dc="http://purl.org/dc/elements/1.1/" xmlns:cc="http://creativecommons.org/ns#" xmlns:rdf="http://www.w3.org/1999/02/22-rdf-syntax-ns#">
   <cc:Work>
    <dc:type rdf:resource="http://purl.org/dc/dcmitype/StillImage"/>
    <dc:date>2024-10-24T16:35:45.070876</dc:date>
    <dc:format>image/svg+xml</dc:format>
    <dc:creator>
     <cc:Agent>
      <dc:title>Matplotlib v3.9.2, https://matplotlib.org/</dc:title>
     </cc:Agent>
    </dc:creator>
   </cc:Work>
  </rdf:RDF>
 </metadata>
 <defs>
  <style type="text/css">*{stroke-linejoin: round; stroke-linecap: butt}</style>
 </defs>
 <g id="figure_1">
  <g id="patch_1">
   <path d="M 0 604.79625 
L 589.678125 604.79625 
L 589.678125 0 
L 0 0 
z
" style="fill: #ffffff"/>
  </g>
  <g id="axes_1">
   <g id="PathCollection_1">
    <defs>
     <path id="m2e8c79e0ac" d="M 0 5 
C 1.326016 5 2.597899 4.473168 3.535534 3.535534 
C 4.473168 2.597899 5 1.326016 5 0 
C 5 -1.326016 4.473168 -2.597899 3.535534 -3.535534 
C 2.597899 -4.473168 1.326016 -5 0 -5 
C -1.326016 -5 -2.597899 -4.473168 -3.535534 -3.535534 
C -4.473168 -2.597899 -5 -1.326016 -5 0 
C -5 1.326016 -4.473168 2.597899 -3.535534 3.535534 
C -2.597899 4.473168 -1.326016 5 0 5 
z
" style="stroke: #a1c9f4; stroke-opacity: 0.7"/>
    </defs>
    <g clip-path="url(#p8f541ca67d)">
     <use xlink:href="#m2e8c79e0ac" x="372.874478" y="337.557679" style="fill: #a1c9f4; fill-opacity: 0.7; stroke: #a1c9f4; stroke-opacity: 0.7"/>
    </g>
   </g>
   <g id="PathCollection_2">
    <g clip-path="url(#p8f541ca67d)">
     <use xlink:href="#m2e8c79e0ac" x="256.710963" y="340.430061" style="fill: #a1c9f4; fill-opacity: 0.7; stroke: #a1c9f4; stroke-opacity: 0.7"/>
    </g>
   </g>
   <g id="PathCollection_3">
    <g clip-path="url(#p8f541ca67d)">
     <use xlink:href="#m2e8c79e0ac" x="377.777484" y="375.735486" style="fill: #a1c9f4; fill-opacity: 0.7; stroke: #a1c9f4; stroke-opacity: 0.7"/>
    </g>
   </g>
   <g id="PathCollection_4">
    <g clip-path="url(#p8f541ca67d)">
     <use xlink:href="#m2e8c79e0ac" x="210.704881" y="382.611582" style="fill: #a1c9f4; fill-opacity: 0.7; stroke: #a1c9f4; stroke-opacity: 0.7"/>
    </g>
   </g>
   <g id="PathCollection_5">
    <g clip-path="url(#p8f541ca67d)">
     <use xlink:href="#m2e8c79e0ac" x="507.965179" y="441.860652" style="fill: #a1c9f4; fill-opacity: 0.7; stroke: #a1c9f4; stroke-opacity: 0.7"/>
    </g>
   </g>
   <g id="PathCollection_6">
    <g clip-path="url(#p8f541ca67d)">
     <use xlink:href="#m2e8c79e0ac" x="186.134783" y="435.488074" style="fill: #a1c9f4; fill-opacity: 0.7; stroke: #a1c9f4; stroke-opacity: 0.7"/>
    </g>
   </g>
   <g id="PathCollection_7">
    <g clip-path="url(#p8f541ca67d)">
     <use xlink:href="#m2e8c79e0ac" x="334.933814" y="302.821058" style="fill: #a1c9f4; fill-opacity: 0.7; stroke: #a1c9f4; stroke-opacity: 0.7"/>
    </g>
   </g>
   <g id="PathCollection_8">
    <g clip-path="url(#p8f541ca67d)">
     <use xlink:href="#m2e8c79e0ac" x="264.561173" y="397.476822" style="fill: #a1c9f4; fill-opacity: 0.7; stroke: #a1c9f4; stroke-opacity: 0.7"/>
    </g>
   </g>
   <g id="PathCollection_9">
    <g clip-path="url(#p8f541ca67d)">
     <use xlink:href="#m2e8c79e0ac" x="296.784254" y="406.32008" style="fill: #a1c9f4; fill-opacity: 0.7; stroke: #a1c9f4; stroke-opacity: 0.7"/>
    </g>
   </g>
   <g id="PathCollection_10">
    <g clip-path="url(#p8f541ca67d)">
     <use xlink:href="#m2e8c79e0ac" x="279.709698" y="409.949486" style="fill: #a1c9f4; fill-opacity: 0.7; stroke: #a1c9f4; stroke-opacity: 0.7"/>
    </g>
   </g>
   <g id="PathCollection_11">
    <g clip-path="url(#p8f541ca67d)">
     <use xlink:href="#m2e8c79e0ac" x="283.834651" y="381.453594" style="fill: #a1c9f4; fill-opacity: 0.7; stroke: #a1c9f4; stroke-opacity: 0.7"/>
    </g>
   </g>
   <g id="PathCollection_12">
    <g clip-path="url(#p8f541ca67d)">
     <use xlink:href="#m2e8c79e0ac" x="563.496307" y="41.299943" style="fill: #a1c9f4; fill-opacity: 0.7; stroke: #a1c9f4; stroke-opacity: 0.7"/>
    </g>
   </g>
   <g id="PathCollection_13">
    <g clip-path="url(#p8f541ca67d)">
     <use xlink:href="#m2e8c79e0ac" x="247.306331" y="413.453566" style="fill: #a1c9f4; fill-opacity: 0.7; stroke: #a1c9f4; stroke-opacity: 0.7"/>
    </g>
   </g>
   <g id="PathCollection_14">
    <g clip-path="url(#p8f541ca67d)">
     <use xlink:href="#m2e8c79e0ac" x="413.386079" y="444.971485" style="fill: #a1c9f4; fill-opacity: 0.7; stroke: #a1c9f4; stroke-opacity: 0.7"/>
    </g>
   </g>
   <g id="PathCollection_15">
    <g clip-path="url(#p8f541ca67d)">
     <use xlink:href="#m2e8c79e0ac" x="389.593679" y="290.311845" style="fill: #a1c9f4; fill-opacity: 0.7; stroke: #a1c9f4; stroke-opacity: 0.7"/>
    </g>
   </g>
   <g id="PathCollection_16">
    <g clip-path="url(#p8f541ca67d)">
     <use xlink:href="#m2e8c79e0ac" x="382.735225" y="410.634858" style="fill: #a1c9f4; fill-opacity: 0.7; stroke: #a1c9f4; stroke-opacity: 0.7"/>
    </g>
   </g>
   <g id="PathCollection_17">
    <g clip-path="url(#p8f541ca67d)">
     <use xlink:href="#m2e8c79e0ac" x="118.434575" y="330.260023" style="fill: #a1c9f4; fill-opacity: 0.7; stroke: #a1c9f4; stroke-opacity: 0.7"/>
    </g>
   </g>
   <g id="PathCollection_18">
    <g clip-path="url(#p8f541ca67d)">
     <use xlink:href="#m2e8c79e0ac" x="200.570382" y="221.1936" style="fill: #a1c9f4; fill-opacity: 0.7; stroke: #a1c9f4; stroke-opacity: 0.7"/>
    </g>
   </g>
   <g id="PathCollection_19">
    <g clip-path="url(#p8f541ca67d)">
     <use xlink:href="#m2e8c79e0ac" x="318.332034" y="435.961617" style="fill: #a1c9f4; fill-opacity: 0.7; stroke: #a1c9f4; stroke-opacity: 0.7"/>
    </g>
   </g>
   <g id="PathCollection_20">
    <g clip-path="url(#p8f541ca67d)">
     <use xlink:href="#m2e8c79e0ac" x="436.047635" y="404.374562" style="fill: #a1c9f4; fill-opacity: 0.7; stroke: #a1c9f4; stroke-opacity: 0.7"/>
    </g>
   </g>
   <g id="PathCollection_21">
    <g clip-path="url(#p8f541ca67d)">
     <use xlink:href="#m2e8c79e0ac" x="214.830406" y="194.434208" style="fill: #a1c9f4; fill-opacity: 0.7; stroke: #a1c9f4; stroke-opacity: 0.7"/>
    </g>
   </g>
   <g id="PathCollection_22">
    <g clip-path="url(#p8f541ca67d)">
     <use xlink:href="#m2e8c79e0ac" x="364.554429" y="298.470391" style="fill: #a1c9f4; fill-opacity: 0.7; stroke: #a1c9f4; stroke-opacity: 0.7"/>
    </g>
   </g>
   <g id="PathCollection_23">
    <g clip-path="url(#p8f541ca67d)">
     <use xlink:href="#m2e8c79e0ac" x="196.828681" y="366.96892" style="fill: #a1c9f4; fill-opacity: 0.7; stroke: #a1c9f4; stroke-opacity: 0.7"/>
    </g>
   </g>
   <g id="PathCollection_24">
    <g clip-path="url(#p8f541ca67d)">
     <use xlink:href="#m2e8c79e0ac" x="261.093322" y="316.803543" style="fill: #a1c9f4; fill-opacity: 0.7; stroke: #a1c9f4; stroke-opacity: 0.7"/>
    </g>
   </g>
   <g id="PathCollection_25">
    <g clip-path="url(#p8f541ca67d)">
     <use xlink:href="#m2e8c79e0ac" x="222.032825" y="440.130709" style="fill: #a1c9f4; fill-opacity: 0.7; stroke: #a1c9f4; stroke-opacity: 0.7"/>
    </g>
   </g>
   <g id="PathCollection_26">
    <g clip-path="url(#p8f541ca67d)">
     <use xlink:href="#m2e8c79e0ac" x="412.086595" y="420.037627" style="fill: #a1c9f4; fill-opacity: 0.7; stroke: #a1c9f4; stroke-opacity: 0.7"/>
    </g>
   </g>
   <g id="PathCollection_27">
    <g clip-path="url(#p8f541ca67d)">
     <use xlink:href="#m2e8c79e0ac" x="461.642633" y="218.572452" style="fill: #a1c9f4; fill-opacity: 0.7; stroke: #a1c9f4; stroke-opacity: 0.7"/>
    </g>
   </g>
   <g id="PathCollection_28">
    <g clip-path="url(#p8f541ca67d)">
     <use xlink:href="#m2e8c79e0ac" x="374.415305" y="424.335641" style="fill: #a1c9f4; fill-opacity: 0.7; stroke: #a1c9f4; stroke-opacity: 0.7"/>
    </g>
   </g>
   <g id="PathCollection_29">
    <g clip-path="url(#p8f541ca67d)">
     <use xlink:href="#m2e8c79e0ac" x="326.236028" y="446.541312" style="fill: #a1c9f4; fill-opacity: 0.7; stroke: #a1c9f4; stroke-opacity: 0.7"/>
    </g>
   </g>
   <g id="PathCollection_30">
    <g clip-path="url(#p8f541ca67d)">
     <use xlink:href="#m2e8c79e0ac" x="269.274753" y="395.2981" style="fill: #a1c9f4; fill-opacity: 0.7; stroke: #a1c9f4; stroke-opacity: 0.7"/>
    </g>
   </g>
   <g id="PathCollection_31">
    <g clip-path="url(#p8f541ca67d)">
     <use xlink:href="#m2e8c79e0ac" x="350.898572" y="335.602552" style="fill: #a1c9f4; fill-opacity: 0.7; stroke: #a1c9f4; stroke-opacity: 0.7"/>
    </g>
   </g>
   <g id="PathCollection_32">
    <g clip-path="url(#p8f541ca67d)">
     <use xlink:href="#m2e8c79e0ac" x="459.679556" y="380.186212" style="fill: #a1c9f4; fill-opacity: 0.7; stroke: #a1c9f4; stroke-opacity: 0.7"/>
    </g>
   </g>
   <g id="PathCollection_33">
    <g clip-path="url(#p8f541ca67d)">
     <use xlink:href="#m2e8c79e0ac" x="106.459283" y="308.983802" style="fill: #a1c9f4; fill-opacity: 0.7; stroke: #a1c9f4; stroke-opacity: 0.7"/>
    </g>
   </g>
   <g id="PathCollection_34">
    <g clip-path="url(#p8f541ca67d)">
     <use xlink:href="#m2e8c79e0ac" x="188.672795" y="275.168195" style="fill: #a1c9f4; fill-opacity: 0.7; stroke: #a1c9f4; stroke-opacity: 0.7"/>
    </g>
   </g>
   <g id="PathCollection_35">
    <g clip-path="url(#p8f541ca67d)">
     <use xlink:href="#m2e8c79e0ac" x="271.337191" y="482.586658" style="fill: #a1c9f4; fill-opacity: 0.7; stroke: #a1c9f4; stroke-opacity: 0.7"/>
    </g>
   </g>
   <g id="PathCollection_36">
    <g clip-path="url(#p8f541ca67d)">
     <use xlink:href="#m2e8c79e0ac" x="54.944358" y="309.284154" style="fill: #a1c9f4; fill-opacity: 0.7; stroke: #a1c9f4; stroke-opacity: 0.7"/>
    </g>
   </g>
   <g id="PathCollection_37">
    <g clip-path="url(#p8f541ca67d)">
     <use xlink:href="#m2e8c79e0ac" x="141.140044" y="315.126334" style="fill: #a1c9f4; fill-opacity: 0.7; stroke: #a1c9f4; stroke-opacity: 0.7"/>
    </g>
   </g>
   <g id="PathCollection_38">
    <g clip-path="url(#p8f541ca67d)">
     <use xlink:href="#m2e8c79e0ac" x="467.487202" y="465.085386" style="fill: #a1c9f4; fill-opacity: 0.7; stroke: #a1c9f4; stroke-opacity: 0.7"/>
    </g>
   </g>
   <g id="PathCollection_39">
    <g clip-path="url(#p8f541ca67d)">
     <use xlink:href="#m2e8c79e0ac" x="294.536901" y="382.373858" style="fill: #a1c9f4; fill-opacity: 0.7; stroke: #a1c9f4; stroke-opacity: 0.7"/>
    </g>
   </g>
   <g id="PathCollection_40">
    <g clip-path="url(#p8f541ca67d)">
     <use xlink:href="#m2e8c79e0ac" x="269.38594" y="311.549308" style="fill: #a1c9f4; fill-opacity: 0.7; stroke: #a1c9f4; stroke-opacity: 0.7"/>
    </g>
   </g>
   <g id="PathCollection_41">
    <g clip-path="url(#p8f541ca67d)">
     <use xlink:href="#m2e8c79e0ac" x="228.900181" y="409.789952" style="fill: #a1c9f4; fill-opacity: 0.7; stroke: #a1c9f4; stroke-opacity: 0.7"/>
    </g>
   </g>
   <g id="PathCollection_42">
    <g clip-path="url(#p8f541ca67d)">
     <use xlink:href="#m2e8c79e0ac" x="422.810499" y="422.699914" style="fill: #a1c9f4; fill-opacity: 0.7; stroke: #a1c9f4; stroke-opacity: 0.7"/>
    </g>
   </g>
   <g id="PathCollection_43">
    <g clip-path="url(#p8f541ca67d)">
     <use xlink:href="#m2e8c79e0ac" x="256.201787" y="422.916323" style="fill: #a1c9f4; fill-opacity: 0.7; stroke: #a1c9f4; stroke-opacity: 0.7"/>
    </g>
   </g>
   <g id="PathCollection_44">
    <g clip-path="url(#p8f541ca67d)">
     <use xlink:href="#m2e8c79e0ac" x="298.296645" y="321.527395" style="fill: #a1c9f4; fill-opacity: 0.7; stroke: #a1c9f4; stroke-opacity: 0.7"/>
    </g>
   </g>
   <g id="PathCollection_45">
    <g clip-path="url(#p8f541ca67d)">
     <use xlink:href="#m2e8c79e0ac" x="233.877598" y="348.544644" style="fill: #a1c9f4; fill-opacity: 0.7; stroke: #a1c9f4; stroke-opacity: 0.7"/>
    </g>
   </g>
   <g id="PathCollection_46">
    <g clip-path="url(#p8f541ca67d)">
     <use xlink:href="#m2e8c79e0ac" x="287.472451" y="360.404971" style="fill: #a1c9f4; fill-opacity: 0.7; stroke: #a1c9f4; stroke-opacity: 0.7"/>
    </g>
   </g>
   <g id="PathCollection_47">
    <g clip-path="url(#p8f541ca67d)">
     <use xlink:href="#m2e8c79e0ac" x="258.104661" y="371.092593" style="fill: #a1c9f4; fill-opacity: 0.7; stroke: #a1c9f4; stroke-opacity: 0.7"/>
    </g>
   </g>
   <g id="PathCollection_48">
    <g clip-path="url(#p8f541ca67d)">
     <use xlink:href="#m2e8c79e0ac" x="244.235489" y="404.678065" style="fill: #a1c9f4; fill-opacity: 0.7; stroke: #a1c9f4; stroke-opacity: 0.7"/>
    </g>
   </g>
   <g id="PathCollection_49">
    <g clip-path="url(#p8f541ca67d)">
     <use xlink:href="#m2e8c79e0ac" x="290.203872" y="184.897956" style="fill: #a1c9f4; fill-opacity: 0.7; stroke: #a1c9f4; stroke-opacity: 0.7"/>
    </g>
   </g>
   <g id="PathCollection_50">
    <g clip-path="url(#p8f541ca67d)">
     <use xlink:href="#m2e8c79e0ac" x="310.770741" y="469.150589" style="fill: #a1c9f4; fill-opacity: 0.7; stroke: #a1c9f4; stroke-opacity: 0.7"/>
    </g>
   </g>
   <g id="PathCollection_51">
    <g clip-path="url(#p8f541ca67d)">
     <use xlink:href="#m2e8c79e0ac" x="191.621565" y="384.499017" style="fill: #a1c9f4; fill-opacity: 0.7; stroke: #a1c9f4; stroke-opacity: 0.7"/>
    </g>
   </g>
   <g id="PathCollection_52">
    <defs>
     <path id="me0183d27b6" d="M -3.535534 3.535534 
L 3.535534 -3.535534 
M -3.535534 -3.535534 
L 3.535534 3.535534 
" style="stroke: #000000; stroke-width: 1.5"/>
    </defs>
    <g clip-path="url(#p8f541ca67d)">
     <use xlink:href="#me0183d27b6" x="297.488743" y="360.625625" style="stroke: #000000; stroke-width: 1.5"/>
    </g>
   </g>
   <g id="patch_2">
    <path d="M 297.488743 564.936307 
C 365.8127 564.936307 431.347482 543.408844 479.659815 505.095093 
C 527.972148 466.781342 555.117544 414.809451 555.117544 360.625625 
C 555.117544 306.441798 527.972148 254.469907 479.659815 216.156156 
C 431.347482 177.842405 365.8127 156.314942 297.488743 156.314942 
C 229.164787 156.314942 163.630005 177.842405 115.317672 216.156156 
C 67.005339 254.469907 39.859943 306.441798 39.859943 360.625625 
C 39.859943 414.809451 67.005339 466.781342 115.317672 505.095093 
C 163.630005 543.408844 229.164787 564.936307 297.488743 564.936307 
z
" clip-path="url(#p8f541ca67d)" style="fill: #a1c9f4; opacity: 0.2; stroke: #7d7d7d; stroke-linejoin: miter"/>
   </g>
   <g id="PathCollection_53">
    <defs>
     <path id="C0_0_8b56080be5" d="M 0 3.535534 
C 0.937635 3.535534 1.836992 3.163008 2.5 2.5 
C 3.163008 1.836992 3.535534 0.937635 3.535534 -0 
C 3.535534 -0.937635 3.163008 -1.836992 2.5 -2.5 
C 1.836992 -3.163008 0.937635 -3.535534 0 -3.535534 
C -0.937635 -3.535534 -1.836992 -3.163008 -2.5 -2.5 
C -3.163008 -1.836992 -3.535534 -0.937635 -3.535534 0 
C -3.535534 0.937635 -3.163008 1.836992 -2.5 2.5 
C -1.836992 3.163008 -0.937635 3.535534 0 3.535534 
z
"/>
    </defs>
    <g clip-path="url(#p8f541ca67d)">
     <use xlink:href="#C0_0_8b56080be5" x="372.874478" y="337.557679" style="fill: #fde725; stroke: #fde725"/>
    </g>
    <g clip-path="url(#p8f541ca67d)">
     <use xlink:href="#C0_0_8b56080be5" x="256.710963" y="340.430061" style="fill: #440154; stroke: #440154"/>
    </g>
    <g clip-path="url(#p8f541ca67d)">
     <use xlink:href="#C0_0_8b56080be5" x="377.777484" y="375.735486" style="fill: #fde725; stroke: #fde725"/>
    </g>
    <g clip-path="url(#p8f541ca67d)">
     <use xlink:href="#C0_0_8b56080be5" x="210.704881" y="382.611582" style="fill: #31688e; stroke: #31688e"/>
    </g>
    <g clip-path="url(#p8f541ca67d)">
     <use xlink:href="#C0_0_8b56080be5" x="507.965179" y="441.860652" style="fill: #fde725; stroke: #fde725"/>
    </g>
    <g clip-path="url(#p8f541ca67d)">
     <use xlink:href="#C0_0_8b56080be5" x="186.134783" y="435.488074" style="fill: #31688e; stroke: #31688e"/>
    </g>
    <g clip-path="url(#p8f541ca67d)">
     <use xlink:href="#C0_0_8b56080be5" x="334.933814" y="302.821058" style="fill: #440154; stroke: #440154"/>
    </g>
    <g clip-path="url(#p8f541ca67d)">
     <use xlink:href="#C0_0_8b56080be5" x="264.561173" y="397.476822" style="fill: #31688e; stroke: #31688e"/>
    </g>
    <g clip-path="url(#p8f541ca67d)">
     <use xlink:href="#C0_0_8b56080be5" x="296.784254" y="406.32008" style="fill: #31688e; stroke: #31688e"/>
    </g>
    <g clip-path="url(#p8f541ca67d)">
     <use xlink:href="#C0_0_8b56080be5" x="279.709698" y="409.949486" style="fill: #31688e; stroke: #31688e"/>
    </g>
    <g clip-path="url(#p8f541ca67d)">
     <use xlink:href="#C0_0_8b56080be5" x="283.834651" y="381.453594" style="fill: #31688e; stroke: #31688e"/>
    </g>
    <g clip-path="url(#p8f541ca67d)">
     <use xlink:href="#C0_0_8b56080be5" x="563.496307" y="41.299943" style="fill: #fde725; stroke: #fde725"/>
    </g>
    <g clip-path="url(#p8f541ca67d)">
     <use xlink:href="#C0_0_8b56080be5" x="247.306331" y="413.453566" style="fill: #31688e; stroke: #31688e"/>
    </g>
    <g clip-path="url(#p8f541ca67d)">
     <use xlink:href="#C0_0_8b56080be5" x="413.386079" y="444.971485" style="fill: #fde725; stroke: #fde725"/>
    </g>
    <g clip-path="url(#p8f541ca67d)">
     <use xlink:href="#C0_0_8b56080be5" x="389.593679" y="290.311845" style="fill: #fde725; stroke: #fde725"/>
    </g>
    <g clip-path="url(#p8f541ca67d)">
     <use xlink:href="#C0_0_8b56080be5" x="382.735225" y="410.634858" style="fill: #fde725; stroke: #fde725"/>
    </g>
    <g clip-path="url(#p8f541ca67d)">
     <use xlink:href="#C0_0_8b56080be5" x="118.434575" y="330.260023" style="fill: #35b779; stroke: #35b779"/>
    </g>
    <g clip-path="url(#p8f541ca67d)">
     <use xlink:href="#C0_0_8b56080be5" x="200.570382" y="221.1936" style="fill: #35b779; stroke: #35b779"/>
    </g>
    <g clip-path="url(#p8f541ca67d)">
     <use xlink:href="#C0_0_8b56080be5" x="318.332034" y="435.961617" style="fill: #31688e; stroke: #31688e"/>
    </g>
    <g clip-path="url(#p8f541ca67d)">
     <use xlink:href="#C0_0_8b56080be5" x="436.047635" y="404.374562" style="fill: #fde725; stroke: #fde725"/>
    </g>
    <g clip-path="url(#p8f541ca67d)">
     <use xlink:href="#C0_0_8b56080be5" x="214.830406" y="194.434208" style="fill: #35b779; stroke: #35b779"/>
    </g>
    <g clip-path="url(#p8f541ca67d)">
     <use xlink:href="#C0_0_8b56080be5" x="364.554429" y="298.470391" style="fill: #440154; stroke: #440154"/>
    </g>
    <g clip-path="url(#p8f541ca67d)">
     <use xlink:href="#C0_0_8b56080be5" x="196.828681" y="366.96892" style="fill: #31688e; stroke: #31688e"/>
    </g>
    <g clip-path="url(#p8f541ca67d)">
     <use xlink:href="#C0_0_8b56080be5" x="261.093322" y="316.803543" style="fill: #440154; stroke: #440154"/>
    </g>
    <g clip-path="url(#p8f541ca67d)">
     <use xlink:href="#C0_0_8b56080be5" x="222.032825" y="440.130709" style="fill: #31688e; stroke: #31688e"/>
    </g>
    <g clip-path="url(#p8f541ca67d)">
     <use xlink:href="#C0_0_8b56080be5" x="412.086595" y="420.037627" style="fill: #fde725; stroke: #fde725"/>
    </g>
    <g clip-path="url(#p8f541ca67d)">
     <use xlink:href="#C0_0_8b56080be5" x="461.642633" y="218.572452" style="fill: #fde725; stroke: #fde725"/>
    </g>
    <g clip-path="url(#p8f541ca67d)">
     <use xlink:href="#C0_0_8b56080be5" x="374.415305" y="424.335641" style="fill: #fde725; stroke: #fde725"/>
    </g>
    <g clip-path="url(#p8f541ca67d)">
     <use xlink:href="#C0_0_8b56080be5" x="326.236028" y="446.541312" style="fill: #31688e; stroke: #31688e"/>
    </g>
    <g clip-path="url(#p8f541ca67d)">
     <use xlink:href="#C0_0_8b56080be5" x="269.274753" y="395.2981" style="fill: #31688e; stroke: #31688e"/>
    </g>
    <g clip-path="url(#p8f541ca67d)">
     <use xlink:href="#C0_0_8b56080be5" x="350.898572" y="335.602552" style="fill: #440154; stroke: #440154"/>
    </g>
    <g clip-path="url(#p8f541ca67d)">
     <use xlink:href="#C0_0_8b56080be5" x="459.679556" y="380.186212" style="fill: #fde725; stroke: #fde725"/>
    </g>
    <g clip-path="url(#p8f541ca67d)">
     <use xlink:href="#C0_0_8b56080be5" x="106.459283" y="308.983802" style="fill: #35b779; stroke: #35b779"/>
    </g>
    <g clip-path="url(#p8f541ca67d)">
     <use xlink:href="#C0_0_8b56080be5" x="188.672795" y="275.168195" style="fill: #35b779; stroke: #35b779"/>
    </g>
    <g clip-path="url(#p8f541ca67d)">
     <use xlink:href="#C0_0_8b56080be5" x="271.337191" y="482.586658" style="fill: #31688e; stroke: #31688e"/>
    </g>
    <g clip-path="url(#p8f541ca67d)">
     <use xlink:href="#C0_0_8b56080be5" x="54.944358" y="309.284154" style="fill: #35b779; stroke: #35b779"/>
    </g>
    <g clip-path="url(#p8f541ca67d)">
     <use xlink:href="#C0_0_8b56080be5" x="141.140044" y="315.126334" style="fill: #35b779; stroke: #35b779"/>
    </g>
    <g clip-path="url(#p8f541ca67d)">
     <use xlink:href="#C0_0_8b56080be5" x="467.487202" y="465.085386" style="fill: #fde725; stroke: #fde725"/>
    </g>
    <g clip-path="url(#p8f541ca67d)">
     <use xlink:href="#C0_0_8b56080be5" x="294.536901" y="382.373858" style="fill: #31688e; stroke: #31688e"/>
    </g>
    <g clip-path="url(#p8f541ca67d)">
     <use xlink:href="#C0_0_8b56080be5" x="269.38594" y="311.549308" style="fill: #440154; stroke: #440154"/>
    </g>
    <g clip-path="url(#p8f541ca67d)">
     <use xlink:href="#C0_0_8b56080be5" x="228.900181" y="409.789952" style="fill: #31688e; stroke: #31688e"/>
    </g>
    <g clip-path="url(#p8f541ca67d)">
     <use xlink:href="#C0_0_8b56080be5" x="422.810499" y="422.699914" style="fill: #fde725; stroke: #fde725"/>
    </g>
    <g clip-path="url(#p8f541ca67d)">
     <use xlink:href="#C0_0_8b56080be5" x="256.201787" y="422.916323" style="fill: #31688e; stroke: #31688e"/>
    </g>
    <g clip-path="url(#p8f541ca67d)">
     <use xlink:href="#C0_0_8b56080be5" x="298.296645" y="321.527395" style="fill: #440154; stroke: #440154"/>
    </g>
    <g clip-path="url(#p8f541ca67d)">
     <use xlink:href="#C0_0_8b56080be5" x="233.877598" y="348.544644" style="fill: #31688e; stroke: #31688e"/>
    </g>
    <g clip-path="url(#p8f541ca67d)">
     <use xlink:href="#C0_0_8b56080be5" x="287.472451" y="360.404971" style="fill: #440154; stroke: #440154"/>
    </g>
    <g clip-path="url(#p8f541ca67d)">
     <use xlink:href="#C0_0_8b56080be5" x="258.104661" y="371.092593" style="fill: #31688e; stroke: #31688e"/>
    </g>
    <g clip-path="url(#p8f541ca67d)">
     <use xlink:href="#C0_0_8b56080be5" x="244.235489" y="404.678065" style="fill: #31688e; stroke: #31688e"/>
    </g>
    <g clip-path="url(#p8f541ca67d)">
     <use xlink:href="#C0_0_8b56080be5" x="290.203872" y="184.897956" style="fill: #440154; stroke: #440154"/>
    </g>
    <g clip-path="url(#p8f541ca67d)">
     <use xlink:href="#C0_0_8b56080be5" x="310.770741" y="469.150589" style="fill: #31688e; stroke: #31688e"/>
    </g>
    <g clip-path="url(#p8f541ca67d)">
     <use xlink:href="#C0_0_8b56080be5" x="191.621565" y="384.499017" style="fill: #31688e; stroke: #31688e"/>
    </g>
   </g>
   <g id="PathCollection_54">
    <defs>
     <path id="m3a40b8fa90" d="M -3.535534 7.071068 
L 0 3.535534 
L 3.535534 7.071068 
L 7.071068 3.535534 
L 3.535534 0 
L 7.071068 -3.535534 
L 3.535534 -7.071068 
L 0 -3.535534 
L -3.535534 -7.071068 
L -7.071068 -3.535534 
L -3.535534 0 
L -7.071068 3.535534 
z
" style="stroke: #ff0000"/>
    </defs>
    <g clip-path="url(#p8f541ca67d)">
     <use xlink:href="#m3a40b8fa90" x="301.505556" y="308.056359" style="fill: #ff0000; stroke: #ff0000"/>
     <use xlink:href="#m3a40b8fa90" x="256.729819" y="408.91836" style="fill: #ff0000; stroke: #ff0000"/>
     <use xlink:href="#m3a40b8fa90" x="146.435978" y="279.207188" style="fill: #ff0000; stroke: #ff0000"/>
     <use xlink:href="#m3a40b8fa90" x="431.571275" y="362.690267" style="fill: #ff0000; stroke: #ff0000"/>
    </g>
   </g>
   <g id="matplotlib.axis_1">
    <g id="text_1">
     <!-- PCA Dimension 1 -->
     <g transform="translate(258.815625 602.716562) scale(0.1 -0.1)">
      <defs>
       <path id="DejaVuSans-50" d="M 1259 4147 
L 1259 2394 
L 2053 2394 
Q 2494 2394 2734 2622 
Q 2975 2850 2975 3272 
Q 2975 3691 2734 3919 
Q 2494 4147 2053 4147 
L 1259 4147 
z
M 628 4666 
L 2053 4666 
Q 2838 4666 3239 4311 
Q 3641 3956 3641 3272 
Q 3641 2581 3239 2228 
Q 2838 1875 2053 1875 
L 1259 1875 
L 1259 0 
L 628 0 
L 628 4666 
z
" transform="scale(0.015625)"/>
       <path id="DejaVuSans-43" d="M 4122 4306 
L 4122 3641 
Q 3803 3938 3442 4084 
Q 3081 4231 2675 4231 
Q 1875 4231 1450 3742 
Q 1025 3253 1025 2328 
Q 1025 1406 1450 917 
Q 1875 428 2675 428 
Q 3081 428 3442 575 
Q 3803 722 4122 1019 
L 4122 359 
Q 3791 134 3420 21 
Q 3050 -91 2638 -91 
Q 1578 -91 968 557 
Q 359 1206 359 2328 
Q 359 3453 968 4101 
Q 1578 4750 2638 4750 
Q 3056 4750 3426 4639 
Q 3797 4528 4122 4306 
z
" transform="scale(0.015625)"/>
       <path id="DejaVuSans-41" d="M 2188 4044 
L 1331 1722 
L 3047 1722 
L 2188 4044 
z
M 1831 4666 
L 2547 4666 
L 4325 0 
L 3669 0 
L 3244 1197 
L 1141 1197 
L 716 0 
L 50 0 
L 1831 4666 
z
" transform="scale(0.015625)"/>
       <path id="DejaVuSans-20" transform="scale(0.015625)"/>
       <path id="DejaVuSans-44" d="M 1259 4147 
L 1259 519 
L 2022 519 
Q 2988 519 3436 956 
Q 3884 1394 3884 2338 
Q 3884 3275 3436 3711 
Q 2988 4147 2022 4147 
L 1259 4147 
z
M 628 4666 
L 1925 4666 
Q 3281 4666 3915 4102 
Q 4550 3538 4550 2338 
Q 4550 1131 3912 565 
Q 3275 0 1925 0 
L 628 0 
L 628 4666 
z
" transform="scale(0.015625)"/>
       <path id="DejaVuSans-69" d="M 603 3500 
L 1178 3500 
L 1178 0 
L 603 0 
L 603 3500 
z
M 603 4863 
L 1178 4863 
L 1178 4134 
L 603 4134 
L 603 4863 
z
" transform="scale(0.015625)"/>
       <path id="DejaVuSans-6d" d="M 3328 2828 
Q 3544 3216 3844 3400 
Q 4144 3584 4550 3584 
Q 5097 3584 5394 3201 
Q 5691 2819 5691 2113 
L 5691 0 
L 5113 0 
L 5113 2094 
Q 5113 2597 4934 2840 
Q 4756 3084 4391 3084 
Q 3944 3084 3684 2787 
Q 3425 2491 3425 1978 
L 3425 0 
L 2847 0 
L 2847 2094 
Q 2847 2600 2669 2842 
Q 2491 3084 2119 3084 
Q 1678 3084 1418 2786 
Q 1159 2488 1159 1978 
L 1159 0 
L 581 0 
L 581 3500 
L 1159 3500 
L 1159 2956 
Q 1356 3278 1631 3431 
Q 1906 3584 2284 3584 
Q 2666 3584 2933 3390 
Q 3200 3197 3328 2828 
z
" transform="scale(0.015625)"/>
       <path id="DejaVuSans-65" d="M 3597 1894 
L 3597 1613 
L 953 1613 
Q 991 1019 1311 708 
Q 1631 397 2203 397 
Q 2534 397 2845 478 
Q 3156 559 3463 722 
L 3463 178 
Q 3153 47 2828 -22 
Q 2503 -91 2169 -91 
Q 1331 -91 842 396 
Q 353 884 353 1716 
Q 353 2575 817 3079 
Q 1281 3584 2069 3584 
Q 2775 3584 3186 3129 
Q 3597 2675 3597 1894 
z
M 3022 2063 
Q 3016 2534 2758 2815 
Q 2500 3097 2075 3097 
Q 1594 3097 1305 2825 
Q 1016 2553 972 2059 
L 3022 2063 
z
" transform="scale(0.015625)"/>
       <path id="DejaVuSans-6e" d="M 3513 2113 
L 3513 0 
L 2938 0 
L 2938 2094 
Q 2938 2591 2744 2837 
Q 2550 3084 2163 3084 
Q 1697 3084 1428 2787 
Q 1159 2491 1159 1978 
L 1159 0 
L 581 0 
L 581 3500 
L 1159 3500 
L 1159 2956 
Q 1366 3272 1645 3428 
Q 1925 3584 2291 3584 
Q 2894 3584 3203 3211 
Q 3513 2838 3513 2113 
z
" transform="scale(0.015625)"/>
       <path id="DejaVuSans-73" d="M 2834 3397 
L 2834 2853 
Q 2591 2978 2328 3040 
Q 2066 3103 1784 3103 
Q 1356 3103 1142 2972 
Q 928 2841 928 2578 
Q 928 2378 1081 2264 
Q 1234 2150 1697 2047 
L 1894 2003 
Q 2506 1872 2764 1633 
Q 3022 1394 3022 966 
Q 3022 478 2636 193 
Q 2250 -91 1575 -91 
Q 1294 -91 989 -36 
Q 684 19 347 128 
L 347 722 
Q 666 556 975 473 
Q 1284 391 1588 391 
Q 1994 391 2212 530 
Q 2431 669 2431 922 
Q 2431 1156 2273 1281 
Q 2116 1406 1581 1522 
L 1381 1569 
Q 847 1681 609 1914 
Q 372 2147 372 2553 
Q 372 3047 722 3315 
Q 1072 3584 1716 3584 
Q 2034 3584 2315 3537 
Q 2597 3491 2834 3397 
z
" transform="scale(0.015625)"/>
       <path id="DejaVuSans-6f" d="M 1959 3097 
Q 1497 3097 1228 2736 
Q 959 2375 959 1747 
Q 959 1119 1226 758 
Q 1494 397 1959 397 
Q 2419 397 2687 759 
Q 2956 1122 2956 1747 
Q 2956 2369 2687 2733 
Q 2419 3097 1959 3097 
z
M 1959 3584 
Q 2709 3584 3137 3096 
Q 3566 2609 3566 1747 
Q 3566 888 3137 398 
Q 2709 -91 1959 -91 
Q 1206 -91 779 398 
Q 353 888 353 1747 
Q 353 2609 779 3096 
Q 1206 3584 1959 3584 
z
" transform="scale(0.015625)"/>
       <path id="DejaVuSans-31" d="M 794 531 
L 1825 531 
L 1825 4091 
L 703 3866 
L 703 4441 
L 1819 4666 
L 2450 4666 
L 2450 531 
L 3481 531 
L 3481 0 
L 794 0 
L 794 531 
z
" transform="scale(0.015625)"/>
      </defs>
      <use xlink:href="#DejaVuSans-50"/>
      <use xlink:href="#DejaVuSans-43" x="60.302734"/>
      <use xlink:href="#DejaVuSans-41" x="130.126953"/>
      <use xlink:href="#DejaVuSans-20" x="198.535156"/>
      <use xlink:href="#DejaVuSans-44" x="230.322266"/>
      <use xlink:href="#DejaVuSans-69" x="307.324219"/>
      <use xlink:href="#DejaVuSans-6d" x="335.107422"/>
      <use xlink:href="#DejaVuSans-65" x="432.519531"/>
      <use xlink:href="#DejaVuSans-6e" x="494.042969"/>
      <use xlink:href="#DejaVuSans-73" x="557.421875"/>
      <use xlink:href="#DejaVuSans-69" x="609.521484"/>
      <use xlink:href="#DejaVuSans-6f" x="637.304688"/>
      <use xlink:href="#DejaVuSans-6e" x="698.486328"/>
      <use xlink:href="#DejaVuSans-20" x="761.865234"/>
      <use xlink:href="#DejaVuSans-31" x="793.652344"/>
     </g>
    </g>
   </g>
   <g id="matplotlib.axis_2">
    <g id="text_2">
     <!-- PCA Dimension 2 -->
     <g transform="translate(7.598437 345.980625) rotate(-90) scale(0.1 -0.1)">
      <defs>
       <path id="DejaVuSans-32" d="M 1228 531 
L 3431 531 
L 3431 0 
L 469 0 
L 469 531 
Q 828 903 1448 1529 
Q 2069 2156 2228 2338 
Q 2531 2678 2651 2914 
Q 2772 3150 2772 3378 
Q 2772 3750 2511 3984 
Q 2250 4219 1831 4219 
Q 1534 4219 1204 4116 
Q 875 4013 500 3803 
L 500 4441 
Q 881 4594 1212 4672 
Q 1544 4750 1819 4750 
Q 2544 4750 2975 4387 
Q 3406 4025 3406 3419 
Q 3406 3131 3298 2873 
Q 3191 2616 2906 2266 
Q 2828 2175 2409 1742 
Q 1991 1309 1228 531 
z
" transform="scale(0.015625)"/>
      </defs>
      <use xlink:href="#DejaVuSans-50"/>
      <use xlink:href="#DejaVuSans-43" x="60.302734"/>
      <use xlink:href="#DejaVuSans-41" x="130.126953"/>
      <use xlink:href="#DejaVuSans-20" x="198.535156"/>
      <use xlink:href="#DejaVuSans-44" x="230.322266"/>
      <use xlink:href="#DejaVuSans-69" x="307.324219"/>
      <use xlink:href="#DejaVuSans-6d" x="335.107422"/>
      <use xlink:href="#DejaVuSans-65" x="432.519531"/>
      <use xlink:href="#DejaVuSans-6e" x="494.042969"/>
      <use xlink:href="#DejaVuSans-73" x="557.421875"/>
      <use xlink:href="#DejaVuSans-69" x="609.521484"/>
      <use xlink:href="#DejaVuSans-6f" x="637.304688"/>
      <use xlink:href="#DejaVuSans-6e" x="698.486328"/>
      <use xlink:href="#DejaVuSans-20" x="761.865234"/>
      <use xlink:href="#DejaVuSans-32" x="793.652344"/>
     </g>
    </g>
   </g>
   <g id="text_3">
    <!-- natural -->
    <g transform="translate(297.488743 360.625625) scale(0.08 -0.08)">
     <defs>
      <path id="DejaVuSans-61" d="M 2194 1759 
Q 1497 1759 1228 1600 
Q 959 1441 959 1056 
Q 959 750 1161 570 
Q 1363 391 1709 391 
Q 2188 391 2477 730 
Q 2766 1069 2766 1631 
L 2766 1759 
L 2194 1759 
z
M 3341 1997 
L 3341 0 
L 2766 0 
L 2766 531 
Q 2569 213 2275 61 
Q 1981 -91 1556 -91 
Q 1019 -91 701 211 
Q 384 513 384 1019 
Q 384 1609 779 1909 
Q 1175 2209 1959 2209 
L 2766 2209 
L 2766 2266 
Q 2766 2663 2505 2880 
Q 2244 3097 1772 3097 
Q 1472 3097 1187 3025 
Q 903 2953 641 2809 
L 641 3341 
Q 956 3463 1253 3523 
Q 1550 3584 1831 3584 
Q 2591 3584 2966 3190 
Q 3341 2797 3341 1997 
z
" transform="scale(0.015625)"/>
      <path id="DejaVuSans-74" d="M 1172 4494 
L 1172 3500 
L 2356 3500 
L 2356 3053 
L 1172 3053 
L 1172 1153 
Q 1172 725 1289 603 
Q 1406 481 1766 481 
L 2356 481 
L 2356 0 
L 1766 0 
Q 1100 0 847 248 
Q 594 497 594 1153 
L 594 3053 
L 172 3053 
L 172 3500 
L 594 3500 
L 594 4494 
L 1172 4494 
z
" transform="scale(0.015625)"/>
      <path id="DejaVuSans-75" d="M 544 1381 
L 544 3500 
L 1119 3500 
L 1119 1403 
Q 1119 906 1312 657 
Q 1506 409 1894 409 
Q 2359 409 2629 706 
Q 2900 1003 2900 1516 
L 2900 3500 
L 3475 3500 
L 3475 0 
L 2900 0 
L 2900 538 
Q 2691 219 2414 64 
Q 2138 -91 1772 -91 
Q 1169 -91 856 284 
Q 544 659 544 1381 
z
M 1991 3584 
L 1991 3584 
z
" transform="scale(0.015625)"/>
      <path id="DejaVuSans-72" d="M 2631 2963 
Q 2534 3019 2420 3045 
Q 2306 3072 2169 3072 
Q 1681 3072 1420 2755 
Q 1159 2438 1159 1844 
L 1159 0 
L 581 0 
L 581 3500 
L 1159 3500 
L 1159 2956 
Q 1341 3275 1631 3429 
Q 1922 3584 2338 3584 
Q 2397 3584 2469 3576 
Q 2541 3569 2628 3553 
L 2631 2963 
z
" transform="scale(0.015625)"/>
      <path id="DejaVuSans-6c" d="M 603 4863 
L 1178 4863 
L 1178 0 
L 603 0 
L 603 4863 
z
" transform="scale(0.015625)"/>
     </defs>
     <use xlink:href="#DejaVuSans-6e"/>
     <use xlink:href="#DejaVuSans-61" x="63.378906"/>
     <use xlink:href="#DejaVuSans-74" x="124.658203"/>
     <use xlink:href="#DejaVuSans-75" x="163.867188"/>
     <use xlink:href="#DejaVuSans-72" x="227.246094"/>
     <use xlink:href="#DejaVuSans-61" x="268.359375"/>
     <use xlink:href="#DejaVuSans-6c" x="329.638672"/>
    </g>
   </g>
   <g id="text_4">
    <!-- KMeans++ Clustering -->
    <g transform="translate(235.733438 9.118125) scale(0.12 -0.12)">
     <defs>
      <path id="DejaVuSans-4b" d="M 628 4666 
L 1259 4666 
L 1259 2694 
L 3353 4666 
L 4166 4666 
L 1850 2491 
L 4331 0 
L 3500 0 
L 1259 2247 
L 1259 0 
L 628 0 
L 628 4666 
z
" transform="scale(0.015625)"/>
      <path id="DejaVuSans-4d" d="M 628 4666 
L 1569 4666 
L 2759 1491 
L 3956 4666 
L 4897 4666 
L 4897 0 
L 4281 0 
L 4281 4097 
L 3078 897 
L 2444 897 
L 1241 4097 
L 1241 0 
L 628 0 
L 628 4666 
z
" transform="scale(0.015625)"/>
      <path id="DejaVuSans-2b" d="M 2944 4013 
L 2944 2272 
L 4684 2272 
L 4684 1741 
L 2944 1741 
L 2944 0 
L 2419 0 
L 2419 1741 
L 678 1741 
L 678 2272 
L 2419 2272 
L 2419 4013 
L 2944 4013 
z
" transform="scale(0.015625)"/>
      <path id="DejaVuSans-67" d="M 2906 1791 
Q 2906 2416 2648 2759 
Q 2391 3103 1925 3103 
Q 1463 3103 1205 2759 
Q 947 2416 947 1791 
Q 947 1169 1205 825 
Q 1463 481 1925 481 
Q 2391 481 2648 825 
Q 2906 1169 2906 1791 
z
M 3481 434 
Q 3481 -459 3084 -895 
Q 2688 -1331 1869 -1331 
Q 1566 -1331 1297 -1286 
Q 1028 -1241 775 -1147 
L 775 -588 
Q 1028 -725 1275 -790 
Q 1522 -856 1778 -856 
Q 2344 -856 2625 -561 
Q 2906 -266 2906 331 
L 2906 616 
Q 2728 306 2450 153 
Q 2172 0 1784 0 
Q 1141 0 747 490 
Q 353 981 353 1791 
Q 353 2603 747 3093 
Q 1141 3584 1784 3584 
Q 2172 3584 2450 3431 
Q 2728 3278 2906 2969 
L 2906 3500 
L 3481 3500 
L 3481 434 
z
" transform="scale(0.015625)"/>
     </defs>
     <use xlink:href="#DejaVuSans-4b"/>
     <use xlink:href="#DejaVuSans-4d" x="65.576172"/>
     <use xlink:href="#DejaVuSans-65" x="151.855469"/>
     <use xlink:href="#DejaVuSans-61" x="213.378906"/>
     <use xlink:href="#DejaVuSans-6e" x="274.658203"/>
     <use xlink:href="#DejaVuSans-73" x="338.037109"/>
     <use xlink:href="#DejaVuSans-2b" x="390.136719"/>
     <use xlink:href="#DejaVuSans-2b" x="473.925781"/>
     <use xlink:href="#DejaVuSans-20" x="557.714844"/>
     <use xlink:href="#DejaVuSans-43" x="589.501953"/>
     <use xlink:href="#DejaVuSans-6c" x="659.326172"/>
     <use xlink:href="#DejaVuSans-75" x="687.109375"/>
     <use xlink:href="#DejaVuSans-73" x="750.488281"/>
     <use xlink:href="#DejaVuSans-74" x="802.587891"/>
     <use xlink:href="#DejaVuSans-65" x="841.796875"/>
     <use xlink:href="#DejaVuSans-72" x="903.320312"/>
     <use xlink:href="#DejaVuSans-69" x="944.433594"/>
     <use xlink:href="#DejaVuSans-6e" x="972.216797"/>
     <use xlink:href="#DejaVuSans-67" x="1035.595703"/>
    </g>
   </g>
   <g id="legend_1">
    <g id="patch_3">
     <path d="M 19.278125 587.118125 
L 73.470625 587.118125 
Q 75.070625 587.118125 75.070625 585.518125 
L 75.070625 574.575625 
Q 75.070625 572.975625 73.470625 572.975625 
L 19.278125 572.975625 
Q 17.678125 572.975625 17.678125 574.575625 
L 17.678125 585.518125 
Q 17.678125 587.118125 19.278125 587.118125 
z
" style="fill: #ffffff; opacity: 0.8; stroke: #cccccc; stroke-linejoin: miter"/>
    </g>
    <g id="patch_4">
     <path d="M 20.878125 582.254375 
L 36.878125 582.254375 
L 36.878125 576.654375 
L 20.878125 576.654375 
z
" style="fill: #a1c9f4; stroke: #a1c9f4; stroke-linejoin: miter"/>
    </g>
    <g id="text_5">
     <!-- natural -->
     <g transform="translate(43.278125 582.254375) scale(0.08 -0.08)">
      <use xlink:href="#DejaVuSans-6e"/>
      <use xlink:href="#DejaVuSans-61" x="63.378906"/>
      <use xlink:href="#DejaVuSans-74" x="124.658203"/>
      <use xlink:href="#DejaVuSans-75" x="163.867188"/>
      <use xlink:href="#DejaVuSans-72" x="227.246094"/>
      <use xlink:href="#DejaVuSans-61" x="268.359375"/>
      <use xlink:href="#DejaVuSans-6c" x="329.638672"/>
     </g>
    </g>
   </g>
  </g>
 </g>
 <defs>
  <clipPath id="p8f541ca67d">
   <rect x="13.678125" y="15.118125" width="576" height="576"/>
  </clipPath>
 </defs>
</svg>
