<?xml version="1.0" encoding="utf-8" standalone="no"?>
<!DOCTYPE svg PUBLIC "-//W3C//DTD SVG 1.1//EN"
  "http://www.w3.org/Graphics/SVG/1.1/DTD/svg11.dtd">
<svg xmlns:xlink="http://www.w3.org/1999/xlink" width="589.678125pt" height="604.79625pt" viewBox="0 0 589.678125 604.79625" xmlns="http://www.w3.org/2000/svg" version="1.1">
 <metadata>
  <rdf:RDF xmlns:dc="http://purl.org/dc/elements/1.1/" xmlns:cc="http://creativecommons.org/ns#" xmlns:rdf="http://www.w3.org/1999/02/22-rdf-syntax-ns#">
   <cc:Work>
    <dc:type rdf:resource="http://purl.org/dc/dcmitype/StillImage"/>
    <dc:date>2024-10-24T16:35:33.736727</dc:date>
    <dc:format>image/svg+xml</dc:format>
    <dc:creator>
     <cc:Agent>
      <dc:title>Matplotlib v3.9.2, https://matplotlib.org/</dc:title>
     </cc:Agent>
    </dc:creator>
   </cc:Work>
  </rdf:RDF>
 </metadata>
 <defs>
  <style type="text/css">*{stroke-linejoin: round; stroke-linecap: butt}</style>
 </defs>
 <g id="figure_1">
  <g id="patch_1">
   <path d="M 0 604.79625 
L 589.678125 604.79625 
L 589.678125 0 
L 0 0 
z
" style="fill: #ffffff"/>
  </g>
  <g id="axes_1">
   <g id="PathCollection_1">
    <defs>
     <path id="me4138daf88" d="M 0 5 
C 1.326016 5 2.597899 4.473168 3.535534 3.535534 
C 4.473168 2.597899 5 1.326016 5 0 
C 5 -1.326016 4.473168 -2.597899 3.535534 -3.535534 
C 2.597899 -4.473168 1.326016 -5 0 -5 
C -1.326016 -5 -2.597899 -4.473168 -3.535534 -3.535534 
C -4.473168 -2.597899 -5 -1.326016 -5 0 
C -5 1.326016 -4.473168 2.597899 -3.535534 3.535534 
C -2.597899 4.473168 -1.326016 5 0 5 
z
" style="stroke: #a1c9f4; stroke-opacity: 0.7"/>
    </defs>
    <g clip-path="url(#pea88b7bcb2)">
     <use xlink:href="#me4138daf88" x="381.223319" y="435.778451" style="fill: #a1c9f4; fill-opacity: 0.7; stroke: #a1c9f4; stroke-opacity: 0.7"/>
    </g>
   </g>
   <g id="PathCollection_2">
    <g clip-path="url(#pea88b7bcb2)">
     <use xlink:href="#me4138daf88" x="301.830108" y="294.994478" style="fill: #a1c9f4; fill-opacity: 0.7; stroke: #a1c9f4; stroke-opacity: 0.7"/>
    </g>
   </g>
   <g id="PathCollection_3">
    <g clip-path="url(#pea88b7bcb2)">
     <use xlink:href="#me4138daf88" x="200.077436" y="288.67255" style="fill: #a1c9f4; fill-opacity: 0.7; stroke: #a1c9f4; stroke-opacity: 0.7"/>
    </g>
   </g>
   <g id="PathCollection_4">
    <g clip-path="url(#pea88b7bcb2)">
     <use xlink:href="#me4138daf88" x="120.550836" y="431.907269" style="fill: #a1c9f4; fill-opacity: 0.7; stroke: #a1c9f4; stroke-opacity: 0.7"/>
    </g>
   </g>
   <g id="PathCollection_5">
    <g clip-path="url(#pea88b7bcb2)">
     <use xlink:href="#me4138daf88" x="489.279162" y="238.676708" style="fill: #a1c9f4; fill-opacity: 0.7; stroke: #a1c9f4; stroke-opacity: 0.7"/>
    </g>
   </g>
   <g id="PathCollection_6">
    <g clip-path="url(#pea88b7bcb2)">
     <use xlink:href="#me4138daf88" x="189.619305" y="343.959357" style="fill: #a1c9f4; fill-opacity: 0.7; stroke: #a1c9f4; stroke-opacity: 0.7"/>
    </g>
   </g>
   <g id="PathCollection_7">
    <g clip-path="url(#pea88b7bcb2)">
     <use xlink:href="#me4138daf88" x="400.688944" y="376.393165" style="fill: #a1c9f4; fill-opacity: 0.7; stroke: #a1c9f4; stroke-opacity: 0.7"/>
    </g>
   </g>
   <g id="PathCollection_8">
    <g clip-path="url(#pea88b7bcb2)">
     <use xlink:href="#me4138daf88" x="415.259893" y="494.217588" style="fill: #a1c9f4; fill-opacity: 0.7; stroke: #a1c9f4; stroke-opacity: 0.7"/>
    </g>
   </g>
   <g id="PathCollection_9">
    <g clip-path="url(#pea88b7bcb2)">
     <use xlink:href="#me4138daf88" x="367.064869" y="107.257567" style="fill: #a1c9f4; fill-opacity: 0.7; stroke: #a1c9f4; stroke-opacity: 0.7"/>
    </g>
   </g>
   <g id="PathCollection_10">
    <g clip-path="url(#pea88b7bcb2)">
     <use xlink:href="#me4138daf88" x="240.471261" y="286.254072" style="fill: #a1c9f4; fill-opacity: 0.7; stroke: #a1c9f4; stroke-opacity: 0.7"/>
    </g>
   </g>
   <g id="PathCollection_11">
    <g clip-path="url(#pea88b7bcb2)">
     <use xlink:href="#me4138daf88" x="387.861052" y="320.539758" style="fill: #a1c9f4; fill-opacity: 0.7; stroke: #a1c9f4; stroke-opacity: 0.7"/>
    </g>
   </g>
   <g id="PathCollection_12">
    <g clip-path="url(#pea88b7bcb2)">
     <use xlink:href="#me4138daf88" x="474.804963" y="399.195777" style="fill: #a1c9f4; fill-opacity: 0.7; stroke: #a1c9f4; stroke-opacity: 0.7"/>
    </g>
   </g>
   <g id="PathCollection_13">
    <g clip-path="url(#pea88b7bcb2)">
     <use xlink:href="#me4138daf88" x="222.041195" y="491.252861" style="fill: #a1c9f4; fill-opacity: 0.7; stroke: #a1c9f4; stroke-opacity: 0.7"/>
    </g>
   </g>
   <g id="PathCollection_14">
    <g clip-path="url(#pea88b7bcb2)">
     <use xlink:href="#me4138daf88" x="147.786739" y="386.114168" style="fill: #a1c9f4; fill-opacity: 0.7; stroke: #a1c9f4; stroke-opacity: 0.7"/>
    </g>
   </g>
   <g id="PathCollection_15">
    <g clip-path="url(#pea88b7bcb2)">
     <use xlink:href="#me4138daf88" x="456.915472" y="462.353889" style="fill: #a1c9f4; fill-opacity: 0.7; stroke: #a1c9f4; stroke-opacity: 0.7"/>
    </g>
   </g>
   <g id="PathCollection_16">
    <g clip-path="url(#pea88b7bcb2)">
     <use xlink:href="#me4138daf88" x="482.062248" y="325.028646" style="fill: #a1c9f4; fill-opacity: 0.7; stroke: #a1c9f4; stroke-opacity: 0.7"/>
    </g>
   </g>
   <g id="PathCollection_17">
    <g clip-path="url(#pea88b7bcb2)">
     <use xlink:href="#me4138daf88" x="353.777095" y="528.524972" style="fill: #a1c9f4; fill-opacity: 0.7; stroke: #a1c9f4; stroke-opacity: 0.7"/>
    </g>
   </g>
   <g id="PathCollection_18">
    <g clip-path="url(#pea88b7bcb2)">
     <use xlink:href="#me4138daf88" x="209.791152" y="181.175068" style="fill: #a1c9f4; fill-opacity: 0.7; stroke: #a1c9f4; stroke-opacity: 0.7"/>
    </g>
   </g>
   <g id="PathCollection_19">
    <g clip-path="url(#pea88b7bcb2)">
     <use xlink:href="#me4138daf88" x="168.855452" y="178.031886" style="fill: #a1c9f4; fill-opacity: 0.7; stroke: #a1c9f4; stroke-opacity: 0.7"/>
    </g>
   </g>
   <g id="PathCollection_20">
    <g clip-path="url(#pea88b7bcb2)">
     <use xlink:href="#me4138daf88" x="275.383156" y="262.068099" style="fill: #a1c9f4; fill-opacity: 0.7; stroke: #a1c9f4; stroke-opacity: 0.7"/>
    </g>
   </g>
   <g id="PathCollection_21">
    <g clip-path="url(#pea88b7bcb2)">
     <use xlink:href="#me4138daf88" x="327.472756" y="160.379277" style="fill: #a1c9f4; fill-opacity: 0.7; stroke: #a1c9f4; stroke-opacity: 0.7"/>
    </g>
   </g>
   <g id="PathCollection_22">
    <g clip-path="url(#pea88b7bcb2)">
     <use xlink:href="#me4138daf88" x="184.011855" y="86.266502" style="fill: #a1c9f4; fill-opacity: 0.7; stroke: #a1c9f4; stroke-opacity: 0.7"/>
    </g>
   </g>
   <g id="PathCollection_23">
    <g clip-path="url(#pea88b7bcb2)">
     <use xlink:href="#me4138daf88" x="227.239979" y="346.923574" style="fill: #a1c9f4; fill-opacity: 0.7; stroke: #a1c9f4; stroke-opacity: 0.7"/>
    </g>
   </g>
   <g id="PathCollection_24">
    <g clip-path="url(#pea88b7bcb2)">
     <use xlink:href="#me4138daf88" x="115.491837" y="340.361" style="fill: #a1c9f4; fill-opacity: 0.7; stroke: #a1c9f4; stroke-opacity: 0.7"/>
    </g>
   </g>
   <g id="PathCollection_25">
    <g clip-path="url(#pea88b7bcb2)">
     <use xlink:href="#me4138daf88" x="382.154203" y="186.846181" style="fill: #a1c9f4; fill-opacity: 0.7; stroke: #a1c9f4; stroke-opacity: 0.7"/>
    </g>
   </g>
   <g id="PathCollection_26">
    <g clip-path="url(#pea88b7bcb2)">
     <use xlink:href="#me4138daf88" x="304.134104" y="235.793764" style="fill: #a1c9f4; fill-opacity: 0.7; stroke: #a1c9f4; stroke-opacity: 0.7"/>
    </g>
   </g>
   <g id="PathCollection_27">
    <g clip-path="url(#pea88b7bcb2)">
     <use xlink:href="#me4138daf88" x="288.043778" y="411.111872" style="fill: #a1c9f4; fill-opacity: 0.7; stroke: #a1c9f4; stroke-opacity: 0.7"/>
    </g>
   </g>
   <g id="PathCollection_28">
    <g clip-path="url(#pea88b7bcb2)">
     <use xlink:href="#me4138daf88" x="243.834502" y="163.826692" style="fill: #a1c9f4; fill-opacity: 0.7; stroke: #a1c9f4; stroke-opacity: 0.7"/>
    </g>
   </g>
   <g id="PathCollection_29">
    <g clip-path="url(#pea88b7bcb2)">
     <use xlink:href="#me4138daf88" x="242.566588" y="410.770182" style="fill: #a1c9f4; fill-opacity: 0.7; stroke: #a1c9f4; stroke-opacity: 0.7"/>
    </g>
   </g>
   <g id="PathCollection_30">
    <g clip-path="url(#pea88b7bcb2)">
     <use xlink:href="#me4138daf88" x="283.628177" y="118.886912" style="fill: #a1c9f4; fill-opacity: 0.7; stroke: #a1c9f4; stroke-opacity: 0.7"/>
    </g>
   </g>
   <g id="PathCollection_31">
    <g clip-path="url(#pea88b7bcb2)">
     <use xlink:href="#me4138daf88" x="339.033299" y="294.845267" style="fill: #a1c9f4; fill-opacity: 0.7; stroke: #a1c9f4; stroke-opacity: 0.7"/>
    </g>
   </g>
   <g id="PathCollection_32">
    <g clip-path="url(#pea88b7bcb2)">
     <use xlink:href="#me4138daf88" x="302.958005" y="348.89911" style="fill: #a1c9f4; fill-opacity: 0.7; stroke: #a1c9f4; stroke-opacity: 0.7"/>
    </g>
   </g>
   <g id="PathCollection_33">
    <g clip-path="url(#pea88b7bcb2)">
     <use xlink:href="#me4138daf88" x="180.434248" y="233.863714" style="fill: #a1c9f4; fill-opacity: 0.7; stroke: #a1c9f4; stroke-opacity: 0.7"/>
    </g>
   </g>
   <g id="PathCollection_34">
    <g clip-path="url(#pea88b7bcb2)">
     <use xlink:href="#me4138daf88" x="344.094501" y="215.500351" style="fill: #a1c9f4; fill-opacity: 0.7; stroke: #a1c9f4; stroke-opacity: 0.7"/>
    </g>
   </g>
   <g id="PathCollection_35">
    <g clip-path="url(#pea88b7bcb2)">
     <use xlink:href="#me4138daf88" x="258.156031" y="220.499031" style="fill: #a1c9f4; fill-opacity: 0.7; stroke: #a1c9f4; stroke-opacity: 0.7"/>
    </g>
   </g>
   <g id="PathCollection_36">
    <g clip-path="url(#pea88b7bcb2)">
     <use xlink:href="#me4138daf88" x="395.667292" y="254.791641" style="fill: #a1c9f4; fill-opacity: 0.7; stroke: #a1c9f4; stroke-opacity: 0.7"/>
    </g>
   </g>
   <g id="PathCollection_37">
    <g clip-path="url(#pea88b7bcb2)">
     <use xlink:href="#me4138daf88" x="286.182074" y="184.098995" style="fill: #a1c9f4; fill-opacity: 0.7; stroke: #a1c9f4; stroke-opacity: 0.7"/>
    </g>
   </g>
   <g id="PathCollection_38">
    <g clip-path="url(#pea88b7bcb2)">
     <use xlink:href="#me4138daf88" x="430.150223" y="193.39037" style="fill: #a1c9f4; fill-opacity: 0.7; stroke: #a1c9f4; stroke-opacity: 0.7"/>
    </g>
   </g>
   <g id="PathCollection_39">
    <g clip-path="url(#pea88b7bcb2)">
     <use xlink:href="#me4138daf88" x="359.585474" y="355.075307" style="fill: #a1c9f4; fill-opacity: 0.7; stroke: #a1c9f4; stroke-opacity: 0.7"/>
    </g>
   </g>
   <g id="PathCollection_40">
    <g clip-path="url(#pea88b7bcb2)">
     <use xlink:href="#me4138daf88" x="138.991131" y="239.805778" style="fill: #a1c9f4; fill-opacity: 0.7; stroke: #a1c9f4; stroke-opacity: 0.7"/>
    </g>
   </g>
   <g id="PathCollection_41">
    <g clip-path="url(#pea88b7bcb2)">
     <use xlink:href="#me4138daf88" x="154.384213" y="299.228761" style="fill: #a1c9f4; fill-opacity: 0.7; stroke: #a1c9f4; stroke-opacity: 0.7"/>
    </g>
   </g>
   <g id="PathCollection_42">
    <g clip-path="url(#pea88b7bcb2)">
     <use xlink:href="#me4138daf88" x="432.481206" y="421.463881" style="fill: #a1c9f4; fill-opacity: 0.7; stroke: #a1c9f4; stroke-opacity: 0.7"/>
    </g>
   </g>
   <g id="PathCollection_43">
    <g clip-path="url(#pea88b7bcb2)">
     <use xlink:href="#me4138daf88" x="498.252413" y="467.167755" style="fill: #a1c9f4; fill-opacity: 0.7; stroke: #a1c9f4; stroke-opacity: 0.7"/>
    </g>
   </g>
   <g id="PathCollection_44">
    <g clip-path="url(#pea88b7bcb2)">
     <use xlink:href="#me4138daf88" x="231.198542" y="79.719223" style="fill: #a1c9f4; fill-opacity: 0.7; stroke: #a1c9f4; stroke-opacity: 0.7"/>
    </g>
   </g>
   <g id="PathCollection_45">
    <g clip-path="url(#pea88b7bcb2)">
     <use xlink:href="#me4138daf88" x="269.687556" y="313.490031" style="fill: #a1c9f4; fill-opacity: 0.7; stroke: #a1c9f4; stroke-opacity: 0.7"/>
    </g>
   </g>
   <g id="PathCollection_46">
    <g clip-path="url(#pea88b7bcb2)">
     <use xlink:href="#me4138daf88" x="263.338422" y="364.287141" style="fill: #a1c9f4; fill-opacity: 0.7; stroke: #a1c9f4; stroke-opacity: 0.7"/>
    </g>
   </g>
   <g id="PathCollection_47">
    <g clip-path="url(#pea88b7bcb2)">
     <use xlink:href="#me4138daf88" x="332.9193" y="404.081401" style="fill: #a1c9f4; fill-opacity: 0.7; stroke: #a1c9f4; stroke-opacity: 0.7"/>
    </g>
   </g>
   <g id="PathCollection_48">
    <g clip-path="url(#pea88b7bcb2)">
     <use xlink:href="#me4138daf88" x="222.632749" y="235.670045" style="fill: #a1c9f4; fill-opacity: 0.7; stroke: #a1c9f4; stroke-opacity: 0.7"/>
    </g>
   </g>
   <g id="PathCollection_49">
    <g clip-path="url(#pea88b7bcb2)">
     <use xlink:href="#me4138daf88" x="194.220178" y="412.831218" style="fill: #a1c9f4; fill-opacity: 0.7; stroke: #a1c9f4; stroke-opacity: 0.7"/>
    </g>
   </g>
   <g id="PathCollection_50">
    <g clip-path="url(#pea88b7bcb2)">
     <use xlink:href="#me4138daf88" x="435.424452" y="354.307368" style="fill: #a1c9f4; fill-opacity: 0.7; stroke: #a1c9f4; stroke-opacity: 0.7"/>
    </g>
   </g>
   <g id="PathCollection_51">
    <g clip-path="url(#pea88b7bcb2)">
     <use xlink:href="#me4138daf88" x="431.871598" y="272.445677" style="fill: #a1c9f4; fill-opacity: 0.7; stroke: #a1c9f4; stroke-opacity: 0.7"/>
    </g>
   </g>
   <g id="PathCollection_52">
    <defs>
     <path id="mb7b58f27f3" d="M -3.535534 3.535534 
L 3.535534 -3.535534 
M -3.535534 -3.535534 
L 3.535534 3.535534 
" style="stroke: #000000; stroke-width: 1.5"/>
    </defs>
    <g clip-path="url(#pea88b7bcb2)">
     <use xlink:href="#mb7b58f27f3" x="301.678125" y="303.118125" style="stroke: #000000; stroke-width: 1.5"/>
    </g>
   </g>
   <g id="patch_2">
    <path d="M 278.037287 564.936307 
C 347.472281 579.719685 416.563692 566.312749 470.09494 527.668222 
C 523.626188 489.023694 557.226683 428.296729 563.496307 358.861735 
C 569.76593 289.426742 548.192795 216.95278 503.528133 157.401398 
C 458.863472 97.850016 394.753956 56.083321 325.318963 41.299943 
C 255.883969 26.516565 186.792558 39.923501 133.26131 78.568028 
C 79.730062 117.212556 46.129567 177.939521 39.859943 247.374515 
C 33.59032 316.809508 55.163455 389.28347 99.828117 448.834852 
C 144.492778 508.386234 208.602294 550.152929 278.037287 564.936307 
z
" clip-path="url(#pea88b7bcb2)" style="fill: #a1c9f4; opacity: 0.2; stroke: #7d7d7d; stroke-linejoin: miter"/>
   </g>
   <g id="PathCollection_53">
    <defs>
     <path id="C0_0_90eabbd5a5" d="M 0 3.535534 
C 0.937635 3.535534 1.836992 3.163008 2.5 2.5 
C 3.163008 1.836992 3.535534 0.937635 3.535534 -0 
C 3.535534 -0.937635 3.163008 -1.836992 2.5 -2.5 
C 1.836992 -3.163008 0.937635 -3.535534 0 -3.535534 
C -0.937635 -3.535534 -1.836992 -3.163008 -2.5 -2.5 
C -3.163008 -1.836992 -3.535534 -0.937635 -3.535534 0 
C -3.535534 0.937635 -3.163008 1.836992 -2.5 2.5 
C -1.836992 3.163008 -0.937635 3.535534 0 3.535534 
z
"/>
    </defs>
    <g clip-path="url(#pea88b7bcb2)">
     <use xlink:href="#C0_0_90eabbd5a5" x="381.223319" y="435.778451" style="fill: #31688e; stroke: #31688e"/>
    </g>
    <g clip-path="url(#pea88b7bcb2)">
     <use xlink:href="#C0_0_90eabbd5a5" x="301.830108" y="294.994478" style="fill: #440154; stroke: #440154"/>
    </g>
    <g clip-path="url(#pea88b7bcb2)">
     <use xlink:href="#C0_0_90eabbd5a5" x="200.077436" y="288.67255" style="fill: #440154; stroke: #440154"/>
    </g>
    <g clip-path="url(#pea88b7bcb2)">
     <use xlink:href="#C0_0_90eabbd5a5" x="120.550836" y="431.907269" style="fill: #fde725; stroke: #fde725"/>
    </g>
    <g clip-path="url(#pea88b7bcb2)">
     <use xlink:href="#C0_0_90eabbd5a5" x="489.279162" y="238.676708" style="fill: #31688e; stroke: #31688e"/>
    </g>
    <g clip-path="url(#pea88b7bcb2)">
     <use xlink:href="#C0_0_90eabbd5a5" x="189.619305" y="343.959357" style="fill: #fde725; stroke: #fde725"/>
    </g>
    <g clip-path="url(#pea88b7bcb2)">
     <use xlink:href="#C0_0_90eabbd5a5" x="400.688944" y="376.393165" style="fill: #31688e; stroke: #31688e"/>
    </g>
    <g clip-path="url(#pea88b7bcb2)">
     <use xlink:href="#C0_0_90eabbd5a5" x="415.259893" y="494.217588" style="fill: #31688e; stroke: #31688e"/>
    </g>
    <g clip-path="url(#pea88b7bcb2)">
     <use xlink:href="#C0_0_90eabbd5a5" x="367.064869" y="107.257567" style="fill: #35b779; stroke: #35b779"/>
    </g>
    <g clip-path="url(#pea88b7bcb2)">
     <use xlink:href="#C0_0_90eabbd5a5" x="240.471261" y="286.254072" style="fill: #440154; stroke: #440154"/>
    </g>
    <g clip-path="url(#pea88b7bcb2)">
     <use xlink:href="#C0_0_90eabbd5a5" x="387.861052" y="320.539758" style="fill: #31688e; stroke: #31688e"/>
    </g>
    <g clip-path="url(#pea88b7bcb2)">
     <use xlink:href="#C0_0_90eabbd5a5" x="474.804963" y="399.195777" style="fill: #31688e; stroke: #31688e"/>
    </g>
    <g clip-path="url(#pea88b7bcb2)">
     <use xlink:href="#C0_0_90eabbd5a5" x="222.041195" y="491.252861" style="fill: #fde725; stroke: #fde725"/>
    </g>
    <g clip-path="url(#pea88b7bcb2)">
     <use xlink:href="#C0_0_90eabbd5a5" x="147.786739" y="386.114168" style="fill: #fde725; stroke: #fde725"/>
    </g>
    <g clip-path="url(#pea88b7bcb2)">
     <use xlink:href="#C0_0_90eabbd5a5" x="456.915472" y="462.353889" style="fill: #31688e; stroke: #31688e"/>
    </g>
    <g clip-path="url(#pea88b7bcb2)">
     <use xlink:href="#C0_0_90eabbd5a5" x="482.062248" y="325.028646" style="fill: #31688e; stroke: #31688e"/>
    </g>
    <g clip-path="url(#pea88b7bcb2)">
     <use xlink:href="#C0_0_90eabbd5a5" x="353.777095" y="528.524972" style="fill: #31688e; stroke: #31688e"/>
    </g>
    <g clip-path="url(#pea88b7bcb2)">
     <use xlink:href="#C0_0_90eabbd5a5" x="209.791152" y="181.175068" style="fill: #440154; stroke: #440154"/>
    </g>
    <g clip-path="url(#pea88b7bcb2)">
     <use xlink:href="#C0_0_90eabbd5a5" x="168.855452" y="178.031886" style="fill: #440154; stroke: #440154"/>
    </g>
    <g clip-path="url(#pea88b7bcb2)">
     <use xlink:href="#C0_0_90eabbd5a5" x="275.383156" y="262.068099" style="fill: #440154; stroke: #440154"/>
    </g>
    <g clip-path="url(#pea88b7bcb2)">
     <use xlink:href="#C0_0_90eabbd5a5" x="327.472756" y="160.379277" style="fill: #35b779; stroke: #35b779"/>
    </g>
    <g clip-path="url(#pea88b7bcb2)">
     <use xlink:href="#C0_0_90eabbd5a5" x="184.011855" y="86.266502" style="fill: #440154; stroke: #440154"/>
    </g>
    <g clip-path="url(#pea88b7bcb2)">
     <use xlink:href="#C0_0_90eabbd5a5" x="227.239979" y="346.923574" style="fill: #440154; stroke: #440154"/>
    </g>
    <g clip-path="url(#pea88b7bcb2)">
     <use xlink:href="#C0_0_90eabbd5a5" x="115.491837" y="340.361" style="fill: #fde725; stroke: #fde725"/>
    </g>
    <g clip-path="url(#pea88b7bcb2)">
     <use xlink:href="#C0_0_90eabbd5a5" x="382.154203" y="186.846181" style="fill: #35b779; stroke: #35b779"/>
    </g>
    <g clip-path="url(#pea88b7bcb2)">
     <use xlink:href="#C0_0_90eabbd5a5" x="304.134104" y="235.793764" style="fill: #35b779; stroke: #35b779"/>
    </g>
    <g clip-path="url(#pea88b7bcb2)">
     <use xlink:href="#C0_0_90eabbd5a5" x="288.043778" y="411.111872" style="fill: #440154; stroke: #440154"/>
    </g>
    <g clip-path="url(#pea88b7bcb2)">
     <use xlink:href="#C0_0_90eabbd5a5" x="243.834502" y="163.826692" style="fill: #35b779; stroke: #35b779"/>
    </g>
    <g clip-path="url(#pea88b7bcb2)">
     <use xlink:href="#C0_0_90eabbd5a5" x="242.566588" y="410.770182" style="fill: #fde725; stroke: #fde725"/>
    </g>
    <g clip-path="url(#pea88b7bcb2)">
     <use xlink:href="#C0_0_90eabbd5a5" x="283.628177" y="118.886912" style="fill: #35b779; stroke: #35b779"/>
    </g>
    <g clip-path="url(#pea88b7bcb2)">
     <use xlink:href="#C0_0_90eabbd5a5" x="339.033299" y="294.845267" style="fill: #35b779; stroke: #35b779"/>
    </g>
    <g clip-path="url(#pea88b7bcb2)">
     <use xlink:href="#C0_0_90eabbd5a5" x="302.958005" y="348.89911" style="fill: #440154; stroke: #440154"/>
    </g>
    <g clip-path="url(#pea88b7bcb2)">
     <use xlink:href="#C0_0_90eabbd5a5" x="180.434248" y="233.863714" style="fill: #440154; stroke: #440154"/>
    </g>
    <g clip-path="url(#pea88b7bcb2)">
     <use xlink:href="#C0_0_90eabbd5a5" x="344.094501" y="215.500351" style="fill: #35b779; stroke: #35b779"/>
    </g>
    <g clip-path="url(#pea88b7bcb2)">
     <use xlink:href="#C0_0_90eabbd5a5" x="258.156031" y="220.499031" style="fill: #440154; stroke: #440154"/>
    </g>
    <g clip-path="url(#pea88b7bcb2)">
     <use xlink:href="#C0_0_90eabbd5a5" x="395.667292" y="254.791641" style="fill: #31688e; stroke: #31688e"/>
    </g>
    <g clip-path="url(#pea88b7bcb2)">
     <use xlink:href="#C0_0_90eabbd5a5" x="286.182074" y="184.098995" style="fill: #35b779; stroke: #35b779"/>
    </g>
    <g clip-path="url(#pea88b7bcb2)">
     <use xlink:href="#C0_0_90eabbd5a5" x="430.150223" y="193.39037" style="fill: #31688e; stroke: #31688e"/>
    </g>
    <g clip-path="url(#pea88b7bcb2)">
     <use xlink:href="#C0_0_90eabbd5a5" x="359.585474" y="355.075307" style="fill: #31688e; stroke: #31688e"/>
    </g>
    <g clip-path="url(#pea88b7bcb2)">
     <use xlink:href="#C0_0_90eabbd5a5" x="138.991131" y="239.805778" style="fill: #440154; stroke: #440154"/>
    </g>
    <g clip-path="url(#pea88b7bcb2)">
     <use xlink:href="#C0_0_90eabbd5a5" x="154.384213" y="299.228761" style="fill: #fde725; stroke: #fde725"/>
    </g>
    <g clip-path="url(#pea88b7bcb2)">
     <use xlink:href="#C0_0_90eabbd5a5" x="432.481206" y="421.463881" style="fill: #31688e; stroke: #31688e"/>
    </g>
    <g clip-path="url(#pea88b7bcb2)">
     <use xlink:href="#C0_0_90eabbd5a5" x="498.252413" y="467.167755" style="fill: #31688e; stroke: #31688e"/>
    </g>
    <g clip-path="url(#pea88b7bcb2)">
     <use xlink:href="#C0_0_90eabbd5a5" x="231.198542" y="79.719223" style="fill: #35b779; stroke: #35b779"/>
    </g>
    <g clip-path="url(#pea88b7bcb2)">
     <use xlink:href="#C0_0_90eabbd5a5" x="269.687556" y="313.490031" style="fill: #440154; stroke: #440154"/>
    </g>
    <g clip-path="url(#pea88b7bcb2)">
     <use xlink:href="#C0_0_90eabbd5a5" x="263.338422" y="364.287141" style="fill: #440154; stroke: #440154"/>
    </g>
    <g clip-path="url(#pea88b7bcb2)">
     <use xlink:href="#C0_0_90eabbd5a5" x="332.9193" y="404.081401" style="fill: #31688e; stroke: #31688e"/>
    </g>
    <g clip-path="url(#pea88b7bcb2)">
     <use xlink:href="#C0_0_90eabbd5a5" x="222.632749" y="235.670045" style="fill: #440154; stroke: #440154"/>
    </g>
    <g clip-path="url(#pea88b7bcb2)">
     <use xlink:href="#C0_0_90eabbd5a5" x="194.220178" y="412.831218" style="fill: #fde725; stroke: #fde725"/>
    </g>
    <g clip-path="url(#pea88b7bcb2)">
     <use xlink:href="#C0_0_90eabbd5a5" x="435.424452" y="354.307368" style="fill: #31688e; stroke: #31688e"/>
    </g>
    <g clip-path="url(#pea88b7bcb2)">
     <use xlink:href="#C0_0_90eabbd5a5" x="431.871598" y="272.445677" style="fill: #31688e; stroke: #31688e"/>
    </g>
   </g>
   <g id="PathCollection_54">
    <defs>
     <path id="ma00e5d5977" d="M -3.535534 7.071068 
L 0 3.535534 
L 3.535534 7.071068 
L 7.071068 3.535534 
L 3.535534 0 
L 7.071068 -3.535534 
L 3.535534 -7.071068 
L 0 -3.535534 
L -3.535534 -7.071068 
L -7.071068 -3.535534 
L -3.535534 0 
L -7.071068 3.535534 
z
" style="stroke: #ff0000"/>
    </defs>
    <g clip-path="url(#pea88b7bcb2)">
     <use xlink:href="#ma00e5d5977" x="233.243894" y="268.250811" style="fill: #ff0000; stroke: #ff0000"/>
     <use xlink:href="#ma00e5d5977" x="421.072021" y="370.790143" style="fill: #ff0000; stroke: #ff0000"/>
     <use xlink:href="#ma00e5d5977" x="310.8797" y="174.71542" style="fill: #ff0000; stroke: #ff0000"/>
     <use xlink:href="#ma00e5d5977" x="173.332605" y="389.553105" style="fill: #ff0000; stroke: #ff0000"/>
    </g>
   </g>
   <g id="matplotlib.axis_1">
    <g id="text_1">
     <!-- TSNE Dimension 1 -->
     <g transform="translate(255.614063 602.716562) scale(0.1 -0.1)">
      <defs>
       <path id="DejaVuSans-54" d="M -19 4666 
L 3928 4666 
L 3928 4134 
L 2272 4134 
L 2272 0 
L 1638 0 
L 1638 4134 
L -19 4134 
L -19 4666 
z
" transform="scale(0.015625)"/>
       <path id="DejaVuSans-53" d="M 3425 4513 
L 3425 3897 
Q 3066 4069 2747 4153 
Q 2428 4238 2131 4238 
Q 1616 4238 1336 4038 
Q 1056 3838 1056 3469 
Q 1056 3159 1242 3001 
Q 1428 2844 1947 2747 
L 2328 2669 
Q 3034 2534 3370 2195 
Q 3706 1856 3706 1288 
Q 3706 609 3251 259 
Q 2797 -91 1919 -91 
Q 1588 -91 1214 -16 
Q 841 59 441 206 
L 441 856 
Q 825 641 1194 531 
Q 1563 422 1919 422 
Q 2459 422 2753 634 
Q 3047 847 3047 1241 
Q 3047 1584 2836 1778 
Q 2625 1972 2144 2069 
L 1759 2144 
Q 1053 2284 737 2584 
Q 422 2884 422 3419 
Q 422 4038 858 4394 
Q 1294 4750 2059 4750 
Q 2388 4750 2728 4690 
Q 3069 4631 3425 4513 
z
" transform="scale(0.015625)"/>
       <path id="DejaVuSans-4e" d="M 628 4666 
L 1478 4666 
L 3547 763 
L 3547 4666 
L 4159 4666 
L 4159 0 
L 3309 0 
L 1241 3903 
L 1241 0 
L 628 0 
L 628 4666 
z
" transform="scale(0.015625)"/>
       <path id="DejaVuSans-45" d="M 628 4666 
L 3578 4666 
L 3578 4134 
L 1259 4134 
L 1259 2753 
L 3481 2753 
L 3481 2222 
L 1259 2222 
L 1259 531 
L 3634 531 
L 3634 0 
L 628 0 
L 628 4666 
z
" transform="scale(0.015625)"/>
       <path id="DejaVuSans-20" transform="scale(0.015625)"/>
       <path id="DejaVuSans-44" d="M 1259 4147 
L 1259 519 
L 2022 519 
Q 2988 519 3436 956 
Q 3884 1394 3884 2338 
Q 3884 3275 3436 3711 
Q 2988 4147 2022 4147 
L 1259 4147 
z
M 628 4666 
L 1925 4666 
Q 3281 4666 3915 4102 
Q 4550 3538 4550 2338 
Q 4550 1131 3912 565 
Q 3275 0 1925 0 
L 628 0 
L 628 4666 
z
" transform="scale(0.015625)"/>
       <path id="DejaVuSans-69" d="M 603 3500 
L 1178 3500 
L 1178 0 
L 603 0 
L 603 3500 
z
M 603 4863 
L 1178 4863 
L 1178 4134 
L 603 4134 
L 603 4863 
z
" transform="scale(0.015625)"/>
       <path id="DejaVuSans-6d" d="M 3328 2828 
Q 3544 3216 3844 3400 
Q 4144 3584 4550 3584 
Q 5097 3584 5394 3201 
Q 5691 2819 5691 2113 
L 5691 0 
L 5113 0 
L 5113 2094 
Q 5113 2597 4934 2840 
Q 4756 3084 4391 3084 
Q 3944 3084 3684 2787 
Q 3425 2491 3425 1978 
L 3425 0 
L 2847 0 
L 2847 2094 
Q 2847 2600 2669 2842 
Q 2491 3084 2119 3084 
Q 1678 3084 1418 2786 
Q 1159 2488 1159 1978 
L 1159 0 
L 581 0 
L 581 3500 
L 1159 3500 
L 1159 2956 
Q 1356 3278 1631 3431 
Q 1906 3584 2284 3584 
Q 2666 3584 2933 3390 
Q 3200 3197 3328 2828 
z
" transform="scale(0.015625)"/>
       <path id="DejaVuSans-65" d="M 3597 1894 
L 3597 1613 
L 953 1613 
Q 991 1019 1311 708 
Q 1631 397 2203 397 
Q 2534 397 2845 478 
Q 3156 559 3463 722 
L 3463 178 
Q 3153 47 2828 -22 
Q 2503 -91 2169 -91 
Q 1331 -91 842 396 
Q 353 884 353 1716 
Q 353 2575 817 3079 
Q 1281 3584 2069 3584 
Q 2775 3584 3186 3129 
Q 3597 2675 3597 1894 
z
M 3022 2063 
Q 3016 2534 2758 2815 
Q 2500 3097 2075 3097 
Q 1594 3097 1305 2825 
Q 1016 2553 972 2059 
L 3022 2063 
z
" transform="scale(0.015625)"/>
       <path id="DejaVuSans-6e" d="M 3513 2113 
L 3513 0 
L 2938 0 
L 2938 2094 
Q 2938 2591 2744 2837 
Q 2550 3084 2163 3084 
Q 1697 3084 1428 2787 
Q 1159 2491 1159 1978 
L 1159 0 
L 581 0 
L 581 3500 
L 1159 3500 
L 1159 2956 
Q 1366 3272 1645 3428 
Q 1925 3584 2291 3584 
Q 2894 3584 3203 3211 
Q 3513 2838 3513 2113 
z
" transform="scale(0.015625)"/>
       <path id="DejaVuSans-73" d="M 2834 3397 
L 2834 2853 
Q 2591 2978 2328 3040 
Q 2066 3103 1784 3103 
Q 1356 3103 1142 2972 
Q 928 2841 928 2578 
Q 928 2378 1081 2264 
Q 1234 2150 1697 2047 
L 1894 2003 
Q 2506 1872 2764 1633 
Q 3022 1394 3022 966 
Q 3022 478 2636 193 
Q 2250 -91 1575 -91 
Q 1294 -91 989 -36 
Q 684 19 347 128 
L 347 722 
Q 666 556 975 473 
Q 1284 391 1588 391 
Q 1994 391 2212 530 
Q 2431 669 2431 922 
Q 2431 1156 2273 1281 
Q 2116 1406 1581 1522 
L 1381 1569 
Q 847 1681 609 1914 
Q 372 2147 372 2553 
Q 372 3047 722 3315 
Q 1072 3584 1716 3584 
Q 2034 3584 2315 3537 
Q 2597 3491 2834 3397 
z
" transform="scale(0.015625)"/>
       <path id="DejaVuSans-6f" d="M 1959 3097 
Q 1497 3097 1228 2736 
Q 959 2375 959 1747 
Q 959 1119 1226 758 
Q 1494 397 1959 397 
Q 2419 397 2687 759 
Q 2956 1122 2956 1747 
Q 2956 2369 2687 2733 
Q 2419 3097 1959 3097 
z
M 1959 3584 
Q 2709 3584 3137 3096 
Q 3566 2609 3566 1747 
Q 3566 888 3137 398 
Q 2709 -91 1959 -91 
Q 1206 -91 779 398 
Q 353 888 353 1747 
Q 353 2609 779 3096 
Q 1206 3584 1959 3584 
z
" transform="scale(0.015625)"/>
       <path id="DejaVuSans-31" d="M 794 531 
L 1825 531 
L 1825 4091 
L 703 3866 
L 703 4441 
L 1819 4666 
L 2450 4666 
L 2450 531 
L 3481 531 
L 3481 0 
L 794 0 
L 794 531 
z
" transform="scale(0.015625)"/>
      </defs>
      <use xlink:href="#DejaVuSans-54"/>
      <use xlink:href="#DejaVuSans-53" x="61.083984"/>
      <use xlink:href="#DejaVuSans-4e" x="124.560547"/>
      <use xlink:href="#DejaVuSans-45" x="199.365234"/>
      <use xlink:href="#DejaVuSans-20" x="262.548828"/>
      <use xlink:href="#DejaVuSans-44" x="294.335938"/>
      <use xlink:href="#DejaVuSans-69" x="371.337891"/>
      <use xlink:href="#DejaVuSans-6d" x="399.121094"/>
      <use xlink:href="#DejaVuSans-65" x="496.533203"/>
      <use xlink:href="#DejaVuSans-6e" x="558.056641"/>
      <use xlink:href="#DejaVuSans-73" x="621.435547"/>
      <use xlink:href="#DejaVuSans-69" x="673.535156"/>
      <use xlink:href="#DejaVuSans-6f" x="701.318359"/>
      <use xlink:href="#DejaVuSans-6e" x="762.5"/>
      <use xlink:href="#DejaVuSans-20" x="825.878906"/>
      <use xlink:href="#DejaVuSans-31" x="857.666016"/>
     </g>
    </g>
   </g>
   <g id="matplotlib.axis_2">
    <g id="text_2">
     <!-- TSNE Dimension 2 -->
     <g transform="translate(7.598437 349.182187) rotate(-90) scale(0.1 -0.1)">
      <defs>
       <path id="DejaVuSans-32" d="M 1228 531 
L 3431 531 
L 3431 0 
L 469 0 
L 469 531 
Q 828 903 1448 1529 
Q 2069 2156 2228 2338 
Q 2531 2678 2651 2914 
Q 2772 3150 2772 3378 
Q 2772 3750 2511 3984 
Q 2250 4219 1831 4219 
Q 1534 4219 1204 4116 
Q 875 4013 500 3803 
L 500 4441 
Q 881 4594 1212 4672 
Q 1544 4750 1819 4750 
Q 2544 4750 2975 4387 
Q 3406 4025 3406 3419 
Q 3406 3131 3298 2873 
Q 3191 2616 2906 2266 
Q 2828 2175 2409 1742 
Q 1991 1309 1228 531 
z
" transform="scale(0.015625)"/>
      </defs>
      <use xlink:href="#DejaVuSans-54"/>
      <use xlink:href="#DejaVuSans-53" x="61.083984"/>
      <use xlink:href="#DejaVuSans-4e" x="124.560547"/>
      <use xlink:href="#DejaVuSans-45" x="199.365234"/>
      <use xlink:href="#DejaVuSans-20" x="262.548828"/>
      <use xlink:href="#DejaVuSans-44" x="294.335938"/>
      <use xlink:href="#DejaVuSans-69" x="371.337891"/>
      <use xlink:href="#DejaVuSans-6d" x="399.121094"/>
      <use xlink:href="#DejaVuSans-65" x="496.533203"/>
      <use xlink:href="#DejaVuSans-6e" x="558.056641"/>
      <use xlink:href="#DejaVuSans-73" x="621.435547"/>
      <use xlink:href="#DejaVuSans-69" x="673.535156"/>
      <use xlink:href="#DejaVuSans-6f" x="701.318359"/>
      <use xlink:href="#DejaVuSans-6e" x="762.5"/>
      <use xlink:href="#DejaVuSans-20" x="825.878906"/>
      <use xlink:href="#DejaVuSans-32" x="857.666016"/>
     </g>
    </g>
   </g>
   <g id="text_3">
    <!-- natural -->
    <g transform="translate(301.678125 303.118125) scale(0.08 -0.08)">
     <defs>
      <path id="DejaVuSans-61" d="M 2194 1759 
Q 1497 1759 1228 1600 
Q 959 1441 959 1056 
Q 959 750 1161 570 
Q 1363 391 1709 391 
Q 2188 391 2477 730 
Q 2766 1069 2766 1631 
L 2766 1759 
L 2194 1759 
z
M 3341 1997 
L 3341 0 
L 2766 0 
L 2766 531 
Q 2569 213 2275 61 
Q 1981 -91 1556 -91 
Q 1019 -91 701 211 
Q 384 513 384 1019 
Q 384 1609 779 1909 
Q 1175 2209 1959 2209 
L 2766 2209 
L 2766 2266 
Q 2766 2663 2505 2880 
Q 2244 3097 1772 3097 
Q 1472 3097 1187 3025 
Q 903 2953 641 2809 
L 641 3341 
Q 956 3463 1253 3523 
Q 1550 3584 1831 3584 
Q 2591 3584 2966 3190 
Q 3341 2797 3341 1997 
z
" transform="scale(0.015625)"/>
      <path id="DejaVuSans-74" d="M 1172 4494 
L 1172 3500 
L 2356 3500 
L 2356 3053 
L 1172 3053 
L 1172 1153 
Q 1172 725 1289 603 
Q 1406 481 1766 481 
L 2356 481 
L 2356 0 
L 1766 0 
Q 1100 0 847 248 
Q 594 497 594 1153 
L 594 3053 
L 172 3053 
L 172 3500 
L 594 3500 
L 594 4494 
L 1172 4494 
z
" transform="scale(0.015625)"/>
      <path id="DejaVuSans-75" d="M 544 1381 
L 544 3500 
L 1119 3500 
L 1119 1403 
Q 1119 906 1312 657 
Q 1506 409 1894 409 
Q 2359 409 2629 706 
Q 2900 1003 2900 1516 
L 2900 3500 
L 3475 3500 
L 3475 0 
L 2900 0 
L 2900 538 
Q 2691 219 2414 64 
Q 2138 -91 1772 -91 
Q 1169 -91 856 284 
Q 544 659 544 1381 
z
M 1991 3584 
L 1991 3584 
z
" transform="scale(0.015625)"/>
      <path id="DejaVuSans-72" d="M 2631 2963 
Q 2534 3019 2420 3045 
Q 2306 3072 2169 3072 
Q 1681 3072 1420 2755 
Q 1159 2438 1159 1844 
L 1159 0 
L 581 0 
L 581 3500 
L 1159 3500 
L 1159 2956 
Q 1341 3275 1631 3429 
Q 1922 3584 2338 3584 
Q 2397 3584 2469 3576 
Q 2541 3569 2628 3553 
L 2631 2963 
z
" transform="scale(0.015625)"/>
      <path id="DejaVuSans-6c" d="M 603 4863 
L 1178 4863 
L 1178 0 
L 603 0 
L 603 4863 
z
" transform="scale(0.015625)"/>
     </defs>
     <use xlink:href="#DejaVuSans-6e"/>
     <use xlink:href="#DejaVuSans-61" x="63.378906"/>
     <use xlink:href="#DejaVuSans-74" x="124.658203"/>
     <use xlink:href="#DejaVuSans-75" x="163.867188"/>
     <use xlink:href="#DejaVuSans-72" x="227.246094"/>
     <use xlink:href="#DejaVuSans-61" x="268.359375"/>
     <use xlink:href="#DejaVuSans-6c" x="329.638672"/>
    </g>
   </g>
   <g id="text_4">
    <!-- KMeans++ Clustering -->
    <g transform="translate(235.733438 9.118125) scale(0.12 -0.12)">
     <defs>
      <path id="DejaVuSans-4b" d="M 628 4666 
L 1259 4666 
L 1259 2694 
L 3353 4666 
L 4166 4666 
L 1850 2491 
L 4331 0 
L 3500 0 
L 1259 2247 
L 1259 0 
L 628 0 
L 628 4666 
z
" transform="scale(0.015625)"/>
      <path id="DejaVuSans-4d" d="M 628 4666 
L 1569 4666 
L 2759 1491 
L 3956 4666 
L 4897 4666 
L 4897 0 
L 4281 0 
L 4281 4097 
L 3078 897 
L 2444 897 
L 1241 4097 
L 1241 0 
L 628 0 
L 628 4666 
z
" transform="scale(0.015625)"/>
      <path id="DejaVuSans-2b" d="M 2944 4013 
L 2944 2272 
L 4684 2272 
L 4684 1741 
L 2944 1741 
L 2944 0 
L 2419 0 
L 2419 1741 
L 678 1741 
L 678 2272 
L 2419 2272 
L 2419 4013 
L 2944 4013 
z
" transform="scale(0.015625)"/>
      <path id="DejaVuSans-43" d="M 4122 4306 
L 4122 3641 
Q 3803 3938 3442 4084 
Q 3081 4231 2675 4231 
Q 1875 4231 1450 3742 
Q 1025 3253 1025 2328 
Q 1025 1406 1450 917 
Q 1875 428 2675 428 
Q 3081 428 3442 575 
Q 3803 722 4122 1019 
L 4122 359 
Q 3791 134 3420 21 
Q 3050 -91 2638 -91 
Q 1578 -91 968 557 
Q 359 1206 359 2328 
Q 359 3453 968 4101 
Q 1578 4750 2638 4750 
Q 3056 4750 3426 4639 
Q 3797 4528 4122 4306 
z
" transform="scale(0.015625)"/>
      <path id="DejaVuSans-67" d="M 2906 1791 
Q 2906 2416 2648 2759 
Q 2391 3103 1925 3103 
Q 1463 3103 1205 2759 
Q 947 2416 947 1791 
Q 947 1169 1205 825 
Q 1463 481 1925 481 
Q 2391 481 2648 825 
Q 2906 1169 2906 1791 
z
M 3481 434 
Q 3481 -459 3084 -895 
Q 2688 -1331 1869 -1331 
Q 1566 -1331 1297 -1286 
Q 1028 -1241 775 -1147 
L 775 -588 
Q 1028 -725 1275 -790 
Q 1522 -856 1778 -856 
Q 2344 -856 2625 -561 
Q 2906 -266 2906 331 
L 2906 616 
Q 2728 306 2450 153 
Q 2172 0 1784 0 
Q 1141 0 747 490 
Q 353 981 353 1791 
Q 353 2603 747 3093 
Q 1141 3584 1784 3584 
Q 2172 3584 2450 3431 
Q 2728 3278 2906 2969 
L 2906 3500 
L 3481 3500 
L 3481 434 
z
" transform="scale(0.015625)"/>
     </defs>
     <use xlink:href="#DejaVuSans-4b"/>
     <use xlink:href="#DejaVuSans-4d" x="65.576172"/>
     <use xlink:href="#DejaVuSans-65" x="151.855469"/>
     <use xlink:href="#DejaVuSans-61" x="213.378906"/>
     <use xlink:href="#DejaVuSans-6e" x="274.658203"/>
     <use xlink:href="#DejaVuSans-73" x="338.037109"/>
     <use xlink:href="#DejaVuSans-2b" x="390.136719"/>
     <use xlink:href="#DejaVuSans-2b" x="473.925781"/>
     <use xlink:href="#DejaVuSans-20" x="557.714844"/>
     <use xlink:href="#DejaVuSans-43" x="589.501953"/>
     <use xlink:href="#DejaVuSans-6c" x="659.326172"/>
     <use xlink:href="#DejaVuSans-75" x="687.109375"/>
     <use xlink:href="#DejaVuSans-73" x="750.488281"/>
     <use xlink:href="#DejaVuSans-74" x="802.587891"/>
     <use xlink:href="#DejaVuSans-65" x="841.796875"/>
     <use xlink:href="#DejaVuSans-72" x="903.320312"/>
     <use xlink:href="#DejaVuSans-69" x="944.433594"/>
     <use xlink:href="#DejaVuSans-6e" x="972.216797"/>
     <use xlink:href="#DejaVuSans-67" x="1035.595703"/>
    </g>
   </g>
   <g id="legend_1">
    <g id="patch_3">
     <path d="M 19.278125 587.118125 
L 73.470625 587.118125 
Q 75.070625 587.118125 75.070625 585.518125 
L 75.070625 574.575625 
Q 75.070625 572.975625 73.470625 572.975625 
L 19.278125 572.975625 
Q 17.678125 572.975625 17.678125 574.575625 
L 17.678125 585.518125 
Q 17.678125 587.118125 19.278125 587.118125 
z
" style="fill: #ffffff; opacity: 0.8; stroke: #cccccc; stroke-linejoin: miter"/>
    </g>
    <g id="patch_4">
     <path d="M 20.878125 582.254375 
L 36.878125 582.254375 
L 36.878125 576.654375 
L 20.878125 576.654375 
z
" style="fill: #a1c9f4; stroke: #a1c9f4; stroke-linejoin: miter"/>
    </g>
    <g id="text_5">
     <!-- natural -->
     <g transform="translate(43.278125 582.254375) scale(0.08 -0.08)">
      <use xlink:href="#DejaVuSans-6e"/>
      <use xlink:href="#DejaVuSans-61" x="63.378906"/>
      <use xlink:href="#DejaVuSans-74" x="124.658203"/>
      <use xlink:href="#DejaVuSans-75" x="163.867188"/>
      <use xlink:href="#DejaVuSans-72" x="227.246094"/>
      <use xlink:href="#DejaVuSans-61" x="268.359375"/>
      <use xlink:href="#DejaVuSans-6c" x="329.638672"/>
     </g>
    </g>
   </g>
  </g>
 </g>
 <defs>
  <clipPath id="pea88b7bcb2">
   <rect x="13.678125" y="15.118125" width="576" height="576"/>
  </clipPath>
 </defs>
</svg>
